SplineFontDB: 3.0
FontName: Rambla-Regular
FullName: Rambla
FamilyName: Rambla
Weight: Book
Copyright: Copyright (c) 2011-2012, Martin Sommaruga (martin@estudiotrama.com), with Reserved Font Name 'Rambla'
Version: 1.001
ItalicAngle: 0
UnderlinePosition: -50
UnderlineWidth: 50
Ascent: 800
Descent: 200
sfntRevision: 0x00010042
LayerCount: 2
Layer: 0 1 "Back"  1
Layer: 1 1 "Fore"  0
XUID: [1021 31 1599448985 4769716]
FSType: 0
OS2Version: 3
OS2_WeightWidthSlopeOnly: 0
OS2_UseTypoMetrics: 1
CreationTime: 1320398520
ModificationTime: 1351749400
PfmFamily: 17
TTFWeight: 400
TTFWidth: 5
LineGap: 0
VLineGap: 0
Panose: 2 0 5 3 0 0 0 2 0 4
OS2TypoAscent: 929
OS2TypoAOffset: 0
OS2TypoDescent: -295
OS2TypoDOffset: 0
OS2TypoLinegap: 0
OS2WinAscent: 929
OS2WinAOffset: 0
OS2WinDescent: 295
OS2WinDOffset: 0
HheadAscent: 929
HheadAOffset: 0
HheadDescent: -295
HheadDOffset: 0
OS2SubXSize: 650
OS2SubYSize: 600
OS2SubXOff: 0
OS2SubYOff: 75
OS2SupXSize: 650
OS2SupYSize: 600
OS2SupXOff: 0
OS2SupYOff: 350
OS2StrikeYSize: 50
OS2StrikeYPos: 303
OS2Vendor: 'PYRS'
OS2CodePages: 20000001.00000000
OS2UnicodeRanges: 8000002f.4000004a.00000000.00000000
Lookup: 258 0 0 "'kern' Horizontal Kerning lookup 0"  {"'kern' Horizontal Kerning lookup 0 per glyph data 0"  "'kern' Horizontal Kerning lookup 0 kerning class 1"  } ['kern' ('DFLT' <'dflt' > ) ]
DEI: 91125
KernClass2: 71+ 58 "'kern' Horizontal Kerning lookup 0 kerning class 1" 
 5 space
 29 guillemotright guilsinglright
 4 four
 40 comma period quotesinglbase quotedblbase
 15 colon semicolon
 4 zero
 5 seven
 4 nine
 24 quoteright quotedblright
 22 quoteleft quotedblleft
 5 slash
 9 backslash
 12 questiondown
 28 hyphen uni00AD endash emdash
 8 asterisk
 27 guillemotleft guilsinglleft
 10 registered
 9 ampersand
 20 quotedbl quotesingle
 10 exclamdown
 9 trademark
 50 A Agrave Aacute Acircumflex Atilde Adieresis Aring
 1 F
 43 E AE Egrave Eacute Ecircumflex Edieresis OE
 8 L Lslash
 48 H I N Igrave Iacute Icircumflex Idieresis Ntilde
 1 T

StartChar: exclam
Encoding: 33 33 4
Width: 235
GlyphClass: 2
Flags: W
LayerCount: 2
Fore
SplineSet
167 700 m 1,0,-1
 155 184 l 1,1,-1
 79 184 l 1,2,-1
 69 700 l 1,3,-1
 167 700 l 1,0,-1
118 117 m 128,-1,5
 143 117 143 117 161 99.5 c 128,-1,6
 179 82 179 82 179 56.5 c 128,-1,7
 179 31 179 31 161 12.5 c 128,-1,8
 143 -6 143 -6 118 -6 c 128,-1,9
 93 -6 93 -6 75 12.5 c 128,-1,10
 57 31 57 31 57 56.5 c 128,-1,11
 57 82 57 82 75 99.5 c 128,-1,4
 93 117 93 117 118 117 c 128,-1,5
EndSplineSet
EndChar

StartChar: quotedbl
Encoding: 34 34 5
Width: 352
GlyphClass: 2
Flags: W
LayerCount: 2
Fore
SplineSet
52 700 m 1,0,-1
 139 700 l 1,1,-1
 125 481 l 1,2,-1
 65 481 l 1,3,-1
 52 700 l 1,0,-1
214 700 m 1,4,-1
 301 700 l 1,5,-1
 287 481 l 1,6,-1
 227 481 l 1,7,-1
 214 700 l 1,4,-1
EndSplineSet
EndChar

StartChar: numbersign
Encoding: 35 35 6
Width: 595
GlyphClass: 2
Flags: W
LayerCount: 2
Fore
SplineSet
44 190 m 1,0,-1
 44 267 l 1,1,-1
 140 267 l 1,2,-1
 162 389 l 1,3,-1
 48 389 l 1,4,-1
 48 466 l 1,5,-1
 176 466 l 1,6,-1
 212 668 l 1,7,-1
 292 668 l 1,8,-1
 255 466 l 1,9,-1
 370 466 l 1,10,-1
 407 668 l 1,11,-1
 485 668 l 1,12,-1
 449 466 l 1,13,-1
 551 466 l 1,14,-1
 551 389 l 1,15,-1
 436 389 l 1,16,-1
 414 267 l 1,17,-1
 547 267 l 1,18,-1
 547 190 l 1,19,-1
 401 190 l 1,20,-1
 363 -14 l 1,21,-1
 285 -14 l 1,22,-1
 321 190 l 1,23,-1
 207 190 l 1,24,-1
 170 -14 l 1,25,-1
 91 -14 l 1,26,-1
 127 190 l 1,27,-1
 44 190 l 1,0,-1
356 389 m 1,28,-1
 243 389 l 1,29,-1
 221 267 l 1,30,-1
 335 267 l 1,31,-1
 356 389 l 1,28,-1
EndSplineSet
EndChar

StartChar: dollar
Encoding: 36 36 7
Width: 466
GlyphClass: 2
Flags: W
LayerCount: 2
Fore
SplineSet
391 52 m 128,-1,1
 346 2 346 2 270 -9 c 1,2,-1
 272 -118 l 1,3,-1
 202 -118 l 1,4,-1
 204 -12 l 1,5,6
 92 -5 92 -5 31 25 c 1,7,-1
 57 109 l 1,8,9
 151 71 151 71 216 71 c 128,-1,10
 281 71 281 71 313 99 c 128,-1,11
 345 127 345 127 345 170 c 128,-1,12
 345 213 345 213 309.5 243.5 c 128,-1,13
 274 274 274 274 221.5 300 c 128,-1,14
 169 326 169 326 153.5 334.5 c 128,-1,15
 138 343 138 343 114 361.5 c 128,-1,16
 90 380 90 380 78 397 c 0,17,18
 48 442 48 442 48 506 c 128,-1,19
 48 570 48 570 92.5 613.5 c 128,-1,20
 137 657 137 657 208 666 c 1,21,-1
 206 774 l 1,22,-1
 276 774 l 1,23,-1
 274 667 l 1,24,25
 338 663 338 663 407 638 c 1,26,-1
 382 559 l 1,27,28
 310 585 310 585 251 585 c 128,-1,29
 192 585 192 585 165 562 c 128,-1,30
 138 539 138 539 138 501.5 c 128,-1,31
 138 464 138 464 170 438 c 128,-1,32
 202 412 202 412 253 385.5 c 128,-1,33
 304 359 304 359 328 343.5 c 128,-1,34
 352 328 352 328 380 302 c 0,35,36
 436 252 436 252 436 177 c 128,-1,0
 436 102 436 102 391 52 c 128,-1,1
EndSplineSet
EndChar

StartChar: uni0025
Encoding: 37 37 8
Width: 725
GlyphClass: 2
Flags: W
LayerCount: 2
Fore
SplineSet
228 0 m 1,0,-1
 136 0 l 1,1,-1
 498 701 l 1,2,-1
 589 701 l 1,3,-1
 228 0 l 1,0,-1
264.5 348 m 128,-1,5
 228 307 228 307 166.5 307 c 128,-1,6
 105 307 105 307 70 347.5 c 128,-1,7
 35 388 35 388 35 497.5 c 128,-1,8
 35 607 35 607 71.5 649 c 128,-1,9
 108 691 108 691 169 691 c 128,-1,10
 230 691 230 691 265.5 649.5 c 128,-1,11
 301 608 301 608 301 498.5 c 128,-1,4
 301 389 301 389 264.5 348 c 128,-1,5
167 626 m 0,12,13
 109 626 109 626 109 499 c 0,14,15
 109 428 109 428 124 400 c 128,-1,16
 139 372 139 372 167.5 372 c 128,-1,17
 196 372 196 372 211.5 400 c 128,-1,18
 227 428 227 428 227 499 c 0,19,20
 227 626 227 626 167 626 c 0,12,13
654.5 28 m 128,-1,22
 618 -13 618 -13 556.5 -13 c 128,-1,23
 495 -13 495 -13 460 27.5 c 128,-1,24
 425 68 425 68 425 177.5 c 128,-1,25
 425 287 425 287 461.5 329 c 128,-1,26
 498 371 498 371 559 371 c 128,-1,27
 620 371 620 371 655.5 329.5 c 128,-1,28
 691 288 691 288 691 178.5 c 128,-1,21
 691 69 691 69 654.5 28 c 128,-1,22
557 306 m 0,29,30
 499 306 499 306 499 179 c 0,31,32
 499 108 499 108 514 80 c 128,-1,33
 529 52 529 52 557.5 52 c 128,-1,34
 586 52 586 52 601.5 80 c 128,-1,35
 617 108 617 108 617 179 c 0,36,37
 617 306 617 306 557 306 c 0,29,30
EndSplineSet
EndChar

StartChar: ampersand
Encoding: 38 38 9
Width: 673
GlyphClass: 2
Flags: W
LayerCount: 2
Fore
SplineSet
160 267 m 128,-1,1
 133 227 133 227 133 177.5 c 128,-1,2
 133 128 133 128 171 95.5 c 128,-1,3
 209 63 209 63 264 63 c 0,4,5
 351 63 351 63 409 133 c 1,6,-1
 240 330 l 1,7,0
 187 307 187 307 160 267 c 128,-1,1
193 393 m 1,8,9
 118 482 118 482 118 547.5 c 128,-1,10
 118 613 118 613 160.5 647 c 128,-1,11
 203 681 203 681 272.5 681 c 128,-1,12
 342 681 342 681 420 645 c 1,13,-1
 395 576 l 1,14,15
 337 605 337 605 270 605 c 128,-1,16
 203 605 203 605 203 551 c 0,17,18
 203 508 203 508 261 439 c 2,19,-1
 466 199 l 1,20,21
 526 290 526 290 535 410 c 1,22,-1
 614 410 l 1,23,24
 604 247 604 247 521 134 c 1,25,26
 552 105 552 105 594 75.5 c 128,-1,27
 636 46 636 46 664 33 c 1,28,-1
 628 -31 l 1,29,30
 532 11 532 11 465 70 c 1,31,32
 383 -13 383 -13 257 -13 c 0,33,34
 167 -13 167 -13 105 38 c 128,-1,35
 43 89 43 89 43 180 c 0,36,37
 43 307 43 307 193 393 c 1,8,9
EndSplineSet
EndChar

StartChar: quotesingle
Encoding: 39 39 10
Width: 193
GlyphClass: 2
Flags: W
LayerCount: 2
Fore
SplineSet
53 700 m 1,0,-1
 140 700 l 1,1,-1
 126 460 l 1,2,-1
 66 460 l 1,3,-1
 53 700 l 1,0,-1
EndSplineSet
EndChar

StartChar: parenleft
Encoding: 40 40 11
Width: 291
GlyphClass: 2
Flags: W
LayerCount: 2
Fore
SplineSet
43 309 m 128,-1,1
 43 528 43 528 199 753 c 1,2,-1
 265 710 l 1,3,4
 135 504 135 504 135 309 c 128,-1,5
 135 114 135 114 265 -92 c 1,6,-1
 199 -135 l 1,7,0
 43 90 43 90 43 309 c 128,-1,1
EndSplineSet
EndChar

StartChar: parenright
Encoding: 41 41 12
Width: 290
GlyphClass: 2
Flags: W
LayerCount: 2
Fore
SplineSet
247 309 m 128,-1,1
 247 89 247 89 92 -135 c 1,2,-1
 26 -92 l 1,3,4
 156 117 156 117 156 309 c 128,-1,5
 156 501 156 501 26 710 c 1,6,-1
 92 753 l 1,7,0
 247 529 247 529 247 309 c 128,-1,1
EndSplineSet
EndChar

StartChar: asterisk
Encoding: 42 42 13
Width: 391
GlyphClass: 2
Flags: W
LayerCount: 2
Fore
SplineSet
247 539 m 1,0,-1
 349 494 l 1,1,-1
 308 428 l 1,2,-1
 225 494 l 1,3,-1
 234 382 l 1,4,-1
 157 382 l 1,5,-1
 166 496 l 1,6,-1
 82 428 l 1,7,-1
 43 495 l 1,8,-1
 145 537 l 1,9,-1
 43 579 l 1,10,-1
 81 648 l 1,11,-1
 166 581 l 1,12,-1
 157 693 l 1,13,-1
 234 693 l 1,14,-1
 226 581 l 1,15,-1
 309 648 l 1,16,-1
 349 579 l 1,17,-1
 247 539 l 1,0,-1
EndSplineSet
EndChar

StartChar: plus
Encoding: 43 43 14
Width: 468
GlyphClass: 2
Flags: W
LayerCount: 2
Fore
SplineSet
273 85 m 1,0,-1
 194 85 l 1,1,-1
 194 239 l 1,2,-1
 42 239 l 1,3,-1
 42 318 l 1,4,-1
 194 318 l 1,5,-1
 194 470 l 1,6,-1
 273 470 l 1,7,-1
 273 318 l 1,8,-1
 426 318 l 1,9,-1
 426 239 l 1,10,-1
 273 239 l 1,11,-1
 273 85 l 1,0,-1
EndSplineSet
EndChar

StartChar: comma
Encoding: 44 44 15
Width: 220
GlyphClass: 2
Flags: W
LayerCount: 2
Fore
SplineSet
163 59 m 0,0,1
 163 -46 163 -46 74 -128 c 1,2,-1
 -9 -128 l 1,3,4
 73 -33 73 -33 73 44 c 0,5,6
 73 77 73 77 56 116 c 1,7,-1
 151 116 l 1,8,9
 163 90 163 90 163 59 c 0,0,1
EndSplineSet
EndChar

StartChar: hyphen
Encoding: 45 45 16
Width: 509
GlyphClass: 2
Flags: W
LayerCount: 2
Fore
SplineSet
446 318 m 1,0,-1
 446 239 l 1,1,-1
 63 239 l 1,2,-1
 63 318 l 1,3,-1
 446 318 l 1,0,-1
EndSplineSet
EndChar

StartChar: period
Encoding: 46 46 17
Width: 224
GlyphClass: 2
Flags: W
LayerCount: 2
Fore
SplineSet
112 117 m 128,-1,1
 137 117 137 117 155 99.5 c 128,-1,2
 173 82 173 82 173 56.5 c 128,-1,3
 173 31 173 31 155 12.5 c 128,-1,4
 137 -6 137 -6 112 -6 c 128,-1,5
 87 -6 87 -6 69 12.5 c 128,-1,6
 51 31 51 31 51 56.5 c 128,-1,7
 51 82 51 82 69 99.5 c 128,-1,0
 87 117 87 117 112 117 c 128,-1,1
EndSplineSet
EndChar

StartChar: slash
Encoding: 47 47 18
Width: 428
GlyphClass: 2
Flags: W
LayerCount: 2
Fore
SplineSet
410 684 m 1,0,-1
 93 -64 l 1,1,-1
 18 -38 l 1,2,-1
 337 710 l 1,3,-1
 410 684 l 1,0,-1
EndSplineSet
EndChar

StartChar: zero
Encoding: 48 48 19
Width: 529
GlyphClass: 2
Flags: W
LayerCount: 2
Fore
SplineSet
262 -13 m 0,0,1
 194 -13 194 -13 149.5 16 c 128,-1,2
 105 45 105 45 78.5 123 c 128,-1,3
 52 201 52 201 52 332 c 128,-1,4
 52 463 52 463 80 542 c 128,-1,5
 108 621 108 621 153.5 651 c 128,-1,6
 199 681 199 681 267 681 c 0,7,8
 371 681 371 681 424.5 604 c 128,-1,9
 478 527 478 527 478 335.5 c 128,-1,10
 478 144 478 144 422.5 65.5 c 128,-1,11
 367 -13 367 -13 262 -13 c 0,0,1
265 596 m 128,-1,13
 204 596 204 596 175 538 c 128,-1,14
 146 480 146 480 146 333.5 c 128,-1,15
 146 187 146 187 174.5 129.5 c 128,-1,16
 203 72 203 72 265 72 c 128,-1,17
 327 72 327 72 355.5 129.5 c 128,-1,18
 384 187 384 187 384 333.5 c 128,-1,19
 384 480 384 480 355 538 c 128,-1,12
 326 596 326 596 265 596 c 128,-1,13
EndSplineSet
EndChar

StartChar: one
Encoding: 49 49 20
Width: 353
GlyphClass: 2
Flags: W
LayerCount: 2
Fore
SplineSet
278 0 m 1,0,-1
 185 0 l 1,1,-1
 185 585 l 1,2,-1
 41 518 l 1,3,-1
 14 585 l 1,4,-1
 199 668 l 1,5,-1
 278 668 l 1,6,-1
 278 0 l 1,0,-1
EndSplineSet
EndChar

StartChar: two
Encoding: 50 50 21
Width: 474
GlyphClass: 2
Flags: W
LayerCount: 2
Fore
SplineSet
28 0 m 1,0,-1
 28 81 l 1,1,2
 135 196 135 196 213 290.5 c 128,-1,3
 291 385 291 385 308.5 416 c 128,-1,4
 326 447 326 447 326 494.5 c 128,-1,5
 326 542 326 542 296 569 c 128,-1,6
 266 596 266 596 208 596 c 128,-1,7
 150 596 150 596 87 571 c 1,8,-1
 65 643 l 1,9,10
 147 681 147 681 231 681 c 128,-1,11
 315 681 315 681 364.5 632 c 128,-1,12
 414 583 414 583 414 496 c 128,-1,13
 414 409 414 409 329 304 c 0,14,15
 208 153 208 153 143 81 c 1,16,-1
 438 81 l 1,17,-1
 431 0 l 1,18,-1
 28 0 l 1,0,-1
EndSplineSet
EndChar

StartChar: three
Encoding: 51 51 22
Width: 467
GlyphClass: 2
Flags: W
LayerCount: 2
Fore
SplineSet
181 325 m 2,0,-1
 133 325 l 1,1,-1
 133 393 l 1,2,-1
 180 393 l 1,3,4
 239 400 239 400 271.5 433 c 128,-1,5
 304 466 304 466 304 510.5 c 128,-1,6
 304 555 304 555 274.5 576 c 128,-1,7
 245 597 245 597 189.5 597 c 128,-1,8
 134 597 134 597 71 572 c 1,9,-1
 49 644 l 1,10,11
 134 681 134 681 215.5 681 c 128,-1,12
 297 681 297 681 345.5 636.5 c 128,-1,13
 394 592 394 592 394 517 c 0,14,15
 394 471 394 471 372.5 430.5 c 128,-1,16
 351 390 351 390 311 368 c 1,17,18
 421 327 421 327 421 202 c 0,19,20
 421 107 421 107 362.5 47 c 128,-1,21
 304 -13 304 -13 208.5 -13 c 128,-1,22
 113 -13 113 -13 28 39 c 1,23,-1
 61 114 l 1,24,25
 145 72 145 72 203.5 72 c 128,-1,26
 262 72 262 72 296 108.5 c 128,-1,27
 330 145 330 145 330 201 c 128,-1,28
 330 257 330 257 291 291 c 128,-1,29
 252 325 252 325 181 325 c 2,0,-1
EndSplineSet
EndChar

StartChar: four
Encoding: 52 52 23
Width: 542
GlyphClass: 2
Flags: W
LayerCount: 2
Fore
SplineSet
515 190 m 1,0,-1
 402 190 l 1,1,-1
 402 0 l 1,2,-1
 313 0 l 1,3,-1
 313 190 l 1,4,-1
 25 190 l 1,5,-1
 25 248 l 1,6,-1
 300 660 l 1,7,-1
 402 660 l 1,8,-1
 402 256 l 1,9,-1
 515 256 l 1,10,-1
 515 190 l 1,0,-1
313 256 m 1,11,-1
 313 530 l 1,12,-1
 129 256 l 1,13,-1
 313 256 l 1,11,-1
EndSplineSet
EndChar

StartChar: five
Encoding: 53 53 24
Width: 471
GlyphClass: 2
Flags: W
LayerCount: 2
Fore
SplineSet
217 72 m 0,0,1
 276 72 276 72 306.5 112.5 c 128,-1,2
 337 153 337 153 337 217 c 128,-1,3
 337 281 337 281 311.5 319.5 c 128,-1,4
 286 358 286 358 228.5 358 c 128,-1,5
 171 358 171 358 128 311 c 1,6,-1
 70 341 l 1,7,-1
 70 668 l 1,8,-1
 400 668 l 1,9,-1
 400 587 l 1,10,-1
 154 587 l 1,11,-1
 154 414 l 1,12,13
 194 440 194 440 260.5 440 c 128,-1,14
 327 440 327 440 378 382.5 c 128,-1,15
 429 325 429 325 429 223 c 128,-1,16
 429 121 429 121 377 54 c 128,-1,17
 325 -13 325 -13 224 -13 c 128,-1,18
 123 -13 123 -13 37 40 c 1,19,-1
 67 113 l 1,20,21
 97 97 97 97 142 84.5 c 128,-1,22
 187 72 187 72 217 72 c 0,0,1
EndSplineSet
EndChar

StartChar: six
Encoding: 54 54 25
Width: 493
GlyphClass: 2
Flags: W
LayerCount: 2
Fore
SplineSet
250 -13 m 0,0,1
 49 -13 49 -13 49 285 c 0,2,3
 49 473 49 473 123.5 577 c 128,-1,4
 198 681 198 681 316 681 c 0,5,6
 373 681 373 681 420 660 c 1,7,-1
 399 586 l 1,8,9
 361 596 361 596 325 596 c 0,10,11
 257 596 257 596 213.5 544.5 c 128,-1,12
 170 493 170 493 153 399 c 1,13,14
 206 448 206 448 283.5 448 c 128,-1,15
 361 448 361 448 407 394 c 128,-1,16
 453 340 453 340 453 233.5 c 128,-1,17
 453 127 453 127 400.5 57 c 128,-1,18
 348 -13 348 -13 250 -13 c 0,0,1
275 365 m 0,19,20
 196 365 196 365 142 311 c 1,21,22
 142 217 142 217 157 162.5 c 128,-1,23
 172 108 172 108 194.5 90 c 128,-1,24
 217 72 217 72 253 72 c 0,25,26
 305 72 305 72 333 114.5 c 128,-1,27
 361 157 361 157 361 230 c 0,28,29
 361 365 361 365 275 365 c 0,19,20
EndSplineSet
EndChar

StartChar: seven
Encoding: 55 55 26
Width: 424
GlyphClass: 2
Flags: W
LayerCount: 2
Fore
SplineSet
24 587 m 1,0,-1
 24 668 l 1,1,-1
 407 668 l 1,2,-1
 407 615 l 1,3,-1
 294 346 l 1,4,5
 212 164 212 164 189 0 c 1,6,-1
 91 0 l 1,7,8
 111 159 111 159 188 332 c 2,9,-1
 300 587 l 1,10,-1
 24 587 l 1,0,-1
EndSplineSet
EndChar

StartChar: eight
Encoding: 56 56 27
Width: 506
GlyphClass: 2
Flags: W
LayerCount: 2
Fore
SplineSet
407.5 43.5 m 128,-1,1
 355 -13 355 -13 254.5 -13 c 128,-1,2
 154 -13 154 -13 99.5 38 c 128,-1,3
 45 89 45 89 45 177 c 0,4,5
 45 233 45 233 76.5 280.5 c 128,-1,6
 108 328 108 328 160 356 c 1,7,8
 76 411 76 411 76 513 c 0,9,10
 76 593 76 593 127 636.5 c 128,-1,11
 178 680 178 680 257.5 680 c 128,-1,12
 337 680 337 680 385.5 638.5 c 128,-1,13
 434 597 434 597 434 524 c 0,14,15
 434 472 434 472 408 428 c 128,-1,16
 382 384 382 384 334 357 c 1,17,18
 396 329 396 329 428 287.5 c 128,-1,19
 460 246 460 246 460 173 c 128,-1,0
 460 100 460 100 407.5 43.5 c 128,-1,1
138 177 m 0,20,21
 138 127 138 127 170 99.5 c 128,-1,22
 202 72 202 72 254.5 72 c 128,-1,23
 307 72 307 72 338 102.5 c 128,-1,24
 369 133 369 133 369 182 c 0,25,26
 369 239 369 239 326 270 c 0,27,28
 289 296 289 296 259 307 c 0,29,30
 224 321 224 321 223 322 c 1,31,32
 138 272 138 272 138 177 c 0,20,21
323 577.5 m 128,-1,34
 298 597 298 597 258.5 597 c 128,-1,35
 219 597 219 597 190.5 578.5 c 128,-1,36
 162 560 162 560 162 518.5 c 128,-1,37
 162 477 162 477 190 440.5 c 128,-1,38
 218 404 218 404 261 385 c 1,39,40
 301 407 301 407 324.5 446.5 c 128,-1,41
 348 486 348 486 348 522 c 128,-1,33
 348 558 348 558 323 577.5 c 128,-1,34
EndSplineSet
EndChar

StartChar: nine
Encoding: 57 57 28
Width: 494
GlyphClass: 2
Flags: W
LayerCount: 2
Fore
SplineSet
171 -13 m 0,0,1
 122 -13 122 -13 69 8 c 1,2,-1
 92 88 l 1,3,4
 132 72 132 72 167 72 c 0,5,6
 306 72 306 72 344 263 c 1,7,8
 282 212 282 212 207.5 212 c 128,-1,9
 133 212 133 212 87 266 c 128,-1,10
 41 320 41 320 41 429 c 128,-1,11
 41 538 41 538 94 609.5 c 128,-1,12
 147 681 147 681 243 681 c 0,13,14
 445 681 445 681 445 374 c 0,15,16
 445 192 445 192 369 89.5 c 128,-1,17
 293 -13 293 -13 171 -13 c 0,0,1
324 548 m 128,-1,19
 296 596 296 596 242.5 596 c 128,-1,20
 189 596 189 596 161 552 c 128,-1,21
 133 508 133 508 133 430 c 0,22,23
 133 290 133 290 220 290 c 0,24,25
 287 290 287 290 351 347 c 1,26,27
 352 358 352 358 352 379 c 0,28,18
 352 500 352 500 324 548 c 128,-1,19
EndSplineSet
EndChar

StartChar: colon
Encoding: 58 58 29
Width: 249
GlyphClass: 2
Flags: W
LayerCount: 2
Fore
SplineSet
124 117 m 128,-1,1
 149 117 149 117 167 99.5 c 128,-1,2
 185 82 185 82 185 56.5 c 128,-1,3
 185 31 185 31 167 12.5 c 128,-1,4
 149 -6 149 -6 124 -6 c 128,-1,5
 99 -6 99 -6 81 12.5 c 128,-1,6
 63 31 63 31 63 56.5 c 128,-1,7
 63 82 63 82 81 99.5 c 128,-1,0
 99 117 99 117 124 117 c 128,-1,1
125 417 m 128,-1,9
 150 417 150 417 168 399.5 c 128,-1,10
 186 382 186 382 186 356.5 c 128,-1,11
 186 331 186 331 168 312.5 c 128,-1,12
 150 294 150 294 125 294 c 128,-1,13
 100 294 100 294 82 312.5 c 128,-1,14
 64 331 64 331 64 356.5 c 128,-1,15
 64 382 64 382 82 399.5 c 128,-1,8
 100 417 100 417 125 417 c 128,-1,9
EndSplineSet
EndChar

StartChar: semicolon
Encoding: 59 59 30
Width: 252
GlyphClass: 2
Flags: W
LayerCount: 2
Fore
SplineSet
126 416 m 128,-1,1
 151 416 151 416 169 398.5 c 128,-1,2
 187 381 187 381 187 355.5 c 128,-1,3
 187 330 187 330 169 311.5 c 128,-1,4
 151 293 151 293 126 293 c 128,-1,5
 101 293 101 293 83 311.5 c 128,-1,6
 65 330 65 330 65 355.5 c 128,-1,7
 65 381 65 381 83 398.5 c 128,-1,0
 101 416 101 416 126 416 c 128,-1,1
181 59 m 0,8,9
 181 -46 181 -46 92 -128 c 1,10,-1
 9 -128 l 1,11,12
 91 -33 91 -33 91 44 c 0,13,14
 91 77 91 77 74 116 c 1,15,-1
 169 116 l 1,16,17
 181 90 181 90 181 59 c 0,8,9
EndSplineSet
EndChar

StartChar: less
Encoding: 60 60 31
Width: 437
GlyphClass: 2
Flags: W
LayerCount: 2
Fore
SplineSet
37 275 m 1,0,-1
 37 345 l 1,1,-1
 378 516 l 1,2,-1
 378 431 l 1,3,-1
 138 311 l 1,4,-1
 378 189 l 1,5,-1
 378 105 l 1,6,-1
 37 275 l 1,0,-1
EndSplineSet
EndChar

StartChar: equal
Encoding: 61 61 32
Width: 464
GlyphClass: 2
Flags: W
LayerCount: 2
Fore
SplineSet
401 432 m 1,0,-1
 401 353 l 1,1,-1
 63 353 l 1,2,-1
 63 432 l 1,3,-1
 401 432 l 1,0,-1
401 240 m 1,4,-1
 401 160 l 1,5,-1
 63 160 l 1,6,-1
 63 240 l 1,7,-1
 401 240 l 1,4,-1
EndSplineSet
EndChar

StartChar: greater
Encoding: 62 62 33
Width: 437
GlyphClass: 2
Flags: W
LayerCount: 2
Fore
SplineSet
400 345 m 1,0,-1
 400 275 l 1,1,-1
 59 105 l 1,2,-1
 59 189 l 1,3,-1
 299 311 l 1,4,-1
 59 431 l 1,5,-1
 59 516 l 1,6,-1
 400 345 l 1,0,-1
EndSplineSet
EndChar

StartChar: question
Encoding: 63 63 34
Width: 339
GlyphClass: 2
Flags: W
LayerCount: 2
Fore
SplineSet
179 577.5 m 128,-1,1
 134 606 134 606 46 614 c 1,2,-1
 64 691 l 1,3,4
 178 686 178 686 245 636 c 128,-1,5
 312 586 312 586 312 513 c 0,6,7
 312 435 312 435 252 381 c 0,8,9
 229 361 229 361 206 341 c 0,10,11
 153 293 153 293 147 225 c 1,12,-1
 145 166 l 1,13,-1
 68 166 l 1,14,15
 66 208 66 208 66 221 c 0,16,17
 66 304 66 304 124 363 c 0,18,19
 145 385 145 385 166 405 c 0,20,21
 224 458 224 458 224 503.5 c 128,-1,0
 224 549 224 549 179 577.5 c 128,-1,1
112 110 m 128,-1,23
 137 110 137 110 155 92.5 c 128,-1,24
 173 75 173 75 173 49.5 c 128,-1,25
 173 24 173 24 155 5.5 c 128,-1,26
 137 -13 137 -13 112 -13 c 128,-1,27
 87 -13 87 -13 69 5.5 c 128,-1,28
 51 24 51 24 51 49.5 c 128,-1,29
 51 75 51 75 69 92.5 c 128,-1,22
 87 110 87 110 112 110 c 128,-1,23
EndSplineSet
EndChar

StartChar: at
Encoding: 64 64 35
Width: 761
GlyphClass: 2
Flags: W
LayerCount: 2
Fore
SplineSet
555 125 m 0,0,1
 481 125 481 125 458 185 c 1,2,3
 441 157 441 157 412 140.5 c 128,-1,4
 383 124 383 124 349 124 c 0,5,6
 286 124 286 124 246 165 c 128,-1,7
 206 206 206 206 206 279 c 0,8,9
 206 381 206 381 264.5 445 c 128,-1,10
 323 509 323 509 411 509 c 0,11,12
 468 509 468 509 540 478 c 1,13,-1
 522 275 l 2,14,15
 521 262 521 262 521 242 c 0,16,17
 521 190 521 190 563 190 c 0,18,19
 642 190 642 190 642 375 c 0,20,21
 642 485 642 485 586.5 547.5 c 128,-1,22
 531 610 531 610 409.5 610 c 128,-1,23
 288 610 288 610 209.5 524.5 c 128,-1,24
 131 439 131 439 131 302 c 128,-1,25
 131 165 131 165 201.5 94.5 c 128,-1,26
 272 24 272 24 375.5 24 c 128,-1,27
 479 24 479 24 592 78 c 1,28,-1
 620 15 l 1,29,30
 478 -50 478 -50 370 -50 c 0,31,32
 232 -50 232 -50 138.5 39 c 128,-1,33
 45 128 45 128 45 295.5 c 128,-1,34
 45 463 45 463 148.5 571.5 c 128,-1,35
 252 680 252 680 409.5 680 c 128,-1,36
 567 680 567 680 645.5 598 c 128,-1,37
 724 516 724 516 724 374 c 0,38,39
 724 125 724 125 555 125 c 0,0,1
413 447 m 0,40,41
 360 447 360 447 325 401.5 c 128,-1,42
 290 356 290 356 290 287 c 0,43,44
 290 188 290 188 359 188 c 0,45,46
 392 188 392 188 413.5 215.5 c 128,-1,47
 435 243 435 243 439 286 c 2,48,-1
 452 441 l 1,49,50
 434 447 434 447 413 447 c 0,40,41
EndSplineSet
EndChar

StartChar: A
Encoding: 65 65 36
Width: 561
GlyphClass: 2
Flags: W
LayerCount: 2
Fore
SplineSet
398 172 m 1,0,-1
 163 172 l 1,1,-1
 106 0 l 1,2,-1
 8 0 l 1,3,-1
 227 668 l 1,4,-1
 334 668 l 1,5,-1
 553 0 l 1,6,-1
 456 0 l 1,7,-1
 398 172 l 1,0,-1
376 247 m 1,8,-1
 280 577 l 1,9,-1
 185 247 l 1,10,-1
 376 247 l 1,8,-1
EndSplineSet
EndChar

StartChar: B
Encoding: 66 66 37
Width: 547
GlyphClass: 2
Flags: W
LayerCount: 2
Fore
SplineSet
462 499 m 0,0,1
 462 406 462 406 385 365 c 1,2,3
 449 341 449 341 475.5 300.5 c 128,-1,4
 502 260 502 260 502 195 c 0,5,6
 502 104 502 104 447 52 c 128,-1,7
 392 0 392 0 282 0 c 2,8,-1
 79 0 l 1,9,-1
 79 668 l 1,10,-1
 202 668 l 2,11,12
 261 668 261 668 288 667 c 0,13,14
 462 661 462 661 462 499 c 0,0,1
175 596 m 1,15,-1
 175 396 l 1,16,-1
 273 396 l 1,17,18
 317 399 317 399 341 426.5 c 128,-1,19
 365 454 365 454 365 491.5 c 128,-1,20
 365 529 365 529 357.5 547 c 128,-1,21
 350 565 350 565 339.5 575 c 128,-1,22
 329 585 329 585 308 590 c 1,23,24
 276 596 276 596 222 596 c 2,25,-1
 175 596 l 1,15,-1
263 81 m 2,26,27
 405 81 405 81 405 199 c 0,28,29
 405 259 405 259 365 290 c 1,30,31
 333 322 333 322 251 322 c 2,32,-1
 175 322 l 1,33,-1
 175 81 l 1,34,-1
 263 81 l 2,26,27
EndSplineSet
EndChar

StartChar: C
Encoding: 67 67 38
Width: 521
GlyphClass: 2
Flags: W
LayerCount: 2
Fore
SplineSet
340 -13 m 0,0,1
 52 -13 52 -13 52 335 c 0,2,3
 52 515 52 515 125.5 598 c 128,-1,4
 199 681 199 681 328 681 c 0,5,6
 396 681 396 681 479 658 c 1,7,-1
 461 583 l 1,8,9
 394 598 394 598 343 598 c 0,10,11
 251 598 251 598 199.5 539 c 128,-1,12
 148 480 148 480 148 339 c 0,13,14
 148 69 148 69 359 69 c 0,15,16
 410 69 410 69 469 81 c 1,17,-1
 482 6 l 1,18,19
 403 -13 403 -13 340 -13 c 0,0,1
EndSplineSet
EndChar

StartChar: D
Encoding: 68 68 39
Width: 610
GlyphClass: 2
Flags: W
LayerCount: 2
Fore
SplineSet
175 587 m 1,0,-1
 175 81 l 1,1,-1
 258 81 l 2,2,3
 376 81 376 81 418 142 c 128,-1,4
 460 203 460 203 460 334 c 128,-1,5
 460 465 460 465 418 526 c 128,-1,6
 376 587 376 587 258 587 c 2,7,-1
 175 587 l 1,0,-1
251 0 m 2,8,-1
 79 0 l 1,9,-1
 79 668 l 1,10,-1
 251 668 l 2,11,12
 379 668 379 668 429 641 c 1,13,14
 557 576 557 576 557 333.5 c 128,-1,15
 557 91 557 91 429 26 c 0,16,17
 380 0 380 0 251 0 c 2,8,-1
EndSplineSet
EndChar

StartChar: E
Encoding: 69 69 40
Width: 511
GlyphClass: 2
Flags: W
LayerCount: 2
Fore
SplineSet
175 81 m 1,0,-1
 459 81 l 1,1,-1
 459 0 l 1,2,-1
 79 0 l 1,3,-1
 79 668 l 1,4,-1
 450 668 l 1,5,-1
 450 587 l 1,6,-1
 175 587 l 1,7,-1
 175 385 l 1,8,-1
 434 385 l 1,9,-1
 434 306 l 1,10,-1
 175 306 l 1,11,-1
 175 81 l 1,0,-1
EndSplineSet
EndChar

StartChar: F
Encoding: 70 70 41
Width: 491
GlyphClass: 2
Flags: W
LayerCount: 2
Fore
SplineSet
451 587 m 1,0,-1
 175 587 l 1,1,-1
 175 384 l 1,2,-1
 433 384 l 1,3,-1
 433 304 l 1,4,-1
 175 304 l 1,5,-1
 175 0 l 1,6,-1
 79 0 l 1,7,-1
 79 668 l 1,8,-1
 451 668 l 1,9,-1
 451 587 l 1,0,-1
EndSplineSet
EndChar

StartChar: G
Encoding: 71 71 42
Width: 570
GlyphClass: 2
Flags: W
LayerCount: 2
Fore
SplineSet
201.5 540 m 128,-1,1
 150 481 150 481 150 341.5 c 128,-1,2
 150 202 150 202 201.5 137 c 128,-1,3
 253 72 253 72 330 72 c 0,4,5
 379 72 379 72 426 94 c 1,6,-1
 426 255 l 1,7,-1
 314 255 l 1,8,-1
 314 335 l 1,9,-1
 516 335 l 1,10,-1
 516 48 l 1,11,12
 420 -13 420 -13 324 -13 c 0,13,14
 211 -13 211 -13 135 65 c 0,15,16
 96 105 96 105 73.5 174.5 c 128,-1,17
 51 244 51 244 51 336 c 0,18,19
 51 516 51 516 125.5 599 c 128,-1,20
 200 682 200 682 330 682 c 0,21,22
 405 682 405 682 488 659 c 1,23,-1
 468 584 l 1,24,25
 401 599 401 599 345 599 c 0,26,0
 253 599 253 599 201.5 540 c 128,-1,1
EndSplineSet
EndChar

StartChar: H
Encoding: 72 72 43
Width: 616
GlyphClass: 2
Flags: W
LayerCount: 2
Fore
SplineSet
441 384 m 1,0,-1
 441 668 l 1,1,-1
 537 668 l 1,2,-1
 537 0 l 1,3,-1
 441 0 l 1,4,-1
 441 304 l 1,5,-1
 175 304 l 1,6,-1
 175 0 l 1,7,-1
 79 0 l 1,8,-1
 79 668 l 1,9,-1
 175 668 l 1,10,-1
 175 384 l 1,11,-1
 441 384 l 1,0,-1
EndSplineSet
EndChar

StartChar: I
Encoding: 73 73 44
Width: 254
GlyphClass: 2
Flags: W
LayerCount: 2
Fore
SplineSet
175 668 m 1,0,-1
 175 0 l 1,1,-1
 79 0 l 1,2,-1
 79 668 l 1,3,-1
 175 668 l 1,0,-1
EndSplineSet
EndChar

StartChar: J
Encoding: 74 74 45
Width: 255
GlyphClass: 2
Flags: W
LayerCount: 2
Fore
SplineSet
81 125 m 2,0,-1
 81 668 l 1,1,-1
 177 668 l 1,2,-1
 177 127 l 2,3,4
 177 21 177 21 137.5 -54.5 c 128,-1,5
 98 -130 98 -130 -2 -175 c 1,6,-1
 -41 -108 l 1,7,8
 33 -66 33 -66 57 -15 c 128,-1,9
 81 36 81 36 81 125 c 2,0,-1
EndSplineSet
EndChar

StartChar: K
Encoding: 75 75 46
Width: 604
GlyphClass: 2
Flags: W
LayerCount: 2
Fore
SplineSet
174 668 m 1,0,-1
 174 0 l 1,1,-1
 79 0 l 1,2,-1
 79 668 l 1,3,-1
 174 668 l 1,0,-1
202 342 m 1,4,-1
 456 668 l 1,5,-1
 575 668 l 1,6,-1
 310 347 l 1,7,-1
 590 0 l 1,8,-1
 465 0 l 1,9,-1
 202 342 l 1,4,-1
EndSplineSet
EndChar

StartChar: L
Encoding: 76 76 47
Width: 445
GlyphClass: 2
Flags: W
LayerCount: 2
Fore
SplineSet
175 81 m 1,0,-1
 425 81 l 1,1,-1
 425 0 l 1,2,-1
 79 0 l 1,3,-1
 79 668 l 1,4,-1
 175 668 l 1,5,-1
 175 81 l 1,0,-1
EndSplineSet
EndChar

StartChar: M
Encoding: 77 77 48
Width: 778
GlyphClass: 2
Flags: W
LayerCount: 2
Fore
SplineSet
608 516 m 128,-1,1
 608 537 608 537 609 558 c 1,2,-1
 427 73 l 1,3,-1
 351 73 l 1,4,-1
 169 558 l 1,5,6
 170 537 170 537 170 516 c 128,-1,7
 170 495 170 495 169 474 c 2,8,-1
 153 0 l 1,9,-1
 65 0 l 1,10,-1
 96 668 l 1,11,-1
 207 668 l 1,12,-1
 389 173 l 1,13,-1
 571 668 l 1,14,-1
 682 668 l 1,15,-1
 713 0 l 1,16,-1
 625 0 l 1,17,-1
 609 474 l 2,18,0
 608 495 608 495 608 516 c 128,-1,1
EndSplineSet
EndChar

StartChar: N
Encoding: 78 78 49
Width: 659
GlyphClass: 2
Flags: W
LayerCount: 2
Fore
SplineSet
580 0 m 1,0,-1
 482 0 l 1,1,-1
 166 541 l 1,2,3
 170 502 170 502 170 457 c 2,4,-1
 170 0 l 1,5,-1
 79 0 l 1,6,-1
 79 668 l 1,7,-1
 177 668 l 1,8,-1
 493 127 l 1,9,10
 489 166 489 166 489 211 c 2,11,-1
 489 668 l 1,12,-1
 580 668 l 1,13,-1
 580 0 l 1,0,-1
EndSplineSet
EndChar

StartChar: O
Encoding: 79 79 50
Width: 621
GlyphClass: 2
Flags: W
LayerCount: 2
Fore
SplineSet
311 681 m 128,-1,1
 380 681 380 681 432 652 c 128,-1,2
 484 623 484 623 513 573 c 0,3,4
 570 475 570 475 570 334 c 0,5,6
 570 196 570 196 512 96 c 0,7,8
 482 45 482 45 430 16 c 128,-1,9
 378 -13 378 -13 308.5 -13 c 128,-1,10
 239 -13 239 -13 188 16 c 128,-1,11
 137 45 137 45 108 95 c 0,12,13
 51 193 51 193 51 334 c 0,14,15
 51 474 51 474 110 573 c 0,16,17
 139 623 139 623 190.5 652 c 128,-1,0
 242 681 242 681 311 681 c 128,-1,1
310 72 m 128,-1,19
 393 72 393 72 432.5 145 c 128,-1,20
 472 218 472 218 472 334.5 c 128,-1,21
 472 451 472 451 432.5 523.5 c 128,-1,22
 393 596 393 596 310 596 c 128,-1,23
 227 596 227 596 187.5 523.5 c 128,-1,24
 148 451 148 451 148 334.5 c 128,-1,25
 148 218 148 218 187.5 145 c 128,-1,18
 227 72 227 72 310 72 c 128,-1,19
EndSplineSet
EndChar

StartChar: P
Encoding: 80 80 51
Width: 526
GlyphClass: 2
Flags: W
LayerCount: 2
Fore
SplineSet
496 470 m 0,0,1
 496 305 496 305 346 270 c 0,2,3
 296 259 296 259 211 259 c 2,4,-1
 175 259 l 1,5,-1
 175 0 l 1,6,-1
 79 0 l 1,7,-1
 79 668 l 1,8,-1
 237 668 l 2,9,10
 314 668 314 668 359 655.5 c 128,-1,11
 404 643 404 643 438 612 c 0,12,13
 496 561 496 561 496 470 c 0,0,1
356 364 m 0,14,15
 399 395 399 395 399 462 c 128,-1,16
 399 529 399 529 365 561 c 1,17,18
 330 596 330 596 229 596 c 2,19,-1
 175 596 l 1,20,-1
 175 339 l 1,21,-1
 213 339 l 2,22,23
 323 339 323 339 356 364 c 0,14,15
EndSplineSet
EndChar

StartChar: Q
Encoding: 81 81 52
Width: 621
GlyphClass: 2
Flags: W
LayerCount: 2
Fore
SplineSet
65 204.5 m 128,-1,1
 51 264 51 264 51 333.5 c 128,-1,2
 51 403 51 403 65.5 463 c 128,-1,3
 80 523 80 523 109.5 573 c 128,-1,4
 139 623 139 623 190.5 652 c 128,-1,5
 242 681 242 681 311 681 c 128,-1,6
 380 681 380 681 432 652 c 128,-1,7
 484 623 484 623 513 573 c 0,8,9
 570 475 570 475 570 334 c 0,10,11
 570 230 570 230 537.5 146 c 128,-1,12
 505 62 505 62 437 21 c 1,13,14
 493 15 493 15 556 -6 c 128,-1,15
 619 -27 619 -27 660 -52 c 1,16,-1
 607 -123 l 1,17,18
 595 -115 595 -115 572.5 -102 c 128,-1,19
 550 -89 550 -89 472.5 -59.5 c 128,-1,20
 395 -30 395 -30 307 -12 c 1,21,22
 239 -12 239 -12 188 17 c 128,-1,23
 137 46 137 46 108 95.5 c 128,-1,0
 79 145 79 145 65 204.5 c 128,-1,1
310 66 m 128,-1,25
 393 66 393 66 432.5 140 c 128,-1,26
 472 214 472 214 472 332.5 c 128,-1,27
 472 451 472 451 432.5 523.5 c 128,-1,28
 393 596 393 596 310 596 c 128,-1,29
 227 596 227 596 187.5 523.5 c 128,-1,30
 148 451 148 451 148 332.5 c 128,-1,31
 148 214 148 214 187.5 140 c 128,-1,24
 227 66 227 66 310 66 c 128,-1,25
EndSplineSet
EndChar

StartChar: R
Encoding: 82 82 53
Width: 565
GlyphClass: 2
Flags: W
LayerCount: 2
Fore
SplineSet
496 470 m 0,0,1
 496 360 496 360 432 310 c 0,2,3
 398 284 398 284 356 273 c 1,4,-1
 540 32 l 1,5,-1
 468 -17 l 1,6,-1
 261 260 l 1,7,8
 245 259 245 259 211 259 c 2,9,-1
 175 259 l 1,10,-1
 175 0 l 1,11,-1
 79 0 l 1,12,-1
 79 668 l 1,13,-1
 237 668 l 2,14,15
 314 668 314 668 359 655.5 c 128,-1,16
 404 643 404 643 438 612 c 0,17,18
 496 561 496 561 496 470 c 0,0,1
356 364 m 0,19,20
 399 395 399 395 399 462 c 128,-1,21
 399 529 399 529 365 561 c 1,22,23
 330 596 330 596 229 596 c 2,24,-1
 175 596 l 1,25,-1
 175 339 l 1,26,-1
 213 339 l 2,27,28
 323 339 323 339 356 364 c 0,19,20
EndSplineSet
EndChar

StartChar: S
Encoding: 83 83 54
Width: 490
GlyphClass: 2
Flags: W
LayerCount: 2
Fore
SplineSet
393 40 m 128,-1,1
 335 -13 335 -13 240 -13 c 0,2,3
 189 -13 189 -13 131.5 -2 c 128,-1,4
 74 9 74 9 39 26 c 1,5,-1
 65 111 l 1,6,7
 163 72 163 72 228 72 c 128,-1,8
 293 72 293 72 326 100.5 c 128,-1,9
 359 129 359 129 359 173 c 128,-1,10
 359 217 359 217 323 248 c 128,-1,11
 287 279 287 279 229.5 307.5 c 128,-1,12
 172 336 172 336 152 348 c 128,-1,13
 132 360 132 360 106 384 c 1,14,15
 56 427 56 427 56 508 c 128,-1,16
 56 589 56 589 113 635 c 128,-1,17
 170 681 170 681 252.5 681 c 128,-1,18
 335 681 335 681 422 649 c 1,19,-1
 396 569 l 1,20,21
 320 596 320 596 261.5 596 c 128,-1,22
 203 596 203 596 175.5 572.5 c 128,-1,23
 148 549 148 549 148 511 c 128,-1,24
 148 473 148 473 180 446.5 c 128,-1,25
 212 420 212 420 264 392.5 c 128,-1,26
 316 365 316 365 340.5 349 c 128,-1,27
 365 333 365 333 394 308 c 1,28,29
 451 256 451 256 451 174.5 c 128,-1,0
 451 93 451 93 393 40 c 128,-1,1
EndSplineSet
EndChar

StartChar: T
Encoding: 84 84 55
Width: 479
GlyphClass: 2
Flags: W
LayerCount: 2
Fore
SplineSet
192 583 m 1,0,-1
 18 583 l 1,1,-1
 18 668 l 1,2,-1
 461 668 l 1,3,-1
 461 583 l 1,4,-1
 287 583 l 1,5,-1
 287 0 l 1,6,-1
 192 0 l 1,7,-1
 192 583 l 1,0,-1
EndSplineSet
EndChar

StartChar: U
Encoding: 85 85 56
Width: 609
GlyphClass: 2
Flags: W
LayerCount: 2
Fore
SplineSet
75 245 m 2,0,-1
 75 668 l 1,1,-1
 171 668 l 1,2,-1
 171 259 l 2,3,4
 171 155 171 155 197 120 c 1,5,6
 225 73 225 73 303.5 73 c 128,-1,7
 382 73 382 73 411 120 c 1,8,9
 438 157 438 157 438 259 c 2,10,-1
 438 668 l 1,11,-1
 534 668 l 1,12,-1
 534 245 l 2,13,14
 534 128 534 128 489 64 c 1,15,16
 434 -11 434 -11 306 -12 c 128,-1,17
 178 -13 178 -13 120 64 c 1,18,19
 75 128 75 128 75 245 c 2,0,-1
EndSplineSet
EndChar

StartChar: V
Encoding: 86 86 57
Width: 546
GlyphClass: 2
Flags: W
LayerCount: 2
Fore
SplineSet
111 668 m 1,0,-1
 273 110 l 1,1,-1
 435 668 l 1,2,-1
 539 668 l 1,3,-1
 324 0 l 1,4,-1
 222 0 l 1,5,-1
 7 668 l 1,6,-1
 111 668 l 1,0,-1
EndSplineSet
EndChar

StartChar: W
Encoding: 87 87 58
Width: 804
GlyphClass: 2
Flags: W
LayerCount: 2
Fore
SplineSet
349 618 m 1,0,-1
 455 618 l 1,1,-1
 603 110 l 1,2,-1
 675 668 l 1,3,-1
 762 668 l 1,4,-1
 673 0 l 1,5,-1
 554 0 l 1,6,-1
 403 538 l 1,7,-1
 251 0 l 1,8,-1
 131 0 l 1,9,-1
 42 668 l 1,10,-1
 129 668 l 1,11,-1
 201 110 l 1,12,-1
 349 618 l 1,0,-1
EndSplineSet
EndChar

StartChar: X
Encoding: 88 88 59
Width: 574
GlyphClass: 2
Flags: W
LayerCount: 2
Fore
SplineSet
557 0 m 1,0,-1
 441 0 l 1,1,-1
 284 268 l 1,2,-1
 127 0 l 1,3,-1
 18 0 l 1,4,-1
 229 340 l 1,5,-1
 29 668 l 1,6,-1
 137 668 l 1,7,-1
 285 416 l 1,8,-1
 435 668 l 1,9,-1
 545 668 l 1,10,-1
 342 346 l 1,11,-1
 557 0 l 1,0,-1
EndSplineSet
EndChar

StartChar: Y
Encoding: 89 89 60
Width: 521
GlyphClass: 2
Flags: W
LayerCount: 2
Fore
SplineSet
309 0 m 1,0,-1
 213 0 l 1,1,-1
 213 275 l 1,2,-1
 3 668 l 1,3,-1
 111 668 l 1,4,-1
 261 353 l 1,5,-1
 415 668 l 1,6,-1
 516 668 l 1,7,-1
 309 275 l 1,8,-1
 309 0 l 1,0,-1
EndSplineSet
EndChar

StartChar: Z
Encoding: 90 90 61
Width: 525
GlyphClass: 2
Flags: W
LayerCount: 2
Fore
SplineSet
489 81 m 1,0,-1
 489 0 l 1,1,-1
 48 0 l 1,2,-1
 39 65 l 1,3,-1
 353 587 l 1,4,-1
 54 587 l 1,5,-1
 43 668 l 1,6,-1
 460 668 l 1,7,-1
 467 599 l 1,8,-1
 156 81 l 1,9,-1
 489 81 l 1,0,-1
EndSplineSet
EndChar

StartChar: bracketleft
Encoding: 91 91 62
Width: 303
GlyphClass: 2
Flags: W
LayerCount: 2
Fore
SplineSet
72 -141 m 1,0,-1
 72 766 l 1,1,-1
 271 766 l 1,2,-1
 271 695 l 1,3,-1
 158 689 l 1,4,-1
 158 -64 l 1,5,6
 175 -65 175 -65 271 -71 c 1,7,-1
 271 -141 l 1,8,-1
 72 -141 l 1,0,-1
EndSplineSet
EndChar

StartChar: backslash
Encoding: 92 92 63
Width: 404
GlyphClass: 2
Flags: W
LayerCount: 2
Fore
SplineSet
310 -114 m 1,0,-1
 18 737 l 1,1,-1
 92 758 l 1,2,-1
 386 -93 l 1,3,-1
 310 -114 l 1,0,-1
EndSplineSet
EndChar

StartChar: bracketright
Encoding: 93 93 64
Width: 303
GlyphClass: 2
Flags: W
LayerCount: 2
Fore
SplineSet
231 765 m 1,0,-1
 231 -141 l 1,1,-1
 32 -141 l 1,2,-1
 32 -70 l 1,3,-1
 145 -64 l 1,4,-1
 145 688 l 1,5,6
 128 689 128 689 32 695 c 1,7,-1
 32 765 l 1,8,-1
 231 765 l 1,0,-1
EndSplineSet
EndChar

StartChar: asciicircum
Encoding: 94 94 65
Width: 492
GlyphClass: 2
Flags: W
LayerCount: 2
Fore
SplineSet
211 641 m 1,0,-1
 281 641 l 1,1,-1
 451 297 l 1,2,-1
 365 297 l 1,3,-1
 245 543 l 1,4,-1
 126 297 l 1,5,-1
 40 297 l 1,6,-1
 211 641 l 1,0,-1
EndSplineSet
EndChar

StartChar: underscore
Encoding: 95 95 66
Width: 552
GlyphClass: 2
Flags: W
LayerCount: 2
Fore
SplineSet
489 74 m 1,0,-1
 489 0 l 1,1,-1
 63 0 l 1,2,-1
 63 74 l 1,3,-1
 489 74 l 1,0,-1
EndSplineSet
EndChar

StartChar: grave
Encoding: 96 96 67
Width: 356
GlyphClass: 2
Flags: W
LayerCount: 2
Fore
SplineSet
254 577 m 1,0,-1
 82 681 l 1,1,-1
 130 754 l 1,2,-1
 290 632 l 1,3,-1
 254 577 l 1,0,-1
EndSplineSet
EndChar

StartChar: a
Encoding: 97 97 68
Width: 487
GlyphClass: 2
Flags: W
LayerCount: 2
Fore
SplineSet
176 -13 m 0,0,1
 111 -13 111 -13 72.5 25 c 128,-1,2
 34 63 34 63 34 127 c 0,3,4
 34 169 34 169 52 198 c 128,-1,5
 70 227 70 227 99 241 c 0,6,7
 151 266 151 266 208 266 c 128,-1,8
 265 266 265 266 314 261 c 1,9,-1
 314 339 l 2,10,11
 314 397 314 397 294.5 418.5 c 128,-1,12
 275 440 275 440 220 440 c 128,-1,13
 165 440 165 440 89 413 c 1,14,-1
 68 476 l 1,15,16
 97 494 97 494 144.5 505 c 128,-1,17
 192 516 192 516 227 516 c 0,18,19
 324 516 324 516 364 474 c 128,-1,20
 404 432 404 432 404 333 c 2,21,-1
 404 90 l 2,22,23
 404 55 404 55 428 55 c 0,24,25
 444 55 444 55 472 64 c 1,26,-1
 487 8 l 1,27,28
 453 -14 453 -14 399 -14 c 128,-1,29
 345 -14 345 -14 321 37 c 1,30,31
 299 16 299 16 259.5 1.5 c 128,-1,32
 220 -13 220 -13 176 -13 c 0,0,1
195 58 m 0,33,34
 258 58 258 58 314 94 c 1,35,-1
 314 210 l 1,36,37
 290 214 290 214 236 214 c 0,38,39
 119 214 119 214 118 136 c 0,40,41
 118 58 118 58 195 58 c 0,33,34
EndSplineSet
EndChar

StartChar: b
Encoding: 98 98 69
Width: 516
GlyphClass: 2
Flags: W
LayerCount: 2
Fore
SplineSet
278 440 m 0,0,1
 216 440 216 440 156 398 c 1,2,-1
 156 79 l 1,3,4
 194 63 194 63 251 63 c 0,5,6
 377 63 377 63 377 259 c 0,7,8
 377 440 377 440 278 440 c 0,0,1
156 700 m 1,9,-1
 156 469 l 1,10,11
 175 484 175 484 214.5 500 c 128,-1,12
 254 516 254 516 293 516 c 0,13,14
 369 516 369 516 420 453.5 c 128,-1,15
 471 391 471 391 471 278 c 0,16,17
 471 -13 471 -13 250 -13 c 0,18,19
 144 -13 144 -13 66 35 c 1,20,-1
 66 700 l 1,21,-1
 156 700 l 1,9,-1
EndSplineSet
EndChar

StartChar: c
Encoding: 99 99 70
Width: 434
GlyphClass: 2
Flags: W
LayerCount: 2
Fore
SplineSet
277 -15 m 0,0,1
 176 -15 176 -15 110 51.5 c 128,-1,2
 44 118 44 118 44 250.5 c 128,-1,3
 44 383 44 383 110 449.5 c 128,-1,4
 176 516 176 516 272 516 c 0,5,6
 340 516 340 516 396 487 c 1,7,-1
 369 423 l 1,8,9
 316 440 316 440 274 440 c 0,10,11
 215 440 215 440 175.5 395 c 128,-1,12
 136 350 136 350 136 251 c 0,13,14
 136 62 136 62 291 62 c 0,15,16
 335 62 335 62 384 75 c 1,17,-1
 399 9 l 1,18,19
 335 -15 335 -15 277 -15 c 0,0,1
EndSplineSet
EndChar

StartChar: d
Encoding: 100 100 71
Width: 519
GlyphClass: 2
Flags: W
LayerCount: 2
Fore
SplineSet
46 243 m 0,0,1
 46 516 46 516 265 516 c 0,2,3
 320 516 320 516 361 493 c 1,4,-1
 361 700 l 1,5,-1
 452 700 l 1,6,-1
 452 -8 l 1,7,-1
 381 -8 l 1,8,-1
 368 41 l 1,9,10
 305 -9 305 -9 221.5 -9 c 128,-1,11
 138 -9 138 -9 92 59 c 128,-1,12
 46 127 46 127 46 243 c 0,0,1
264 441 m 0,13,14
 139 441 139 441 139 244 c 0,15,16
 139 63 139 63 241 63 c 0,17,18
 314 63 314 63 361 107 c 1,19,-1
 361 423 l 1,20,21
 319 441 319 441 264 441 c 0,13,14
EndSplineSet
EndChar

StartChar: e
Encoding: 101 101 72
Width: 476
GlyphClass: 2
Flags: W
LayerCount: 2
Fore
SplineSet
265 -13 m 0,0,1
 153 -13 153 -13 98.5 63.5 c 128,-1,2
 44 140 44 140 44 255.5 c 128,-1,3
 44 371 44 371 102 443.5 c 128,-1,4
 160 516 160 516 261 516 c 0,5,6
 346 516 346 516 390.5 468.5 c 128,-1,7
 435 421 435 421 435 343 c 0,8,9
 435 308 435 308 420 253 c 1,10,-1
 126 253 l 1,11,12
 128 168 128 168 163 115 c 128,-1,13
 198 62 198 62 267.5 62 c 128,-1,14
 337 62 337 62 399 90 c 1,15,-1
 422 28 l 1,16,17
 350 -13 350 -13 265 -13 c 0,0,1
353 326 m 2,18,19
 353 380 353 380 331 411 c 128,-1,20
 309 442 309 442 270 442 c 128,-1,21
 231 442 231 442 205.5 428.5 c 128,-1,22
 180 415 180 415 166 394 c 1,23,24
 142 354 142 354 136 320 c 1,25,-1
 353 318 l 1,26,-1
 353 326 l 2,18,19
EndSplineSet
EndChar

StartChar: f
Encoding: 102 102 73
Width: 356
GlyphClass: 2
Flags: W
LayerCount: 2
Fore
SplineSet
114 543 m 2,0,1
 114 639 114 639 155 680.5 c 128,-1,2
 196 722 196 722 299 722 c 0,3,4
 356 722 356 722 419 704 c 1,5,-1
 399 633 l 1,6,7
 359 643 359 643 300.5 643 c 128,-1,8
 242 643 242 643 223.5 622 c 128,-1,9
 205 601 205 601 205 546 c 2,10,-1
 205 506 l 1,11,-1
 342 506 l 1,12,-1
 332 435 l 1,13,-1
 205 435 l 1,14,-1
 205 -186 l 1,15,-1
 114 -177 l 1,16,-1
 114 435 l 1,17,-1
 21 440 l 1,18,-1
 30 499 l 1,19,-1
 114 506 l 1,20,-1
 114 543 l 2,0,1
EndSplineSet
EndChar

StartChar: g
Encoding: 103 103 74
Width: 484
GlyphClass: 2
Flags: W
LayerCount: 2
Fore
SplineSet
227 516 m 1,0,-1
 311 511 l 1,1,2
 386 511 386 511 466 525 c 1,3,-1
 477 469 l 1,4,5
 439 461 439 461 372 452 c 1,6,7
 410 406 410 406 410 330 c 128,-1,8
 410 254 410 254 364 203.5 c 128,-1,9
 318 153 318 153 231 152 c 0,10,11
 205 152 205 152 180 157 c 1,12,13
 164 122 164 122 164 99 c 0,14,15
 164 65 164 65 217 65 c 2,16,-1
 309 65 l 2,17,18
 381 65 381 65 421 32.5 c 128,-1,19
 461 0 461 0 461 -57 c 0,20,21
 461 -138 461 -138 396.5 -187 c 128,-1,22
 332 -236 332 -236 232.5 -236 c 128,-1,23
 133 -236 133 -236 81 -202 c 128,-1,24
 29 -168 29 -168 29 -106 c 0,25,26
 29 -28 29 -28 121 20 c 1,27,28
 95 41 95 41 95 82 c 128,-1,29
 95 123 95 123 134 173 c 1,30,31
 93 196 93 196 71 238.5 c 128,-1,32
 49 281 49 281 49 334 c 0,33,34
 49 415 49 415 94 465.5 c 128,-1,35
 139 516 139 516 227 516 c 1,0,-1
230 447 m 0,36,37
 132 447 132 447 132 335 c 128,-1,38
 132 223 132 223 229.5 223 c 128,-1,39
 327 223 327 223 327 334 c 0,40,41
 327 392 327 392 304.5 419.5 c 128,-1,42
 282 447 282 447 230 447 c 0,36,37
290 -13 m 2,43,-1
 167 -13 l 1,44,45
 111 -37 111 -37 111 -94 c 0,46,47
 111 -129 111 -129 145 -146.5 c 128,-1,48
 179 -164 179 -164 241.5 -164 c 128,-1,49
 304 -164 304 -164 341 -137.5 c 128,-1,50
 378 -111 378 -111 378 -65 c 0,51,52
 378 -38 378 -38 359 -25.5 c 128,-1,53
 340 -13 340 -13 290 -13 c 2,43,-1
EndSplineSet
EndChar

StartChar: h
Encoding: 104 104 75
Width: 518
GlyphClass: 2
Flags: W
LayerCount: 2
Fore
SplineSet
319 516 m 0,0,1
 394 516 394 516 423.5 471.5 c 128,-1,2
 453 427 453 427 453 347 c 2,3,-1
 453 0 l 1,4,-1
 363 0 l 1,5,-1
 363 342 l 2,6,7
 363 388 363 388 351 414 c 128,-1,8
 339 440 339 440 302.5 440 c 128,-1,9
 266 440 266 440 224.5 421 c 128,-1,10
 183 402 183 402 159 373 c 1,11,-1
 159 0 l 1,12,-1
 68 0 l 1,13,-1
 68 699 l 1,14,-1
 159 707 l 1,15,-1
 159 448 l 1,16,17
 188 475 188 475 232.5 495.5 c 128,-1,18
 277 516 277 516 319 516 c 0,0,1
EndSplineSet
EndChar

StartChar: i
Encoding: 105 105 76
Width: 225
GlyphClass: 2
Flags: W
LayerCount: 2
Fore
SplineSet
158 0 m 1,0,-1
 67 0 l 1,1,-1
 67 502 l 1,2,-1
 158 511 l 1,3,-1
 158 0 l 1,0,-1
67 697.5 m 128,-1,5
 85 715 85 715 110 715 c 128,-1,6
 135 715 135 715 152.5 697.5 c 128,-1,7
 170 680 170 680 170 655 c 128,-1,8
 170 630 170 630 152.5 611.5 c 128,-1,9
 135 593 135 593 110 593 c 128,-1,10
 85 593 85 593 67 611.5 c 128,-1,11
 49 630 49 630 49 655 c 128,-1,4
 49 680 49 680 67 697.5 c 128,-1,5
EndSplineSet
EndChar

StartChar: j
Encoding: 106 106 77
Width: 225
GlyphClass: 2
Flags: W
LayerCount: 2
Fore
SplineSet
158 46 m 2,0,1
 158 -77 158 -77 102 -138.5 c 128,-1,2
 46 -200 46 -200 -62 -210 c 1,3,-1
 -73 -138 l 1,4,5
 4 -126 4 -126 36 -82 c 128,-1,6
 68 -38 68 -38 68 56 c 2,7,-1
 68 502 l 1,8,-1
 158 511 l 1,9,-1
 158 46 l 2,0,1
69 697.5 m 128,-1,11
 87 715 87 715 112 715 c 128,-1,12
 137 715 137 715 154.5 697.5 c 128,-1,13
 172 680 172 680 172 655 c 128,-1,14
 172 630 172 630 154.5 611.5 c 128,-1,15
 137 593 137 593 112 593 c 128,-1,16
 87 593 87 593 69 611.5 c 128,-1,17
 51 630 51 630 51 655 c 128,-1,10
 51 680 51 680 69 697.5 c 128,-1,11
EndSplineSet
EndChar

StartChar: k
Encoding: 107 107 78
Width: 500
GlyphClass: 2
Flags: W
LayerCount: 2
Fore
SplineSet
159 0 m 1,0,-1
 68 0 l 1,1,-1
 68 700 l 1,2,-1
 159 708 l 1,3,-1
 159 281 l 1,4,-1
 349 502 l 1,5,-1
 461 502 l 1,6,-1
 255 279 l 1,7,8
 290 236 290 236 371 140 c 128,-1,9
 452 44 452 44 488 0 c 1,10,-1
 378 0 l 1,11,-1
 159 272 l 1,12,-1
 159 0 l 1,0,-1
EndSplineSet
EndChar

StartChar: l
Encoding: 108 108 79
Width: 266
GlyphClass: 2
Flags: W
LayerCount: 2
Fore
SplineSet
69 700 m 1,0,-1
 160 700 l 1,1,-1
 160 102 l 2,2,3
 160 63 160 63 196 63 c 0,4,5
 224 63 224 63 255 73 c 1,6,-1
 270 7 l 1,7,8
 229 -13 229 -13 169 -13 c 0,9,10
 69 -13 69 -13 69 101 c 2,11,-1
 69 700 l 1,0,-1
EndSplineSet
EndChar

StartChar: m
Encoding: 109 109 80
Width: 801
GlyphClass: 2
Flags: W
LayerCount: 2
Fore
SplineSet
449 343 m 2,0,-1
 449 0 l 1,1,-1
 359 0 l 1,2,-1
 359 342 l 2,3,4
 359 388 359 388 347 414 c 128,-1,5
 335 440 335 440 298.5 440 c 128,-1,6
 262 440 262 440 222 421 c 128,-1,7
 182 402 182 402 158 373 c 1,8,-1
 158 0 l 1,9,-1
 68 0 l 1,10,-1
 68 506 l 1,11,-1
 143 506 l 1,12,-1
 153 445 l 1,13,14
 181 472 181 472 226.5 494 c 128,-1,15
 272 516 272 516 315 516 c 0,16,17
 406 516 406 516 434 442 c 1,18,19
 464 470 464 470 512 493 c 128,-1,20
 560 516 560 516 602 516 c 0,21,22
 736 516 736 516 736 347 c 2,23,-1
 736 0 l 1,24,-1
 646 0 l 1,25,-1
 646 342 l 2,26,27
 646 389 646 389 634 414.5 c 128,-1,28
 622 440 622 440 587 440 c 128,-1,29
 552 440 552 440 513 421 c 128,-1,30
 474 402 474 402 447 377 c 1,31,32
 449 365 449 365 449 343 c 2,0,-1
EndSplineSet
EndChar

StartChar: n
Encoding: 110 110 81
Width: 519
GlyphClass: 2
Flags: W
LayerCount: 2
Fore
SplineSet
454 347 m 2,0,-1
 454 0 l 1,1,-1
 364 0 l 1,2,-1
 364 342 l 2,3,4
 364 388 364 388 352 414 c 128,-1,5
 340 440 340 440 303.5 440 c 128,-1,6
 267 440 267 440 224.5 420.5 c 128,-1,7
 182 401 182 401 158 373 c 1,8,-1
 158 0 l 1,9,-1
 68 0 l 1,10,-1
 68 506 l 1,11,-1
 143 506 l 1,12,-1
 153 445 l 1,13,14
 181 472 181 472 228.5 494 c 128,-1,15
 276 516 276 516 320 516 c 0,16,17
 395 516 395 516 424.5 471.5 c 128,-1,18
 454 427 454 427 454 347 c 2,0,-1
EndSplineSet
EndChar

StartChar: o
Encoding: 111 111 82
Width: 508
GlyphClass: 2
Flags: W
LayerCount: 2
Fore
SplineSet
252 -13 m 128,-1,1
 158 -13 158 -13 102 50 c 128,-1,2
 46 113 46 113 46 250.5 c 128,-1,3
 46 388 46 388 104.5 452 c 128,-1,4
 163 516 163 516 257 516 c 128,-1,5
 351 516 351 516 406.5 453 c 128,-1,6
 462 390 462 390 462 252.5 c 128,-1,7
 462 115 462 115 404 51 c 128,-1,0
 346 -13 346 -13 252 -13 c 128,-1,1
255 442 m 0,8,9
 138 442 138 442 138 251.5 c 128,-1,10
 138 61 138 61 254 61 c 0,11,12
 302 61 302 61 336 106 c 128,-1,13
 370 151 370 151 370 256 c 128,-1,14
 370 361 370 361 340.5 401.5 c 128,-1,15
 311 442 311 442 255 442 c 0,8,9
EndSplineSet
EndChar

StartChar: p
Encoding: 112 112 83
Width: 518
GlyphClass: 2
Flags: W
LayerCount: 2
Fore
SplineSet
254 63 m 0,0,1
 379 63 379 63 379 262 c 0,2,3
 379 440 379 440 278 440 c 0,4,5
 221 440 221 440 158 396 c 1,6,-1
 158 77 l 1,7,8
 208 63 208 63 254 63 c 0,0,1
151 465 m 1,9,10
 217 516 217 516 299 516 c 128,-1,11
 381 516 381 516 427 448 c 128,-1,12
 473 380 473 380 473 263 c 0,13,14
 473 -13 473 -13 253 -13 c 0,15,16
 201 -13 201 -13 158 7 c 1,17,-1
 158 -214 l 1,18,-1
 68 -224 l 1,19,-1
 68 507 l 1,20,-1
 144 507 l 1,21,-1
 151 465 l 1,9,10
EndSplineSet
EndChar

StartChar: q
Encoding: 113 113 84
Width: 516
GlyphClass: 2
Flags: W
LayerCount: 2
Fore
SplineSet
242 63 m 0,0,1
 304 63 304 63 360 101 c 1,2,-1
 360 422 l 1,3,4
 326 432 326 432 268 432 c 0,5,6
 140 432 140 432 140 247.5 c 128,-1,7
 140 63 140 63 242 63 c 0,0,1
360 29 m 1,8,9
 305 -13 305 -13 221.5 -13 c 128,-1,10
 138 -13 138 -13 92 57 c 128,-1,11
 46 127 46 127 46 249.5 c 128,-1,12
 46 372 46 372 101 440 c 128,-1,13
 156 508 156 508 263.5 508 c 128,-1,14
 371 508 371 508 450 476 c 1,15,-1
 450 -221 l 1,16,-1
 360 -212 l 1,17,-1
 360 29 l 1,8,9
EndSplineSet
EndChar

StartChar: r
Encoding: 114 114 85
Width: 361
GlyphClass: 2
Flags: W
LayerCount: 2
Fore
SplineSet
158 0 m 1,0,-1
 68 0 l 1,1,-1
 68 506 l 1,2,-1
 143 506 l 1,3,-1
 153 431 l 1,4,5
 171 461 171 461 212.5 488.5 c 128,-1,6
 254 516 254 516 307 516 c 0,7,8
 336 516 336 516 351 511 c 1,9,-1
 333 439 l 1,10,11
 324 440 324 440 307 440 c 0,12,13
 198 440 198 440 158 361 c 1,14,-1
 158 0 l 1,0,-1
EndSplineSet
EndChar

StartChar: s
Encoding: 115 115 86
Width: 411
GlyphClass: 2
Flags: W
LayerCount: 2
Fore
SplineSet
60 92 m 1,0,1
 126 63 126 63 181 63 c 128,-1,2
 236 63 236 63 261.5 83.5 c 128,-1,3
 287 104 287 104 287 134.5 c 128,-1,4
 287 165 287 165 262.5 186 c 128,-1,5
 238 207 238 207 203 219.5 c 128,-1,6
 168 232 168 232 132.5 246 c 128,-1,7
 97 260 97 260 72.5 290.5 c 128,-1,8
 48 321 48 321 48 367 c 0,9,10
 48 435 48 435 96 475.5 c 128,-1,11
 144 516 144 516 226 516 c 128,-1,12
 308 516 308 516 358 487 c 1,13,-1
 337 420 l 1,14,15
 279 440 279 440 230 440 c 128,-1,16
 181 440 181 440 157 422 c 128,-1,17
 133 404 133 404 133 373.5 c 128,-1,18
 133 343 133 343 158 323 c 128,-1,19
 183 303 183 303 218.5 291 c 128,-1,20
 254 279 254 279 289 264.5 c 128,-1,21
 324 250 324 250 349 220 c 128,-1,22
 374 190 374 190 374 145 c 0,23,24
 374 79 374 79 325 33 c 128,-1,25
 276 -13 276 -13 185 -13 c 0,26,27
 143 -13 143 -13 100.5 -2 c 128,-1,28
 58 9 58 9 37 24 c 1,29,-1
 60 92 l 1,0,1
EndSplineSet
EndChar

StartChar: t
Encoding: 116 116 87
Width: 370
GlyphClass: 2
Flags: W
LayerCount: 2
Fore
SplineSet
244 -13 m 0,0,1
 166 -13 166 -13 141 19.5 c 128,-1,2
 116 52 116 52 116 131 c 2,3,-1
 116 435 l 1,4,-1
 17 440 l 1,5,-1
 26 499 l 1,6,-1
 118 506 l 1,7,-1
 127 626 l 1,8,-1
 208 641 l 1,9,-1
 208 506 l 1,10,-1
 356 506 l 1,11,-1
 347 435 l 1,12,-1
 207 435 l 1,13,-1
 207 122 l 2,14,15
 207 101 207 101 208.5 90.5 c 128,-1,16
 210 80 210 80 219.5 71.5 c 128,-1,17
 229 63 229 63 261 63 c 128,-1,18
 293 63 293 63 325 74 c 1,19,-1
 342 7 l 1,20,21
 295 -13 295 -13 244 -13 c 0,0,1
EndSplineSet
EndChar

StartChar: u
Encoding: 117 117 88
Width: 515
GlyphClass: 2
Flags: W
LayerCount: 2
Fore
SplineSet
210 -13 m 0,0,1
 128 -13 128 -13 96 31.5 c 128,-1,2
 64 76 64 76 64 159 c 2,3,-1
 64 506 l 1,4,-1
 154 506 l 1,5,-1
 154 161 l 2,6,7
 154 111 154 111 167 87.5 c 128,-1,8
 180 64 180 64 219.5 64 c 128,-1,9
 259 64 259 64 296.5 76.5 c 128,-1,10
 334 89 334 89 358 111 c 1,11,-1
 358 503 l 1,12,-1
 448 503 l 1,13,-1
 448 -9 l 1,14,-1
 375 -9 l 1,15,-1
 365 45 l 1,16,17
 336 21 336 21 294 4 c 128,-1,18
 252 -13 252 -13 210 -13 c 0,0,1
EndSplineSet
EndChar

StartChar: v
Encoding: 118 118 89
Width: 462
GlyphClass: 2
Flags: W
LayerCount: 2
Fore
SplineSet
350 505 m 1,0,-1
 443 505 l 1,1,-1
 281 0 l 1,2,-1
 180 0 l 1,3,-1
 19 506 l 1,4,-1
 116 506 l 1,5,-1
 231 90 l 1,6,-1
 350 505 l 1,0,-1
EndSplineSet
EndChar

StartChar: w
Encoding: 119 119 90
Width: 689
GlyphClass: 2
Flags: W
LayerCount: 2
Fore
SplineSet
344 395 m 1,0,-1
 247 0 l 1,1,-1
 155 0 l 1,2,-1
 24 506 l 1,3,-1
 114 506 l 1,4,-1
 204 101 l 1,5,-1
 303 501 l 1,6,-1
 385 506 l 1,7,-1
 485 101 l 1,8,-1
 575 506 l 1,9,-1
 665 506 l 1,10,-1
 534 0 l 1,11,-1
 442 0 l 1,12,-1
 344 395 l 1,0,-1
EndSplineSet
EndChar

StartChar: x
Encoding: 120 120 91
Width: 482
GlyphClass: 2
Flags: W
LayerCount: 2
Fore
SplineSet
450 506 m 1,0,-1
 290 267 l 1,1,-1
 465 0 l 1,2,-1
 362 0 l 1,3,-1
 242 202 l 1,4,-1
 121 0 l 1,5,-1
 16 0 l 1,6,-1
 196 268 l 1,7,-1
 35 506 l 1,8,-1
 140 506 l 1,9,-1
 244 333 l 1,10,-1
 350 506 l 1,11,-1
 450 506 l 1,0,-1
EndSplineSet
EndChar

StartChar: y
Encoding: 121 121 92
Width: 473
GlyphClass: 2
Flags: W
LayerCount: 2
Fore
SplineSet
49 -143 m 0,0,1
 104 -143 104 -143 138.5 -112 c 128,-1,2
 173 -81 173 -81 199 -2 c 1,3,-1
 14 500 l 1,4,-1
 109 506 l 1,5,-1
 240 95 l 1,6,-1
 358 506 l 1,7,-1
 452 506 l 1,8,-1
 286 10 l 2,9,10
 247 -108 247 -108 195.5 -159.5 c 128,-1,11
 144 -211 144 -211 62 -211 c 0,12,13
 29 -211 29 -211 -6 -204 c 1,14,-1
 5 -140 l 1,15,16
 21 -143 21 -143 49 -143 c 0,0,1
EndSplineSet
EndChar

StartChar: z
Encoding: 122 122 93
Width: 440
GlyphClass: 2
Flags: W
LayerCount: 2
Fore
SplineSet
137 74 m 1,0,-1
 398 74 l 1,1,-1
 408 0 l 1,2,-1
 40 0 l 1,3,-1
 31 58 l 1,4,-1
 285 432 l 1,5,-1
 59 432 l 1,6,-1
 49 506 l 1,7,-1
 382 506 l 1,8,-1
 392 444 l 1,9,-1
 137 74 l 1,0,-1
EndSplineSet
EndChar

StartChar: braceleft
Encoding: 123 123 94
Width: 351
GlyphClass: 2
Flags: W
LayerCount: 2
Fore
SplineSet
99 25 m 1,0,1
 96 64 96 64 96 103.5 c 128,-1,2
 96 143 96 143 93 179 c 1,3,4
 93 228 93 228 86.5 251.5 c 128,-1,5
 80 275 80 275 61 276 c 1,6,-1
 31 276 l 1,7,-1
 31 346 l 1,8,-1
 60 346 l 1,9,10
 93 350 93 350 93 434 c 1,11,-1
 99 591 l 1,12,13
 103 666 103 666 145.5 710 c 128,-1,14
 188 754 188 754 249 754 c 2,15,-1
 322 754 l 1,16,-1
 322 680 l 1,17,-1
 242 680 l 1,18,19
 211 677 211 677 195.5 647.5 c 128,-1,20
 180 618 180 618 180 590 c 2,21,-1
 178 456 l 1,22,23
 175 346 175 346 140 310 c 1,24,25
 176 281 176 281 178 153 c 0,26,27
 178 112 178 112 178.5 79 c 128,-1,28
 179 46 179 46 179.5 22.5 c 128,-1,29
 180 -1 180 -1 195.5 -31 c 128,-1,30
 211 -61 211 -61 242 -62 c 1,31,-1
 317 -62 l 1,32,-1
 317 -134 l 1,33,-1
 249 -134 l 2,34,35
 183 -134 183 -134 142 -91 c 128,-1,36
 101 -48 101 -48 99 25 c 1,0,1
EndSplineSet
EndChar

StartChar: bar
Encoding: 124 124 95
Width: 233
GlyphClass: 2
Flags: W
LayerCount: 2
Fore
SplineSet
74 -42 m 1,0,-1
 74 694 l 1,1,-1
 159 694 l 1,2,-1
 159 -42 l 1,3,-1
 74 -42 l 1,0,-1
EndSplineSet
EndChar

StartChar: braceright
Encoding: 125 125 96
Width: 350
GlyphClass: 2
Flags: W
LayerCount: 2
Fore
SplineSet
257 179 m 1,0,1
 254 140 254 140 253 98.5 c 128,-1,2
 252 57 252 57 251 25 c 0,3,4
 249 -48 249 -48 208 -91 c 128,-1,5
 167 -134 167 -134 101 -134 c 2,6,-1
 34 -134 l 1,7,-1
 34 -62 l 1,8,-1
 108 -62 l 1,9,10
 139 -61 139 -61 154.5 -31 c 128,-1,11
 170 -1 170 -1 170 33.5 c 128,-1,12
 170 68 170 68 170.5 96 c 128,-1,13
 171 124 171 124 173 154 c 1,14,15
 175 284 175 284 211 310 c 1,16,17
 175 343 175 343 173 456 c 1,18,19
 170 516 170 516 170 590 c 0,20,21
 170 618 170 618 154.5 647.5 c 128,-1,22
 139 677 139 677 108 680 c 1,23,-1
 28 680 l 1,24,-1
 28 754 l 1,25,-1
 101 754 l 2,26,27
 162 754 162 754 204.5 710 c 128,-1,28
 247 666 247 666 251 591 c 0,29,30
 252 566 252 566 254 512.5 c 128,-1,31
 256 459 256 459 257 434 c 1,32,33
 257 350 257 350 290 346 c 1,34,-1
 319 346 l 1,35,-1
 319 276 l 1,36,-1
 288 276 l 1,37,38
 270 274 270 274 263.5 250.5 c 128,-1,39
 257 227 257 227 257 179 c 1,0,1
EndSplineSet
EndChar

StartChar: asciitilde
Encoding: 126 126 97
Width: 582
GlyphClass: 2
Flags: W
LayerCount: 2
Fore
SplineSet
310 325 m 1,0,1
 380 294 380 294 409.5 294 c 128,-1,2
 439 294 439 294 478 351 c 1,3,-1
 534 306 l 1,4,5
 477 209 477 209 401 209 c 0,6,7
 354 209 354 209 284 242.5 c 128,-1,8
 214 276 214 276 175 276 c 0,9,10
 145 276 145 276 106 219 c 1,11,-1
 50 264 l 1,12,13
 107 361 107 361 182 361 c 0,14,15
 234 361 234 361 310 325 c 1,0,1
EndSplineSet
EndChar

StartChar: exclamdown
Encoding: 161 161 100
Width: 228
GlyphClass: 2
Flags: W
LayerCount: 2
Fore
SplineSet
152 338 m 1,0,-1
 164 -178 l 1,1,-1
 66 -178 l 1,2,-1
 76 338 l 1,3,-1
 152 338 l 1,0,-1
115 405 m 128,-1,5
 90 405 90 405 72 422.5 c 128,-1,6
 54 440 54 440 54 465.5 c 128,-1,7
 54 491 54 491 72 509.5 c 128,-1,8
 90 528 90 528 115 528 c 128,-1,9
 140 528 140 528 158 509.5 c 128,-1,10
 176 491 176 491 176 465.5 c 128,-1,11
 176 440 176 440 158 422.5 c 128,-1,4
 140 405 140 405 115 405 c 128,-1,5
EndSplineSet
EndChar

StartChar: cent
Encoding: 162 162 101
Width: 442
GlyphClass: 2
Flags: W
LayerCount: 2
Fore
SplineSet
370 501 m 1,0,1
 312 526 312 526 258.5 526 c 128,-1,2
 205 526 205 526 165.5 481 c 128,-1,3
 126 436 126 436 126 338 c 128,-1,4
 126 240 126 240 166 194.5 c 128,-1,5
 206 149 206 149 260.5 149 c 128,-1,6
 315 149 315 149 381 182 c 1,7,-1
 406 120 l 1,8,9
 353 85 353 85 294 75 c 1,10,-1
 299 -32 l 1,11,-1
 229 -32 l 1,12,-1
 234 74 l 1,13,14
 147 84 147 84 90.5 150 c 128,-1,15
 34 216 34 216 34 337.5 c 128,-1,16
 34 459 34 459 91 525 c 128,-1,17
 148 591 148 591 234 600 c 1,18,-1
 229 709 l 1,19,-1
 299 709 l 1,20,-1
 294 600 l 1,21,22
 351 592 351 592 397 567 c 1,23,-1
 370 501 l 1,0,1
EndSplineSet
EndChar

StartChar: sterling
Encoding: 163 163 102
Width: 490
GlyphClass: 2
Flags: W
LayerCount: 2
Fore
SplineSet
39 312 m 1,0,-1
 39 384 l 1,1,-1
 103 384 l 1,2,3
 86 438 86 438 86 495 c 0,4,5
 86 584 86 584 138.5 632.5 c 128,-1,6
 191 681 191 681 273.5 681 c 128,-1,7
 356 681 356 681 438 647 c 1,8,-1
 411 574 l 1,9,10
 343 604 343 604 288.5 604 c 128,-1,11
 234 604 234 604 206 576.5 c 128,-1,12
 178 549 178 549 178 500 c 128,-1,13
 178 451 178 451 199 384 c 1,14,-1
 325 384 l 1,15,-1
 334 312 l 1,16,-1
 222 312 l 1,17,18
 232 265 232 265 232 229 c 0,19,20
 232 154 232 154 189 81 c 1,21,-1
 457 81 l 1,22,-1
 457 0 l 1,23,-1
 67 0 l 1,24,-1
 67 74 l 1,25,26
 102 94 102 94 122 138.5 c 128,-1,27
 142 183 142 183 142 227 c 128,-1,28
 142 271 142 271 129 312 c 1,29,-1
 39 312 l 1,0,-1
EndSplineSet
EndChar

StartChar: currency
Encoding: 164 164 103
Width: 529
GlyphClass: 2
Flags: W
LayerCount: 2
Fore
SplineSet
172 81 m 1,0,-1
 94 -18 l 1,1,-1
 41 23 l 1,2,-1
 119 122 l 1,3,4
 73 174 73 174 73 250 c 128,-1,5
 73 326 73 326 124 383 c 1,6,7
 120 389 120 389 49 477 c 1,8,-1
 102 518 l 1,9,-1
 176 423 l 1,10,11
 221 444 221 444 267 444 c 128,-1,12
 313 444 313 444 353 425 c 1,13,14
 390 474 390 474 426 518 c 1,15,-1
 478 477 l 1,16,-1
 409 388 l 1,17,18
 435 362 435 362 450.5 324 c 128,-1,19
 466 286 466 286 466 250 c 0,20,21
 466 173 466 173 412 116 c 1,22,-1
 485 23 l 1,23,-1
 432 -18 l 1,24,-1
 360 78 l 1,25,26
 322 57 322 57 268.5 57 c 128,-1,27
 215 57 215 57 172 81 c 1,0,-1
181.5 161.5 m 128,-1,29
 216 126 216 126 269.5 126 c 128,-1,30
 323 126 323 126 357.5 161.5 c 128,-1,31
 392 197 392 197 392 250 c 128,-1,32
 392 303 392 303 357.5 339.5 c 128,-1,33
 323 376 323 376 270 376 c 128,-1,34
 217 376 217 376 182 339.5 c 128,-1,35
 147 303 147 303 147 250 c 128,-1,28
 147 197 147 197 181.5 161.5 c 128,-1,29
EndSplineSet
EndChar

StartChar: yen
Encoding: 165 165 104
Width: 563
GlyphClass: 2
Flags: W
LayerCount: 2
Fore
SplineSet
71 125 m 1,0,-1
 71 189 l 1,1,-1
 232 189 l 1,2,-1
 232 248 l 1,3,-1
 71 248 l 1,4,-1
 71 312 l 1,5,-1
 212 312 l 1,6,-1
 22 668 l 1,7,-1
 130 668 l 1,8,-1
 280 353 l 1,9,-1
 434 668 l 1,10,-1
 535 668 l 1,11,-1
 347 312 l 1,12,-1
 501 312 l 1,13,-1
 501 248 l 1,14,-1
 328 248 l 1,15,-1
 328 189 l 1,16,-1
 501 189 l 1,17,-1
 501 125 l 1,18,-1
 328 125 l 1,19,-1
 328 0 l 1,20,-1
 232 0 l 1,21,-1
 232 125 l 1,22,-1
 71 125 l 1,0,-1
EndSplineSet
EndChar

StartChar: brokenbar
Encoding: 166 166 105
Width: 235
GlyphClass: 2
Flags: W
LayerCount: 2
Fore
SplineSet
75 410 m 1,0,-1
 75 694 l 1,1,-1
 160 694 l 1,2,-1
 160 410 l 1,3,-1
 75 410 l 1,0,-1
75 -45 m 1,4,-1
 75 243 l 1,5,-1
 160 243 l 1,6,-1
 160 -45 l 1,7,-1
 75 -45 l 1,4,-1
EndSplineSet
EndChar

StartChar: section
Encoding: 167 167 106
Width: 367
GlyphClass: 2
Flags: W
LayerCount: 2
Fore
SplineSet
24 289 m 0,0,1
 24 383 24 383 115 432 c 1,2,-1
 106 453 l 1,3,4
 94 489 94 489 94 519 c 0,5,6
 94 638 94 638 217 682 c 0,7,8
 238 690 238 690 262 695 c 1,9,-1
 279 625 l 1,10,-1
 246 615 l 1,11,12
 174 589 174 589 174 530 c 0,13,14
 174 512 174 512 187.5 479 c 128,-1,15
 201 446 201 446 255.5 367.5 c 128,-1,16
 310 289 310 289 329 248 c 1,17,18
 344 212 344 212 344 178 c 0,19,20
 344 86 344 86 252 34 c 1,21,22
 255 29 255 29 265 5.5 c 128,-1,23
 275 -18 275 -18 275 -54 c 128,-1,24
 275 -90 275 -90 257 -129 c 1,25,26
 228 -187 228 -187 150 -215 c 0,27,28
 124 -225 124 -225 105 -228 c 1,29,-1
 88 -159 l 1,30,-1
 121 -149 l 1,31,32
 169 -133 169 -133 186 -98 c 1,33,34
 193 -81 193 -81 193 -62 c 128,-1,35
 193 -43 193 -43 178 -9.5 c 128,-1,36
 163 24 163 24 110 101.5 c 128,-1,37
 57 179 57 179 38 219 c 1,38,39
 24 256 24 256 24 289 c 0,0,1
218 91 m 1,40,41
 263 114 263 114 263 168 c 0,42,43
 263 190 263 190 253 210 c 1,44,45
 235 254 235 254 149 375 c 1,46,47
 105 350 105 350 105 297 c 0,48,49
 105 249 105 249 190 130 c 0,50,51
 209 104 209 104 218 91 c 1,40,41
EndSplineSet
EndChar

StartChar: dieresis
Encoding: 168 168 107
Width: 325
GlyphClass: 2
Flags: W
LayerCount: 2
Fore
SplineSet
79 707 m 128,-1,1
 102 707 102 707 118 691.5 c 128,-1,2
 134 676 134 676 134 653 c 128,-1,3
 134 630 134 630 118 613 c 128,-1,4
 102 596 102 596 79.5 596 c 128,-1,5
 57 596 57 596 40.5 613 c 128,-1,6
 24 630 24 630 24 652.5 c 128,-1,7
 24 675 24 675 40 691 c 128,-1,0
 56 707 56 707 79 707 c 128,-1,1
244 707 m 128,-1,9
 267 707 267 707 283 691.5 c 128,-1,10
 299 676 299 676 299 653 c 128,-1,11
 299 630 299 630 283 613 c 128,-1,12
 267 596 267 596 244.5 596 c 128,-1,13
 222 596 222 596 205.5 613 c 128,-1,14
 189 630 189 630 189 652.5 c 128,-1,15
 189 675 189 675 205 691 c 128,-1,8
 221 707 221 707 244 707 c 128,-1,9
EndSplineSet
EndChar

StartChar: copyright
Encoding: 169 169 108
Width: 732
GlyphClass: 2
Flags: W
LayerCount: 2
Fore
SplineSet
460 414 m 1,0,1
 422 438 422 438 377.5 438 c 128,-1,2
 333 438 333 438 303 404 c 128,-1,3
 273 370 273 370 273 298 c 128,-1,4
 273 226 273 226 303 191.5 c 128,-1,5
 333 157 333 157 376.5 157 c 128,-1,6
 420 157 420 157 467 184 c 1,7,-1
 489 135 l 1,8,9
 437 98 437 98 370 98 c 128,-1,10
 303 98 303 98 253 148.5 c 128,-1,11
 203 199 203 199 203 298 c 128,-1,12
 203 397 203 397 253 447.5 c 128,-1,13
 303 498 303 498 369.5 498 c 128,-1,14
 436 498 436 498 484 466 c 1,15,-1
 460 414 l 1,0,1
686 302 m 128,-1,17
 686 168 686 168 593 75 c 128,-1,18
 500 -18 500 -18 366 -18 c 128,-1,19
 232 -18 232 -18 139 75 c 128,-1,20
 46 168 46 168 46 302 c 128,-1,21
 46 436 46 436 139 529 c 128,-1,22
 232 622 232 622 366 622 c 128,-1,23
 500 622 500 622 593 529 c 128,-1,16
 686 436 686 436 686 302 c 128,-1,17
611 302 m 128,-1,25
 611 412 611 412 541.5 483.5 c 128,-1,26
 472 555 472 555 366 555 c 128,-1,27
 260 555 260 555 190 482.5 c 128,-1,28
 120 410 120 410 120 300 c 128,-1,29
 120 190 120 190 190 117.5 c 128,-1,30
 260 45 260 45 366 45 c 128,-1,31
 472 45 472 45 541.5 118.5 c 128,-1,24
 611 192 611 192 611 302 c 128,-1,25
EndSplineSet
EndChar

StartChar: ordfeminine
Encoding: 170 170 109
Width: 346
GlyphClass: 2
Flags: W
LayerCount: 2
Fore
SplineSet
209 433 m 1,0,1
 178 404 178 404 134 404 c 128,-1,2
 90 404 90 404 68 425.5 c 128,-1,3
 46 447 46 447 46.5 488 c 128,-1,4
 47 529 47 529 77.5 546.5 c 128,-1,5
 108 564 108 564 140.5 564 c 128,-1,6
 173 564 173 564 201 560 c 1,7,-1
 201 601 l 2,8,9
 201 633 201 633 190.5 644.5 c 128,-1,10
 180 656 180 656 151.5 656 c 128,-1,11
 123 656 123 656 77 640 c 1,12,-1
 64 678 l 1,13,14
 100 702 100 702 155 702 c 128,-1,15
 210 702 210 702 233 678 c 128,-1,16
 256 654 256 654 256 598 c 2,17,-1
 256 463 l 2,18,19
 256 446 256 446 267 446 c 0,20,21
 272 446 272 446 292 452 c 1,22,-1
 303 417 l 1,23,24
 285 404 285 404 251 404 c 128,-1,25
 217 404 217 404 206 433 c 1,26,-1
 209 433 l 1,0,1
137 448 m 0,27,28
 171 448 171 448 201 467 c 1,29,-1
 201 529 l 1,30,31
 192 531 192 531 161 531 c 0,32,33
 97 531 97 531 96 489 c 0,34,35
 96 448 96 448 137 448 c 0,27,28
EndSplineSet
EndChar

StartChar: guillemotleft
Encoding: 171 171 110
Width: 533
GlyphClass: 2
Flags: W
LayerCount: 2
Fore
SplineSet
486 462 m 1,0,-1
 338 308 l 1,1,-1
 486 155 l 1,2,-1
 428 104 l 1,3,-1
 257 284 l 1,4,-1
 257 332 l 1,5,-1
 428 512 l 1,6,-1
 486 462 l 1,0,-1
276 462 m 1,7,-1
 127 308 l 1,8,-1
 276 155 l 1,9,-1
 218 104 l 1,10,-1
 47 284 l 1,11,-1
 47 332 l 1,12,-1
 218 512 l 1,13,-1
 276 462 l 1,7,-1
EndSplineSet
EndChar

StartChar: logicalnot
Encoding: 172 172 111
Width: 509
GlyphClass: 2
Flags: W
LayerCount: 2
Fore
SplineSet
55 432 m 1,0,-1
 443 432 l 1,1,-1
 443 236 l 1,2,-1
 364 236 l 1,3,-1
 364 353 l 1,4,-1
 55 353 l 1,5,-1
 55 432 l 1,0,-1
EndSplineSet
EndChar

StartChar: uni00AD
Encoding: 173 173 112
Width: 429
GlyphClass: 2
Flags: W
LayerCount: 2
Fore
SplineSet
366 318 m 1,0,-1
 366 239 l 1,1,-1
 63 239 l 1,2,-1
 63 318 l 1,3,-1
 366 318 l 1,0,-1
EndSplineSet
EndChar

StartChar: registered
Encoding: 174 174 113
Width: 732
GlyphClass: 2
Flags: W
LayerCount: 2
Fore
SplineSet
686 302 m 128,-1,1
 686 168 686 168 593 75 c 128,-1,2
 500 -18 500 -18 366 -18 c 128,-1,3
 232 -18 232 -18 139 75 c 128,-1,4
 46 168 46 168 46 302 c 128,-1,5
 46 436 46 436 139 529 c 128,-1,6
 232 622 232 622 366 622 c 128,-1,7
 500 622 500 622 593 529 c 128,-1,0
 686 436 686 436 686 302 c 128,-1,1
611 302 m 128,-1,9
 611 412 611 412 541.5 483.5 c 128,-1,10
 472 555 472 555 366 555 c 128,-1,11
 260 555 260 555 190 482.5 c 128,-1,12
 120 410 120 410 120 300 c 128,-1,13
 120 190 120 190 190 117.5 c 128,-1,14
 260 45 260 45 366 45 c 128,-1,15
 472 45 472 45 541.5 118.5 c 128,-1,8
 611 192 611 192 611 302 c 128,-1,9
339 497 m 2,16,17
 490 497 490 497 490 381 c 0,18,19
 490 319 490 319 453 289 c 0,20,21
 438 276 438 276 420 270 c 1,22,23
 423 264 423 264 462.5 212 c 128,-1,24
 502 160 502 160 523 136 c 1,25,-1
 481 105 l 1,26,27
 419 172 419 172 362 260 c 1,28,29
 336 258 336 258 323 258 c 2,30,-1
 302 258 l 1,31,-1
 302 111 l 1,32,-1
 243 111 l 1,33,-1
 243 497 l 1,34,-1
 339 497 l 2,16,17
404 321 m 1,35,36
 428 338 428 338 428 379.5 c 128,-1,37
 428 421 428 421 404 436.5 c 128,-1,38
 380 452 380 452 331 452 c 2,39,-1
 302 452 l 1,40,-1
 302 305 l 1,41,-1
 322 305 l 2,42,43
 385 305 385 305 404 321 c 1,35,36
EndSplineSet
EndChar

StartChar: macron
Encoding: 175 175 114
Width: 577
GlyphClass: 2
Flags: W
LayerCount: 2
Fore
SplineSet
514 670 m 1,0,-1
 514 591 l 1,1,-1
 63 591 l 1,2,-1
 63 670 l 1,3,-1
 514 670 l 1,0,-1
EndSplineSet
EndChar

StartChar: degree
Encoding: 176 176 115
Width: 328
GlyphClass: 2
Flags: W
LayerCount: 2
Fore
SplineSet
254.5 717 m 128,-1,1
 285 683 285 683 285 632.5 c 128,-1,2
 285 582 285 582 253 546 c 128,-1,3
 221 510 221 510 162 510 c 128,-1,4
 103 510 103 510 73 544.5 c 128,-1,5
 43 579 43 579 43 629.5 c 128,-1,6
 43 680 43 680 74.5 715.5 c 128,-1,7
 106 751 106 751 165 751 c 128,-1,0
 224 751 224 751 254.5 717 c 128,-1,1
205.5 589 m 128,-1,9
 219 608 219 608 219 632 c 128,-1,10
 219 656 219 656 206 673 c 128,-1,11
 193 690 193 690 164.5 690 c 128,-1,12
 136 690 136 690 122.5 672.5 c 128,-1,13
 109 655 109 655 109 630 c 0,14,15
 109 570 109 570 162 570 c 0,16,8
 192 570 192 570 205.5 589 c 128,-1,9
EndSplineSet
EndChar

StartChar: plusminus
Encoding: 177 177 116
Width: 496
GlyphClass: 2
Flags: W
LayerCount: 2
Fore
SplineSet
288 142 m 1,0,-1
 208 142 l 1,1,-1
 208 295 l 1,2,-1
 56 295 l 1,3,-1
 56 376 l 1,4,-1
 208 376 l 1,5,-1
 208 526 l 1,6,-1
 288 526 l 1,7,-1
 288 376 l 1,8,-1
 440 376 l 1,9,-1
 440 295 l 1,10,-1
 288 295 l 1,11,-1
 288 142 l 1,0,-1
440 80 m 1,12,-1
 440 0 l 1,13,-1
 56 0 l 1,14,-1
 56 80 l 1,15,-1
 440 80 l 1,12,-1
EndSplineSet
EndChar

StartChar: twosuperior
Encoding: 178 178 117
Width: 338
GlyphClass: 2
Flags: W
LayerCount: 2
Fore
SplineSet
36 286 m 1,0,-1
 36 342 l 1,1,2
 83 392 83 392 110.5 427 c 128,-1,3
 138 462 138 462 147.5 474 c 128,-1,4
 157 486 157 486 162 492 c 128,-1,5
 167 498 167 498 175 509 c 128,-1,6
 183 520 183 520 187 527 c 128,-1,7
 191 534 191 534 196 544 c 0,8,9
 205 561 205 561 205 585 c 128,-1,10
 205 609 205 609 189 623.5 c 128,-1,11
 173 638 173 638 139 638 c 128,-1,12
 105 638 105 638 71 620 c 1,13,-1
 51 671 l 1,14,15
 109 700 109 700 164 700 c 128,-1,16
 219 700 219 700 248 669 c 128,-1,17
 277 638 277 638 277 585.5 c 128,-1,18
 277 533 277 533 225 463 c 1,19,20
 158 375 158 375 134 348 c 1,21,-1
 293 348 l 1,22,-1
 293 286 l 1,23,-1
 36 286 l 1,0,-1
EndSplineSet
EndChar

StartChar: threesuperior
Encoding: 179 179 118
Width: 316
GlyphClass: 2
Flags: W
LayerCount: 2
Fore
SplineSet
128 479 m 2,0,-1
 96 479 l 1,1,-1
 96 534 l 1,2,-1
 127 534 l 1,3,4
 158 535 158 535 174.5 553 c 128,-1,5
 191 571 191 571 191 596 c 0,6,7
 191 642 191 642 138 642 c 0,8,9
 96 642 96 642 59 624 c 1,10,-1
 42 674 l 1,11,12
 98 702 98 702 149 702 c 128,-1,13
 200 702 200 702 231 674 c 128,-1,14
 262 646 262 646 262 594 c 128,-1,15
 262 542 262 542 214 513 c 1,16,17
 277 487 277 487 277 414 c 0,18,19
 277 355 277 355 240.5 318 c 128,-1,20
 204 281 204 281 145 281 c 128,-1,21
 86 281 86 281 29 316 c 1,22,-1
 54 368 l 1,23,24
 99 342 99 342 135.5 342 c 128,-1,25
 172 342 172 342 189.5 361.5 c 128,-1,26
 207 381 207 381 207 412 c 128,-1,27
 207 443 207 443 186 461 c 128,-1,28
 165 479 165 479 128 479 c 2,0,-1
EndSplineSet
EndChar

StartChar: acute
Encoding: 180 180 119
Width: 356
GlyphClass: 2
Flags: W
LayerCount: 2
Fore
SplineSet
279 681 m 1,0,-1
 107 577 l 1,1,-1
 71 632 l 1,2,-1
 231 754 l 1,3,-1
 279 681 l 1,0,-1
EndSplineSet
EndChar

StartChar: mu
Encoding: 181 181 120
Width: 557
GlyphClass: 2
Flags: W
LayerCount: 2
Fore
SplineSet
69 -207 m 1,0,-1
 69 499 l 1,1,-1
 159 508 l 1,2,-1
 159 161 l 2,3,4
 159 111 159 111 172 87.5 c 128,-1,5
 185 64 185 64 224.5 64 c 128,-1,6
 264 64 264 64 301.5 76.5 c 128,-1,7
 339 89 339 89 363 111 c 1,8,-1
 363 506 l 1,9,-1
 453 506 l 1,10,-1
 453 90 l 2,11,12
 453 55 453 55 477 55 c 0,13,14
 493 55 493 55 521 64 c 1,15,-1
 536 8 l 1,16,17
 502 -14 502 -14 454 -14 c 0,18,19
 389 -14 389 -14 370 49 c 1,20,21
 342 23 342 23 300 5 c 128,-1,22
 258 -13 258 -13 220 -13 c 128,-1,23
 182 -13 182 -13 159 -3 c 1,24,-1
 159 -207 l 1,25,-1
 69 -207 l 1,0,-1
EndSplineSet
EndChar

StartChar: paragraph
Encoding: 182 182 121
Width: 508
GlyphClass: 2
Flags: W
LayerCount: 2
Fore
SplineSet
479 604 m 1,0,-1
 407 604 l 1,1,-1
 407 -162 l 1,2,-1
 333 -162 l 1,3,-1
 333 604 l 1,4,-1
 259 604 l 1,5,-1
 259 -162 l 1,6,-1
 181 -162 l 1,7,-1
 181 351 l 1,8,9
 115 351 115 351 68.5 397.5 c 128,-1,10
 22 444 22 444 22 510 c 128,-1,11
 22 576 22 576 68.5 622 c 128,-1,12
 115 668 115 668 181 668 c 2,13,-1
 479 668 l 1,14,-1
 479 604 l 1,0,-1
EndSplineSet
EndChar

StartChar: periodcentered
Encoding: 183 183 122
Width: 254
GlyphClass: 2
Flags: W
LayerCount: 2
Fore
SplineSet
77 312.5 m 128,-1,1
 98 333 98 333 127 333 c 128,-1,2
 156 333 156 333 177 312.5 c 128,-1,3
 198 292 198 292 198 263 c 128,-1,4
 198 234 198 234 177 212 c 128,-1,5
 156 190 156 190 127 190 c 128,-1,6
 98 190 98 190 77 212 c 128,-1,7
 56 234 56 234 56 263 c 128,-1,0
 56 292 56 292 77 312.5 c 128,-1,1
EndSplineSet
EndChar

StartChar: cedilla
Encoding: 184 184 123
Width: 284
GlyphClass: 2
Flags: W
LayerCount: 2
Fore
SplineSet
222 -113 m 0,0,1
 222 -192 222 -192 116 -255 c 1,2,-1
 75 -207 l 1,3,4
 145 -158 145 -158 145 -108 c 0,5,6
 145 -83 145 -83 127 -49 c 1,7,-1
 206 -49 l 1,8,9
 222 -83 222 -83 222 -113 c 0,0,1
EndSplineSet
EndChar

StartChar: onesuperior
Encoding: 185 185 124
Width: 243
GlyphClass: 2
Flags: W
LayerCount: 2
Fore
SplineSet
184 259 m 1,0,-1
 110 259 l 1,1,-1
 110 601 l 1,2,-1
 30 560 l 1,3,-1
 8 617 l 1,4,-1
 126 668 l 1,5,-1
 184 668 l 1,6,-1
 184 259 l 1,0,-1
EndSplineSet
EndChar

StartChar: ordmasculine
Encoding: 186 186 125
Width: 332
GlyphClass: 2
Flags: W
LayerCount: 2
Fore
SplineSet
165 404 m 128,-1,1
 112 404 112 404 80 439.5 c 128,-1,2
 48 475 48 475 48 552.5 c 128,-1,3
 48 630 48 630 81 666 c 128,-1,4
 114 702 114 702 167 702 c 0,5,6
 284 702 284 702 284 553 c 0,7,8
 284 476 284 476 251 440 c 128,-1,0
 218 404 218 404 165 404 c 128,-1,1
166 657 m 0,9,10
 103 657 103 657 103 553 c 128,-1,11
 103 449 103 449 166 449 c 0,12,13
 192 449 192 449 210 473.5 c 128,-1,14
 228 498 228 498 228 555.5 c 128,-1,15
 228 613 228 613 212 635 c 128,-1,16
 196 657 196 657 166 657 c 0,9,10
EndSplineSet
EndChar

StartChar: guillemotright
Encoding: 187 187 126
Width: 531
GlyphClass: 2
Flags: W
LayerCount: 2
Fore
SplineSet
194 308 m 1,0,-1
 46 462 l 1,1,-1
 104 512 l 1,2,-1
 275 332 l 1,3,-1
 275 284 l 1,4,-1
 104 104 l 1,5,-1
 46 155 l 1,6,-1
 194 308 l 1,0,-1
405 308 m 1,7,-1
 256 462 l 1,8,-1
 314 512 l 1,9,-1
 485 332 l 1,10,-1
 485 284 l 1,11,-1
 314 104 l 1,12,-1
 256 155 l 1,13,-1
 405 308 l 1,7,-1
EndSplineSet
EndChar

StartChar: onequarter
Encoding: 188 188 127
Width: 714
GlyphClass: 2
Flags: W
LayerCount: 2
Fore
SplineSet
687 111 m 1,0,-1
 619 111 l 1,1,-1
 619 0 l 1,2,-1
 554 0 l 1,3,-1
 554 111 l 1,4,-1
 390 111 l 1,5,-1
 390 153 l 1,6,-1
 522 400 l 1,7,-1
 619 400 l 1,8,-1
 619 166 l 1,9,-1
 687 166 l 1,10,-1
 687 111 l 1,0,-1
554 166 m 1,11,-1
 555 334 l 1,12,-1
 468 166 l 1,13,-1
 554 166 l 1,11,-1
196 291 m 1,14,-1
 122 291 l 1,15,-1
 122 633 l 1,16,-1
 42 592 l 1,17,-1
 20 649 l 1,18,-1
 138 700 l 1,19,-1
 196 700 l 1,20,-1
 196 291 l 1,14,-1
534 703 m 1,21,-1
 217 -45 l 1,22,-1
 142 -19 l 1,23,-1
 461 729 l 1,24,-1
 534 703 l 1,21,-1
EndSplineSet
EndChar

StartChar: onehalf
Encoding: 189 189 128
Width: 739
GlyphClass: 2
Flags: W
LayerCount: 2
Fore
SplineSet
448 0 m 1,0,-1
 448 56 l 1,1,2
 495 106 495 106 522.5 141 c 128,-1,3
 550 176 550 176 559.5 188 c 128,-1,4
 569 200 569 200 574 206 c 128,-1,5
 579 212 579 212 587 223 c 128,-1,6
 595 234 595 234 599 241 c 128,-1,7
 603 248 603 248 608 258 c 0,8,9
 617 275 617 275 617 299 c 128,-1,10
 617 323 617 323 601 337.5 c 128,-1,11
 585 352 585 352 551 352 c 128,-1,12
 517 352 517 352 483 334 c 1,13,-1
 463 385 l 1,14,15
 521 414 521 414 576 414 c 128,-1,16
 631 414 631 414 660 383 c 128,-1,17
 689 352 689 352 689 299.5 c 128,-1,18
 689 247 689 247 637 177 c 1,19,20
 570 89 570 89 546 62 c 1,21,-1
 705 62 l 1,22,-1
 705 0 l 1,23,-1
 448 0 l 1,0,-1
196 291 m 1,24,-1
 122 291 l 1,25,-1
 122 633 l 1,26,-1
 42 592 l 1,27,-1
 20 649 l 1,28,-1
 138 700 l 1,29,-1
 196 700 l 1,30,-1
 196 291 l 1,24,-1
527 703 m 1,31,-1
 210 -45 l 1,32,-1
 135 -19 l 1,33,-1
 454 729 l 1,34,-1
 527 703 l 1,31,-1
EndSplineSet
EndChar

StartChar: threequarters
Encoding: 190 190 129
Width: 771
GlyphClass: 2
Flags: W
LayerCount: 2
Fore
SplineSet
125 477 m 2,0,-1
 93 477 l 1,1,-1
 93 532 l 1,2,-1
 124 532 l 1,3,4
 155 533 155 533 171.5 551 c 128,-1,5
 188 569 188 569 188 594 c 0,6,7
 188 640 188 640 135 640 c 0,8,9
 94 640 94 640 56 622 c 1,10,-1
 39 672 l 1,11,12
 95 700 95 700 146 700 c 128,-1,13
 197 700 197 700 228 672 c 128,-1,14
 259 644 259 644 259 592 c 128,-1,15
 259 540 259 540 211 511 c 1,16,17
 274 485 274 485 274 412 c 0,18,19
 274 353 274 353 237.5 316 c 128,-1,20
 201 279 201 279 142 279 c 128,-1,21
 83 279 83 279 26 314 c 1,22,-1
 51 366 l 1,23,24
 97 340 97 340 133 340 c 128,-1,25
 169 340 169 340 186.5 359.5 c 128,-1,26
 204 379 204 379 204 410 c 128,-1,27
 204 441 204 441 183 459 c 128,-1,28
 162 477 162 477 125 477 c 2,0,-1
748 111 m 1,29,-1
 680 111 l 1,30,-1
 680 0 l 1,31,-1
 615 0 l 1,32,-1
 615 111 l 1,33,-1
 451 111 l 1,34,-1
 451 153 l 1,35,-1
 583 400 l 1,36,-1
 680 400 l 1,37,-1
 680 166 l 1,38,-1
 748 166 l 1,39,-1
 748 111 l 1,29,-1
615 166 m 1,40,-1
 616 334 l 1,41,-1
 529 166 l 1,42,-1
 615 166 l 1,40,-1
589 692 m 1,43,-1
 272 -56 l 1,44,-1
 197 -30 l 1,45,-1
 516 718 l 1,46,-1
 589 692 l 1,43,-1
EndSplineSet
EndChar

StartChar: questiondown
Encoding: 191 191 130
Width: 334
GlyphClass: 2
Flags: W
LayerCount: 2
Fore
SplineSet
157 -76.5 m 128,-1,1
 202 -105 202 -105 290 -113 c 1,2,-1
 272 -190 l 1,3,4
 158 -185 158 -185 91 -135 c 128,-1,5
 24 -85 24 -85 24 -12 c 0,6,7
 24 66 24 66 84 120 c 0,8,9
 107 140 107 140 130 160 c 0,10,11
 183 208 183 208 189 276 c 1,12,-1
 191 335 l 1,13,-1
 268 335 l 1,14,15
 270 293 270 293 270 280 c 0,16,17
 270 197 270 197 212 138 c 0,18,19
 191 116 191 116 170 96 c 0,20,21
 112 43 112 43 112 -2.5 c 128,-1,0
 112 -48 112 -48 157 -76.5 c 128,-1,1
224 391 m 128,-1,23
 199 391 199 391 181 408.5 c 128,-1,24
 163 426 163 426 163 451.5 c 128,-1,25
 163 477 163 477 181 495.5 c 128,-1,26
 199 514 199 514 224 514 c 128,-1,27
 249 514 249 514 267 495.5 c 128,-1,28
 285 477 285 477 285 451.5 c 128,-1,29
 285 426 285 426 267 408.5 c 128,-1,22
 249 391 249 391 224 391 c 128,-1,23
EndSplineSet
EndChar

StartChar: Agrave
Encoding: 192 192 131
Width: 561
GlyphClass: 2
Flags: W
LayerCount: 2
Fore
SplineSet
398 172 m 1,0,-1
 163 172 l 1,1,-1
 106 0 l 1,2,-1
 8 0 l 1,3,-1
 227 668 l 1,4,-1
 334 668 l 1,5,-1
 553 0 l 1,6,-1
 456 0 l 1,7,-1
 398 172 l 1,0,-1
376 247 m 1,8,-1
 280 577 l 1,9,-1
 185 247 l 1,10,-1
 376 247 l 1,8,-1
333 726 m 1,11,-1
 161 830 l 1,12,-1
 209 903 l 1,13,-1
 369 781 l 1,14,-1
 333 726 l 1,11,-1
EndSplineSet
EndChar

StartChar: Aacute
Encoding: 193 193 132
Width: 561
GlyphClass: 2
Flags: W
LayerCount: 2
Fore
SplineSet
398 172 m 1,0,-1
 163 172 l 1,1,-1
 106 0 l 1,2,-1
 8 0 l 1,3,-1
 227 668 l 1,4,-1
 334 668 l 1,5,-1
 553 0 l 1,6,-1
 456 0 l 1,7,-1
 398 172 l 1,0,-1
376 247 m 1,8,-1
 280 577 l 1,9,-1
 185 247 l 1,10,-1
 376 247 l 1,8,-1
408 832 m 1,11,-1
 236 728 l 1,12,-1
 200 783 l 1,13,-1
 360 905 l 1,14,-1
 408 832 l 1,11,-1
EndSplineSet
EndChar

StartChar: Acircumflex
Encoding: 194 194 133
Width: 561
GlyphClass: 2
Flags: W
LayerCount: 2
Fore
SplineSet
398 172 m 1,0,-1
 163 172 l 1,1,-1
 106 0 l 1,2,-1
 8 0 l 1,3,-1
 227 668 l 1,4,-1
 334 668 l 1,5,-1
 553 0 l 1,6,-1
 456 0 l 1,7,-1
 398 172 l 1,0,-1
376 247 m 1,8,-1
 280 577 l 1,9,-1
 185 247 l 1,10,-1
 376 247 l 1,8,-1
280 800 m 1,11,-1
 195 714 l 1,12,-1
 147 750 l 1,13,-1
 246 860 l 1,14,-1
 311 860 l 1,15,-1
 411 750 l 1,16,-1
 360 714 l 1,17,-1
 280 800 l 1,11,-1
EndSplineSet
EndChar

StartChar: Atilde
Encoding: 195 195 134
Width: 561
GlyphClass: 2
Flags: W
LayerCount: 2
Fore
SplineSet
398 172 m 1,0,-1
 163 172 l 1,1,-1
 106 0 l 1,2,-1
 8 0 l 1,3,-1
 227 668 l 1,4,-1
 334 668 l 1,5,-1
 553 0 l 1,6,-1
 456 0 l 1,7,-1
 398 172 l 1,0,-1
376 247 m 1,8,-1
 280 577 l 1,9,-1
 185 247 l 1,10,-1
 376 247 l 1,8,-1
159 823.5 m 128,-1,12
 185 844 185 844 209 844 c 128,-1,13
 233 844 233 844 279.5 822.5 c 128,-1,14
 326 801 326 801 345.5 801 c 128,-1,15
 365 801 365 801 402 843 c 1,16,-1
 445 807 l 1,17,18
 425 773 425 773 395 751.5 c 128,-1,19
 365 730 365 730 340 730 c 128,-1,20
 315 730 315 730 271 751.5 c 128,-1,21
 227 773 227 773 208 773 c 128,-1,22
 189 773 189 773 158 736 c 1,23,-1
 114 773 l 1,24,11
 133 803 133 803 159 823.5 c 128,-1,12
EndSplineSet
EndChar

StartChar: Adieresis
Encoding: 196 196 135
Width: 561
GlyphClass: 2
Flags: W
LayerCount: 2
Fore
SplineSet
398 172 m 1,0,-1
 163 172 l 1,1,-1
 106 0 l 1,2,-1
 8 0 l 1,3,-1
 227 668 l 1,4,-1
 334 668 l 1,5,-1
 553 0 l 1,6,-1
 456 0 l 1,7,-1
 398 172 l 1,0,-1
376 247 m 1,8,-1
 280 577 l 1,9,-1
 185 247 l 1,10,-1
 376 247 l 1,8,-1
199 839 m 128,-1,12
 222 839 222 839 238 823.5 c 128,-1,13
 254 808 254 808 254 785 c 128,-1,14
 254 762 254 762 238 745 c 128,-1,15
 222 728 222 728 199.5 728 c 128,-1,16
 177 728 177 728 160.5 745 c 128,-1,17
 144 762 144 762 144 784.5 c 128,-1,18
 144 807 144 807 160 823 c 128,-1,11
 176 839 176 839 199 839 c 128,-1,12
364 839 m 128,-1,20
 387 839 387 839 403 823.5 c 128,-1,21
 419 808 419 808 419 785 c 128,-1,22
 419 762 419 762 403 745 c 128,-1,23
 387 728 387 728 364.5 728 c 128,-1,24
 342 728 342 728 325.5 745 c 128,-1,25
 309 762 309 762 309 784.5 c 128,-1,26
 309 807 309 807 325 823 c 128,-1,19
 341 839 341 839 364 839 c 128,-1,20
EndSplineSet
EndChar

StartChar: Aring
Encoding: 197 197 136
Width: 561
GlyphClass: 2
Flags: W
LayerCount: 2
Fore
SplineSet
382 828 m 128,-1,1
 382 785 382 785 355 754.5 c 128,-1,2
 328 724 328 724 278 724 c 128,-1,3
 228 724 228 724 202 754 c 128,-1,4
 176 784 176 784 176 827 c 128,-1,5
 176 870 176 870 202.5 899.5 c 128,-1,6
 229 929 229 929 279 929 c 128,-1,7
 329 929 329 929 355.5 900 c 128,-1,0
 382 871 382 871 382 828 c 128,-1,1
312 793 m 128,-1,9
 323 808 323 808 323 827.5 c 128,-1,10
 323 847 323 847 312.5 861 c 128,-1,11
 302 875 302 875 279.5 875 c 128,-1,12
 257 875 257 875 246 861 c 128,-1,13
 235 847 235 847 235 827 c 128,-1,14
 235 807 235 807 245.5 792.5 c 128,-1,15
 256 778 256 778 278.5 778 c 128,-1,8
 301 778 301 778 312 793 c 128,-1,9
398 172 m 1,16,-1
 163 172 l 1,17,-1
 106 0 l 1,18,-1
 8 0 l 1,19,-1
 227 668 l 1,20,-1
 334 668 l 1,21,-1
 553 0 l 1,22,-1
 456 0 l 1,23,-1
 398 172 l 1,16,-1
376 247 m 1,24,-1
 280 577 l 1,25,-1
 185 247 l 1,26,-1
 376 247 l 1,24,-1
EndSplineSet
EndChar

StartChar: AE
Encoding: 198 198 137
Width: 777
GlyphClass: 2
Flags: W
LayerCount: 2
Fore
SplineSet
445 587 m 1,0,-1
 445 385 l 1,1,-1
 704 385 l 1,2,-1
 704 305 l 1,3,-1
 445 305 l 1,4,-1
 445 81 l 1,5,-1
 720 81 l 1,6,-1
 730 0 l 1,7,-1
 351 0 l 1,8,-1
 351 172 l 1,9,-1
 180 172 l 1,10,-1
 105 0 l 1,11,-1
 5 0 l 1,12,-1
 296 668 l 1,13,-1
 720 668 l 1,14,-1
 711 587 l 1,15,-1
 445 587 l 1,0,-1
351 247 m 1,16,-1
 351 594 l 1,17,-1
 211 247 l 1,18,-1
 351 247 l 1,16,-1
EndSplineSet
EndChar

StartChar: Ccedilla
Encoding: 199 199 138
Width: 521
GlyphClass: 2
Flags: W
LayerCount: 2
Fore
SplineSet
340 -13 m 0,0,1
 52 -13 52 -13 52 335 c 0,2,3
 52 515 52 515 125.5 598 c 128,-1,4
 199 681 199 681 328 681 c 0,5,6
 396 681 396 681 479 658 c 1,7,-1
 461 583 l 1,8,9
 394 598 394 598 343 598 c 0,10,11
 251 598 251 598 199.5 539 c 128,-1,12
 148 480 148 480 148 339 c 0,13,14
 148 69 148 69 359 69 c 0,15,16
 410 69 410 69 469 81 c 1,17,-1
 482 6 l 1,18,19
 403 -13 403 -13 340 -13 c 0,0,1
385 -113 m 0,20,21
 385 -192 385 -192 279 -255 c 1,22,-1
 238 -207 l 1,23,24
 308 -158 308 -158 308 -108 c 0,25,26
 308 -83 308 -83 290 -49 c 1,27,-1
 369 -49 l 1,28,29
 385 -83 385 -83 385 -113 c 0,20,21
EndSplineSet
EndChar

StartChar: Egrave
Encoding: 200 200 139
Width: 511
GlyphClass: 2
Flags: W
LayerCount: 2
Fore
SplineSet
175 81 m 1,0,-1
 459 81 l 1,1,-1
 459 0 l 1,2,-1
 79 0 l 1,3,-1
 79 668 l 1,4,-1
 450 668 l 1,5,-1
 450 587 l 1,6,-1
 175 587 l 1,7,-1
 175 385 l 1,8,-1
 434 385 l 1,9,-1
 434 306 l 1,10,-1
 175 306 l 1,11,-1
 175 81 l 1,0,-1
316 726 m 1,12,-1
 144 830 l 1,13,-1
 192 903 l 1,14,-1
 352 781 l 1,15,-1
 316 726 l 1,12,-1
EndSplineSet
EndChar

StartChar: Eacute
Encoding: 201 201 140
Width: 511
GlyphClass: 2
Flags: W
LayerCount: 2
Fore
SplineSet
175 81 m 1,0,-1
 459 81 l 1,1,-1
 459 0 l 1,2,-1
 79 0 l 1,3,-1
 79 668 l 1,4,-1
 450 668 l 1,5,-1
 450 587 l 1,6,-1
 175 587 l 1,7,-1
 175 385 l 1,8,-1
 434 385 l 1,9,-1
 434 306 l 1,10,-1
 175 306 l 1,11,-1
 175 81 l 1,0,-1
379 832 m 1,12,-1
 207 728 l 1,13,-1
 171 783 l 1,14,-1
 331 905 l 1,15,-1
 379 832 l 1,12,-1
EndSplineSet
EndChar

StartChar: Ecircumflex
Encoding: 202 202 141
Width: 511
GlyphClass: 2
Flags: W
LayerCount: 2
Fore
SplineSet
175 81 m 1,0,-1
 459 81 l 1,1,-1
 459 0 l 1,2,-1
 79 0 l 1,3,-1
 79 668 l 1,4,-1
 450 668 l 1,5,-1
 450 587 l 1,6,-1
 175 587 l 1,7,-1
 175 385 l 1,8,-1
 434 385 l 1,9,-1
 434 306 l 1,10,-1
 175 306 l 1,11,-1
 175 81 l 1,0,-1
268 800 m 1,12,-1
 183 714 l 1,13,-1
 135 750 l 1,14,-1
 234 860 l 1,15,-1
 299 860 l 1,16,-1
 399 750 l 1,17,-1
 348 714 l 1,18,-1
 268 800 l 1,12,-1
EndSplineSet
EndChar

StartChar: Edieresis
Encoding: 203 203 142
Width: 511
GlyphClass: 2
Flags: W
LayerCount: 2
Fore
SplineSet
175 81 m 1,0,-1
 459 81 l 1,1,-1
 459 0 l 1,2,-1
 79 0 l 1,3,-1
 79 668 l 1,4,-1
 450 668 l 1,5,-1
 450 587 l 1,6,-1
 175 587 l 1,7,-1
 175 385 l 1,8,-1
 434 385 l 1,9,-1
 434 306 l 1,10,-1
 175 306 l 1,11,-1
 175 81 l 1,0,-1
186 839 m 128,-1,13
 209 839 209 839 225 823.5 c 128,-1,14
 241 808 241 808 241 785 c 128,-1,15
 241 762 241 762 225 745 c 128,-1,16
 209 728 209 728 186.5 728 c 128,-1,17
 164 728 164 728 147.5 745 c 128,-1,18
 131 762 131 762 131 784.5 c 128,-1,19
 131 807 131 807 147 823 c 128,-1,12
 163 839 163 839 186 839 c 128,-1,13
351 839 m 128,-1,21
 374 839 374 839 390 823.5 c 128,-1,22
 406 808 406 808 406 785 c 128,-1,23
 406 762 406 762 390 745 c 128,-1,24
 374 728 374 728 351.5 728 c 128,-1,25
 329 728 329 728 312.5 745 c 128,-1,26
 296 762 296 762 296 784.5 c 128,-1,27
 296 807 296 807 312 823 c 128,-1,20
 328 839 328 839 351 839 c 128,-1,21
EndSplineSet
EndChar

StartChar: Igrave
Encoding: 204 204 143
Width: 254
GlyphClass: 2
Flags: W
LayerCount: 2
Fore
SplineSet
175 668 m 1,0,-1
 175 0 l 1,1,-1
 79 0 l 1,2,-1
 79 668 l 1,3,-1
 175 668 l 1,0,-1
165 726 m 1,4,-1
 -7 830 l 1,5,-1
 41 903 l 1,6,-1
 201 781 l 1,7,-1
 165 726 l 1,4,-1
EndSplineSet
EndChar

StartChar: Iacute
Encoding: 205 205 144
Width: 254
GlyphClass: 2
Flags: W
LayerCount: 2
Fore
SplineSet
175 668 m 1,0,-1
 175 0 l 1,1,-1
 79 0 l 1,2,-1
 79 668 l 1,3,-1
 175 668 l 1,0,-1
255 832 m 1,4,-1
 83 728 l 1,5,-1
 47 783 l 1,6,-1
 207 905 l 1,7,-1
 255 832 l 1,4,-1
EndSplineSet
EndChar

StartChar: Icircumflex
Encoding: 206 206 145
Width: 254
GlyphClass: 2
Flags: W
LayerCount: 2
Fore
SplineSet
175 668 m 1,0,-1
 175 0 l 1,1,-1
 79 0 l 1,2,-1
 79 668 l 1,3,-1
 175 668 l 1,0,-1
117 800 m 1,4,-1
 32 714 l 1,5,-1
 -16 750 l 1,6,-1
 83 860 l 1,7,-1
 148 860 l 1,8,-1
 248 750 l 1,9,-1
 197 714 l 1,10,-1
 117 800 l 1,4,-1
EndSplineSet
EndChar

StartChar: Idieresis
Encoding: 207 207 146
Width: 254
GlyphClass: 2
Flags: W
LayerCount: 2
Fore
SplineSet
175 668 m 1,0,-1
 175 0 l 1,1,-1
 79 0 l 1,2,-1
 79 668 l 1,3,-1
 175 668 l 1,0,-1
35 839 m 128,-1,5
 58 839 58 839 74 823.5 c 128,-1,6
 90 808 90 808 90 785 c 128,-1,7
 90 762 90 762 74 745 c 128,-1,8
 58 728 58 728 35.5 728 c 128,-1,9
 13 728 13 728 -3.5 745 c 128,-1,10
 -20 762 -20 762 -20 784.5 c 128,-1,11
 -20 807 -20 807 -4 823 c 128,-1,4
 12 839 12 839 35 839 c 128,-1,5
200 839 m 128,-1,13
 223 839 223 839 239 823.5 c 128,-1,14
 255 808 255 808 255 785 c 128,-1,15
 255 762 255 762 239 745 c 128,-1,16
 223 728 223 728 200.5 728 c 128,-1,17
 178 728 178 728 161.5 745 c 128,-1,18
 145 762 145 762 145 784.5 c 128,-1,19
 145 807 145 807 161 823 c 128,-1,12
 177 839 177 839 200 839 c 128,-1,13
EndSplineSet
EndChar

StartChar: Eth
Encoding: 208 208 147
Width: 629
GlyphClass: 2
Flags: W
LayerCount: 2
Fore
SplineSet
15 305 m 1,0,-1
 15 384 l 1,1,-1
 99 384 l 1,2,-1
 99 668 l 1,3,-1
 270 668 l 2,4,5
 393 668 393 668 447 640 c 1,6,7
 511 604 511 604 544 520.5 c 128,-1,8
 577 437 577 437 577 333 c 128,-1,9
 577 229 577 229 544.5 146.5 c 128,-1,10
 512 64 512 64 447 27 c 1,11,12
 395 0 395 0 270 0 c 2,13,-1
 99 0 l 1,14,-1
 99 305 l 1,15,-1
 15 305 l 1,0,-1
195 587 m 1,16,-1
 195 384 l 1,17,-1
 352 385 l 1,18,-1
 352 306 l 1,19,-1
 195 305 l 1,20,-1
 195 81 l 1,21,-1
 278 81 l 2,22,23
 396 81 396 81 438 142 c 128,-1,24
 480 203 480 203 480 334 c 128,-1,25
 480 465 480 465 438 526 c 128,-1,26
 396 587 396 587 278 587 c 2,27,-1
 195 587 l 1,16,-1
EndSplineSet
EndChar

StartChar: Ntilde
Encoding: 209 209 148
Width: 659
GlyphClass: 2
Flags: W
LayerCount: 2
Fore
SplineSet
580 0 m 1,0,-1
 482 0 l 1,1,-1
 166 541 l 1,2,3
 170 502 170 502 170 457 c 2,4,-1
 170 0 l 1,5,-1
 79 0 l 1,6,-1
 79 668 l 1,7,-1
 177 668 l 1,8,-1
 493 127 l 1,9,10
 489 166 489 166 489 211 c 2,11,-1
 489 668 l 1,12,-1
 580 668 l 1,13,-1
 580 0 l 1,0,-1
188 823.5 m 128,-1,15
 214 844 214 844 238 844 c 128,-1,16
 262 844 262 844 308.5 822.5 c 128,-1,17
 355 801 355 801 374.5 801 c 128,-1,18
 394 801 394 801 431 843 c 1,19,-1
 474 807 l 1,20,21
 454 773 454 773 424 751.5 c 128,-1,22
 394 730 394 730 369 730 c 128,-1,23
 344 730 344 730 300 751.5 c 128,-1,24
 256 773 256 773 237 773 c 128,-1,25
 218 773 218 773 187 736 c 1,26,-1
 143 773 l 1,27,14
 162 803 162 803 188 823.5 c 128,-1,15
EndSplineSet
EndChar

StartChar: Ograve
Encoding: 210 210 149
Width: 621
GlyphClass: 2
Flags: W
LayerCount: 2
Fore
SplineSet
311 681 m 128,-1,1
 380 681 380 681 432 652 c 128,-1,2
 484 623 484 623 513 573 c 0,3,4
 570 475 570 475 570 334 c 0,5,6
 570 196 570 196 512 96 c 0,7,8
 482 45 482 45 430 16 c 128,-1,9
 378 -13 378 -13 308.5 -13 c 128,-1,10
 239 -13 239 -13 188 16 c 128,-1,11
 137 45 137 45 108 95 c 0,12,13
 51 193 51 193 51 334 c 0,14,15
 51 474 51 474 110 573 c 0,16,17
 139 623 139 623 190.5 652 c 128,-1,0
 242 681 242 681 311 681 c 128,-1,1
310 72 m 128,-1,19
 393 72 393 72 432.5 145 c 128,-1,20
 472 218 472 218 472 334.5 c 128,-1,21
 472 451 472 451 432.5 523.5 c 128,-1,22
 393 596 393 596 310 596 c 128,-1,23
 227 596 227 596 187.5 523.5 c 128,-1,24
 148 451 148 451 148 334.5 c 128,-1,25
 148 218 148 218 187.5 145 c 128,-1,18
 227 72 227 72 310 72 c 128,-1,19
371 726 m 1,26,-1
 199 830 l 1,27,-1
 247 903 l 1,28,-1
 407 781 l 1,29,-1
 371 726 l 1,26,-1
EndSplineSet
EndChar

StartChar: Oacute
Encoding: 211 211 150
Width: 621
GlyphClass: 2
Flags: W
LayerCount: 2
Fore
SplineSet
311 681 m 128,-1,1
 380 681 380 681 432 652 c 128,-1,2
 484 623 484 623 513 573 c 0,3,4
 570 475 570 475 570 334 c 0,5,6
 570 196 570 196 512 96 c 0,7,8
 482 45 482 45 430 16 c 128,-1,9
 378 -13 378 -13 308.5 -13 c 128,-1,10
 239 -13 239 -13 188 16 c 128,-1,11
 137 45 137 45 108 95 c 0,12,13
 51 193 51 193 51 334 c 0,14,15
 51 474 51 474 110 573 c 0,16,17
 139 623 139 623 190.5 652 c 128,-1,0
 242 681 242 681 311 681 c 128,-1,1
310 72 m 128,-1,19
 393 72 393 72 432.5 145 c 128,-1,20
 472 218 472 218 472 334.5 c 128,-1,21
 472 451 472 451 432.5 523.5 c 128,-1,22
 393 596 393 596 310 596 c 128,-1,23
 227 596 227 596 187.5 523.5 c 128,-1,24
 148 451 148 451 148 334.5 c 128,-1,25
 148 218 148 218 187.5 145 c 128,-1,18
 227 72 227 72 310 72 c 128,-1,19
429 832 m 1,26,-1
 257 728 l 1,27,-1
 221 783 l 1,28,-1
 381 905 l 1,29,-1
 429 832 l 1,26,-1
EndSplineSet
EndChar

StartChar: Ocircumflex
Encoding: 212 212 151
Width: 621
GlyphClass: 2
Flags: W
LayerCount: 2
Fore
SplineSet
311 681 m 128,-1,1
 380 681 380 681 432 652 c 128,-1,2
 484 623 484 623 513 573 c 0,3,4
 570 475 570 475 570 334 c 0,5,6
 570 196 570 196 512 96 c 0,7,8
 482 45 482 45 430 16 c 128,-1,9
 378 -13 378 -13 308.5 -13 c 128,-1,10
 239 -13 239 -13 188 16 c 128,-1,11
 137 45 137 45 108 95 c 0,12,13
 51 193 51 193 51 334 c 0,14,15
 51 474 51 474 110 573 c 0,16,17
 139 623 139 623 190.5 652 c 128,-1,0
 242 681 242 681 311 681 c 128,-1,1
310 72 m 128,-1,19
 393 72 393 72 432.5 145 c 128,-1,20
 472 218 472 218 472 334.5 c 128,-1,21
 472 451 472 451 432.5 523.5 c 128,-1,22
 393 596 393 596 310 596 c 128,-1,23
 227 596 227 596 187.5 523.5 c 128,-1,24
 148 451 148 451 148 334.5 c 128,-1,25
 148 218 148 218 187.5 145 c 128,-1,18
 227 72 227 72 310 72 c 128,-1,19
315 800 m 1,26,-1
 230 714 l 1,27,-1
 182 750 l 1,28,-1
 281 860 l 1,29,-1
 346 860 l 1,30,-1
 446 750 l 1,31,-1
 395 714 l 1,32,-1
 315 800 l 1,26,-1
EndSplineSet
EndChar

StartChar: Otilde
Encoding: 213 213 152
Width: 621
GlyphClass: 2
Flags: W
LayerCount: 2
Fore
SplineSet
311 681 m 128,-1,1
 380 681 380 681 432 652 c 128,-1,2
 484 623 484 623 513 573 c 0,3,4
 570 475 570 475 570 334 c 0,5,6
 570 196 570 196 512 96 c 0,7,8
 482 45 482 45 430 16 c 128,-1,9
 378 -13 378 -13 308.5 -13 c 128,-1,10
 239 -13 239 -13 188 16 c 128,-1,11
 137 45 137 45 108 95 c 0,12,13
 51 193 51 193 51 334 c 0,14,15
 51 474 51 474 110 573 c 0,16,17
 139 623 139 623 190.5 652 c 128,-1,0
 242 681 242 681 311 681 c 128,-1,1
310 72 m 128,-1,19
 393 72 393 72 432.5 145 c 128,-1,20
 472 218 472 218 472 334.5 c 128,-1,21
 472 451 472 451 432.5 523.5 c 128,-1,22
 393 596 393 596 310 596 c 128,-1,23
 227 596 227 596 187.5 523.5 c 128,-1,24
 148 451 148 451 148 334.5 c 128,-1,25
 148 218 148 218 187.5 145 c 128,-1,18
 227 72 227 72 310 72 c 128,-1,19
196 823.5 m 128,-1,27
 222 844 222 844 246 844 c 128,-1,28
 270 844 270 844 316.5 822.5 c 128,-1,29
 363 801 363 801 382.5 801 c 128,-1,30
 402 801 402 801 439 843 c 1,31,-1
 482 807 l 1,32,33
 462 773 462 773 432 751.5 c 128,-1,34
 402 730 402 730 377 730 c 128,-1,35
 352 730 352 730 308 751.5 c 128,-1,36
 264 773 264 773 245 773 c 128,-1,37
 226 773 226 773 195 736 c 1,38,-1
 151 773 l 1,39,26
 170 803 170 803 196 823.5 c 128,-1,27
EndSplineSet
EndChar

StartChar: Odieresis
Encoding: 214 214 153
Width: 621
GlyphClass: 2
Flags: W
LayerCount: 2
Fore
SplineSet
311 681 m 128,-1,1
 380 681 380 681 432 652 c 128,-1,2
 484 623 484 623 513 573 c 0,3,4
 570 475 570 475 570 334 c 0,5,6
 570 196 570 196 512 96 c 0,7,8
 482 45 482 45 430 16 c 128,-1,9
 378 -13 378 -13 308.5 -13 c 128,-1,10
 239 -13 239 -13 188 16 c 128,-1,11
 137 45 137 45 108 95 c 0,12,13
 51 193 51 193 51 334 c 0,14,15
 51 474 51 474 110 573 c 0,16,17
 139 623 139 623 190.5 652 c 128,-1,0
 242 681 242 681 311 681 c 128,-1,1
310 72 m 128,-1,19
 393 72 393 72 432.5 145 c 128,-1,20
 472 218 472 218 472 334.5 c 128,-1,21
 472 451 472 451 432.5 523.5 c 128,-1,22
 393 596 393 596 310 596 c 128,-1,23
 227 596 227 596 187.5 523.5 c 128,-1,24
 148 451 148 451 148 334.5 c 128,-1,25
 148 218 148 218 187.5 145 c 128,-1,18
 227 72 227 72 310 72 c 128,-1,19
219 839 m 128,-1,27
 242 839 242 839 258 823.5 c 128,-1,28
 274 808 274 808 274 785 c 128,-1,29
 274 762 274 762 258 745 c 128,-1,30
 242 728 242 728 219.5 728 c 128,-1,31
 197 728 197 728 180.5 745 c 128,-1,32
 164 762 164 762 164 784.5 c 128,-1,33
 164 807 164 807 180 823 c 128,-1,26
 196 839 196 839 219 839 c 128,-1,27
384 839 m 128,-1,35
 407 839 407 839 423 823.5 c 128,-1,36
 439 808 439 808 439 785 c 128,-1,37
 439 762 439 762 423 745 c 128,-1,38
 407 728 407 728 384.5 728 c 128,-1,39
 362 728 362 728 345.5 745 c 128,-1,40
 329 762 329 762 329 784.5 c 128,-1,41
 329 807 329 807 345 823 c 128,-1,34
 361 839 361 839 384 839 c 128,-1,35
EndSplineSet
EndChar

StartChar: multiply
Encoding: 215 215 154
Width: 510
GlyphClass: 2
Flags: W
LayerCount: 2
Fore
SplineSet
463 153 m 1,0,-1
 407 97 l 1,1,-1
 256 246 l 1,2,-1
 105 95 l 1,3,-1
 48 151 l 1,4,-1
 198 301 l 1,5,-1
 49 449 l 1,6,-1
 106 506 l 1,7,-1
 254 358 l 1,8,-1
 403 506 l 1,9,-1
 462 452 l 1,10,-1
 313 303 l 1,11,-1
 463 153 l 1,0,-1
EndSplineSet
EndChar

StartChar: Oslash
Encoding: 216 216 155
Width: 621
GlyphClass: 2
Flags: W
LayerCount: 2
Fore
SplineSet
570 334 m 0,0,1
 570 196 570 196 512 96 c 0,2,3
 482 45 482 45 430 16 c 128,-1,4
 378 -13 378 -13 320 -13 c 128,-1,5
 262 -13 262 -13 217 2 c 1,6,-1
 169 -116 l 1,7,-1
 96 -90 l 1,8,-1
 151 43 l 1,9,10
 51 132 51 132 51 334 c 0,11,12
 51 474 51 474 110 573 c 0,13,14
 139 623 139 623 190.5 652 c 128,-1,15
 242 681 242 681 302.5 681 c 128,-1,16
 363 681 363 681 406 664 c 1,17,-1
 446 761 l 1,18,-1
 517 736 l 1,19,-1
 471 623 l 1,20,21
 570 534 570 534 570 334 c 0,0,1
187.5 523.5 m 128,-1,23
 148 451 148 451 148 330 c 128,-1,24
 148 209 148 209 191 140 c 1,25,-1
 372 582 l 1,26,27
 344 596 344 596 310 596 c 0,28,22
 227 596 227 596 187.5 523.5 c 128,-1,23
310 72 m 0,29,30
 393 72 393 72 432.5 145 c 128,-1,31
 472 218 472 218 472 338 c 128,-1,32
 472 458 472 458 431 526 c 1,33,-1
 251 84 l 1,34,35
 276 72 276 72 310 72 c 0,29,30
EndSplineSet
EndChar

StartChar: Ugrave
Encoding: 217 217 156
Width: 609
GlyphClass: 2
Flags: W
LayerCount: 2
Fore
SplineSet
75 245 m 2,0,-1
 75 668 l 1,1,-1
 171 668 l 1,2,-1
 171 259 l 2,3,4
 171 155 171 155 197 120 c 1,5,6
 225 73 225 73 303.5 73 c 128,-1,7
 382 73 382 73 411 120 c 1,8,9
 438 157 438 157 438 259 c 2,10,-1
 438 668 l 1,11,-1
 534 668 l 1,12,-1
 534 245 l 2,13,14
 534 128 534 128 489 64 c 1,15,16
 434 -11 434 -11 306 -12 c 128,-1,17
 178 -13 178 -13 120 64 c 1,18,19
 75 128 75 128 75 245 c 2,0,-1
358 726 m 1,20,-1
 186 830 l 1,21,-1
 234 903 l 1,22,-1
 394 781 l 1,23,-1
 358 726 l 1,20,-1
EndSplineSet
EndChar

StartChar: Uacute
Encoding: 218 218 157
Width: 609
GlyphClass: 2
Flags: W
LayerCount: 2
Fore
SplineSet
75 245 m 2,0,-1
 75 668 l 1,1,-1
 171 668 l 1,2,-1
 171 259 l 2,3,4
 171 155 171 155 197 120 c 1,5,6
 225 73 225 73 303.5 73 c 128,-1,7
 382 73 382 73 411 120 c 1,8,9
 438 157 438 157 438 259 c 2,10,-1
 438 668 l 1,11,-1
 534 668 l 1,12,-1
 534 245 l 2,13,14
 534 128 534 128 489 64 c 1,15,16
 434 -11 434 -11 306 -12 c 128,-1,17
 178 -13 178 -13 120 64 c 1,18,19
 75 128 75 128 75 245 c 2,0,-1
438 832 m 1,20,-1
 266 728 l 1,21,-1
 230 783 l 1,22,-1
 390 905 l 1,23,-1
 438 832 l 1,20,-1
EndSplineSet
EndChar

StartChar: Ucircumflex
Encoding: 219 219 158
Width: 609
GlyphClass: 2
Flags: W
LayerCount: 2
Fore
SplineSet
75 245 m 2,0,-1
 75 668 l 1,1,-1
 171 668 l 1,2,-1
 171 259 l 2,3,4
 171 155 171 155 197 120 c 1,5,6
 225 73 225 73 303.5 73 c 128,-1,7
 382 73 382 73 411 120 c 1,8,9
 438 157 438 157 438 259 c 2,10,-1
 438 668 l 1,11,-1
 534 668 l 1,12,-1
 534 245 l 2,13,14
 534 128 534 128 489 64 c 1,15,16
 434 -11 434 -11 306 -12 c 128,-1,17
 178 -13 178 -13 120 64 c 1,18,19
 75 128 75 128 75 245 c 2,0,-1
307 800 m 1,20,-1
 222 714 l 1,21,-1
 174 750 l 1,22,-1
 273 860 l 1,23,-1
 338 860 l 1,24,-1
 438 750 l 1,25,-1
 387 714 l 1,26,-1
 307 800 l 1,20,-1
EndSplineSet
EndChar

StartChar: Udieresis
Encoding: 220 220 159
Width: 609
GlyphClass: 2
Flags: W
LayerCount: 2
Fore
SplineSet
75 245 m 2,0,-1
 75 668 l 1,1,-1
 171 668 l 1,2,-1
 171 259 l 2,3,4
 171 155 171 155 197 120 c 1,5,6
 225 73 225 73 303.5 73 c 128,-1,7
 382 73 382 73 411 120 c 1,8,9
 438 157 438 157 438 259 c 2,10,-1
 438 668 l 1,11,-1
 534 668 l 1,12,-1
 534 245 l 2,13,14
 534 128 534 128 489 64 c 1,15,16
 434 -11 434 -11 306 -12 c 128,-1,17
 178 -13 178 -13 120 64 c 1,18,19
 75 128 75 128 75 245 c 2,0,-1
223 839 m 128,-1,21
 246 839 246 839 262 823.5 c 128,-1,22
 278 808 278 808 278 785 c 128,-1,23
 278 762 278 762 262 745 c 128,-1,24
 246 728 246 728 223.5 728 c 128,-1,25
 201 728 201 728 184.5 745 c 128,-1,26
 168 762 168 762 168 784.5 c 128,-1,27
 168 807 168 807 184 823 c 128,-1,20
 200 839 200 839 223 839 c 128,-1,21
388 839 m 128,-1,29
 411 839 411 839 427 823.5 c 128,-1,30
 443 808 443 808 443 785 c 128,-1,31
 443 762 443 762 427 745 c 128,-1,32
 411 728 411 728 388.5 728 c 128,-1,33
 366 728 366 728 349.5 745 c 128,-1,34
 333 762 333 762 333 784.5 c 128,-1,35
 333 807 333 807 349 823 c 128,-1,28
 365 839 365 839 388 839 c 128,-1,29
EndSplineSet
EndChar

StartChar: Yacute
Encoding: 221 221 160
Width: 521
GlyphClass: 2
Flags: W
LayerCount: 2
Fore
SplineSet
309 0 m 1,0,-1
 213 0 l 1,1,-1
 213 275 l 1,2,-1
 3 668 l 1,3,-1
 111 668 l 1,4,-1
 261 353 l 1,5,-1
 415 668 l 1,6,-1
 516 668 l 1,7,-1
 309 275 l 1,8,-1
 309 0 l 1,0,-1
401 832 m 1,9,-1
 229 728 l 1,10,-1
 193 783 l 1,11,-1
 353 905 l 1,12,-1
 401 832 l 1,9,-1
EndSplineSet
EndChar

StartChar: Thorn
Encoding: 222 222 161
Width: 517
GlyphClass: 2
Flags: W
LayerCount: 2
Fore
SplineSet
429 540 m 0,0,1
 485 491 485 491 485 391 c 128,-1,2
 485 291 485 291 424 244 c 0,3,4
 389 216 389 216 339 205 c 128,-1,5
 289 194 289 194 202 194 c 2,6,-1
 149 194 l 1,7,-1
 149 0 l 1,8,-1
 79 0 l 1,9,-1
 79 700 l 1,10,-1
 149 700 l 1,11,-1
 149 594 l 1,12,-1
 229 594 l 2,13,14
 306 594 306 594 350.5 582 c 128,-1,15
 395 570 395 570 429 540 c 0,0,1
365 281 m 0,16,17
 413 315 413 315 413 388 c 128,-1,18
 413 461 413 461 374.5 498 c 128,-1,19
 336 535 336 535 230 535 c 2,20,-1
 149 535 l 1,21,-1
 149 253 l 1,22,-1
 214 253 l 2,23,24
 326 253 326 253 365 281 c 0,16,17
EndSplineSet
EndChar

StartChar: germandbls
Encoding: 223 223 162
Width: 580
GlyphClass: 2
Flags: W
LayerCount: 2
Fore
SplineSet
263 310.5 m 128,-1,1
 254 334 254 334 254 364 c 128,-1,2
 254 394 254 394 265.5 417 c 128,-1,3
 277 440 277 440 293.5 455.5 c 128,-1,4
 310 471 310 471 327 486 c 0,5,6
 367 520 367 520 367 556 c 0,7,8
 367 634 367 634 279 634 c 0,9,10
 217 634 217 634 188 601.5 c 128,-1,11
 159 569 159 569 159 500 c 2,12,-1
 159 -136 l 1,13,-1
 68 -135 l 1,14,-1
 68 502 l 2,15,16
 68 607 68 607 125 658.5 c 128,-1,17
 182 710 182 710 274.5 710 c 128,-1,18
 367 710 367 710 412 667.5 c 128,-1,19
 457 625 457 625 457 561 c 0,20,21
 457 526 457 526 439 496.5 c 128,-1,22
 421 467 421 467 399 450 c 0,23,24
 341 405 341 405 341 373 c 0,25,26
 341 337 341 337 364 318 c 1,27,28
 382 305 382 305 414 289 c 1,29,30
 446 276 446 276 464 266.5 c 128,-1,31
 482 257 482 257 506 238 c 0,32,33
 551 203 551 203 551 135 c 128,-1,34
 551 67 551 67 506 27 c 128,-1,35
 461 -13 461 -13 384 -13 c 0,36,37
 344 -13 344 -13 294.5 0.5 c 128,-1,38
 245 14 245 14 223 31 c 1,39,-1
 246 98 l 1,40,41
 321 61 321 61 392.5 61 c 128,-1,42
 464 61 464 61 464 131 c 0,43,44
 464 152 464 152 449.5 169.5 c 128,-1,45
 435 187 435 187 420 195.5 c 128,-1,46
 405 204 405 204 375 218.5 c 128,-1,47
 345 233 345 233 330 242 c 128,-1,48
 315 251 315 251 293.5 269 c 128,-1,0
 272 287 272 287 263 310.5 c 128,-1,1
EndSplineSet
EndChar

StartChar: agrave
Encoding: 224 224 163
Width: 487
GlyphClass: 2
Flags: W
LayerCount: 2
Fore
SplineSet
176 -13 m 0,0,1
 111 -13 111 -13 72.5 25 c 128,-1,2
 34 63 34 63 34 127 c 0,3,4
 34 169 34 169 52 198 c 128,-1,5
 70 227 70 227 99 241 c 0,6,7
 151 266 151 266 208 266 c 128,-1,8
 265 266 265 266 314 261 c 1,9,-1
 314 339 l 2,10,11
 314 397 314 397 294.5 418.5 c 128,-1,12
 275 440 275 440 220 440 c 128,-1,13
 165 440 165 440 89 413 c 1,14,-1
 68 476 l 1,15,16
 97 494 97 494 144.5 505 c 128,-1,17
 192 516 192 516 227 516 c 0,18,19
 324 516 324 516 364 474 c 128,-1,20
 404 432 404 432 404 333 c 2,21,-1
 404 90 l 2,22,23
 404 55 404 55 428 55 c 0,24,25
 444 55 444 55 472 64 c 1,26,-1
 487 8 l 1,27,28
 453 -14 453 -14 399 -14 c 128,-1,29
 345 -14 345 -14 321 37 c 1,30,31
 299 16 299 16 259.5 1.5 c 128,-1,32
 220 -13 220 -13 176 -13 c 0,0,1
195 58 m 0,33,34
 258 58 258 58 314 94 c 1,35,-1
 314 210 l 1,36,37
 290 214 290 214 236 214 c 0,38,39
 119 214 119 214 118 136 c 0,40,41
 118 58 118 58 195 58 c 0,33,34
293 577 m 1,42,-1
 121 681 l 1,43,-1
 169 754 l 1,44,-1
 329 632 l 1,45,-1
 293 577 l 1,42,-1
EndSplineSet
EndChar

StartChar: aacute
Encoding: 225 225 164
Width: 487
GlyphClass: 2
Flags: W
LayerCount: 2
Fore
SplineSet
176 -13 m 0,0,1
 111 -13 111 -13 72.5 25 c 128,-1,2
 34 63 34 63 34 127 c 0,3,4
 34 169 34 169 52 198 c 128,-1,5
 70 227 70 227 99 241 c 0,6,7
 151 266 151 266 208 266 c 128,-1,8
 265 266 265 266 314 261 c 1,9,-1
 314 339 l 2,10,11
 314 397 314 397 294.5 418.5 c 128,-1,12
 275 440 275 440 220 440 c 128,-1,13
 165 440 165 440 89 413 c 1,14,-1
 68 476 l 1,15,16
 97 494 97 494 144.5 505 c 128,-1,17
 192 516 192 516 227 516 c 0,18,19
 324 516 324 516 364 474 c 128,-1,20
 404 432 404 432 404 333 c 2,21,-1
 404 90 l 2,22,23
 404 55 404 55 428 55 c 0,24,25
 444 55 444 55 472 64 c 1,26,-1
 487 8 l 1,27,28
 453 -14 453 -14 399 -14 c 128,-1,29
 345 -14 345 -14 321 37 c 1,30,31
 299 16 299 16 259.5 1.5 c 128,-1,32
 220 -13 220 -13 176 -13 c 0,0,1
195 58 m 0,33,34
 258 58 258 58 314 94 c 1,35,-1
 314 210 l 1,36,37
 290 214 290 214 236 214 c 0,38,39
 119 214 119 214 118 136 c 0,40,41
 118 58 118 58 195 58 c 0,33,34
331 681 m 1,42,-1
 159 577 l 1,43,-1
 123 632 l 1,44,-1
 283 754 l 1,45,-1
 331 681 l 1,42,-1
EndSplineSet
EndChar

StartChar: acircumflex
Encoding: 226 226 165
Width: 487
GlyphClass: 2
Flags: W
LayerCount: 2
Fore
SplineSet
176 -13 m 0,0,1
 111 -13 111 -13 72.5 25 c 128,-1,2
 34 63 34 63 34 127 c 0,3,4
 34 169 34 169 52 198 c 128,-1,5
 70 227 70 227 99 241 c 0,6,7
 151 266 151 266 208 266 c 128,-1,8
 265 266 265 266 314 261 c 1,9,-1
 314 339 l 2,10,11
 314 397 314 397 294.5 418.5 c 128,-1,12
 275 440 275 440 220 440 c 128,-1,13
 165 440 165 440 89 413 c 1,14,-1
 68 476 l 1,15,16
 97 494 97 494 144.5 505 c 128,-1,17
 192 516 192 516 227 516 c 0,18,19
 324 516 324 516 364 474 c 128,-1,20
 404 432 404 432 404 333 c 2,21,-1
 404 90 l 2,22,23
 404 55 404 55 428 55 c 0,24,25
 444 55 444 55 472 64 c 1,26,-1
 487 8 l 1,27,28
 453 -14 453 -14 399 -14 c 128,-1,29
 345 -14 345 -14 321 37 c 1,30,31
 299 16 299 16 259.5 1.5 c 128,-1,32
 220 -13 220 -13 176 -13 c 0,0,1
195 58 m 0,33,34
 258 58 258 58 314 94 c 1,35,-1
 314 210 l 1,36,37
 290 214 290 214 236 214 c 0,38,39
 119 214 119 214 118 136 c 0,40,41
 118 58 118 58 195 58 c 0,33,34
237 667 m 1,42,-1
 152 581 l 1,43,-1
 104 617 l 1,44,-1
 203 727 l 1,45,-1
 268 727 l 1,46,-1
 368 617 l 1,47,-1
 317 581 l 1,48,-1
 237 667 l 1,42,-1
EndSplineSet
EndChar

StartChar: atilde
Encoding: 227 227 166
Width: 487
GlyphClass: 2
Flags: W
LayerCount: 2
Fore
SplineSet
105 680.5 m 128,-1,1
 131 701 131 701 155 701 c 128,-1,2
 179 701 179 701 225.5 679.5 c 128,-1,3
 272 658 272 658 291.5 658 c 128,-1,4
 311 658 311 658 348 700 c 1,5,-1
 391 664 l 1,6,7
 371 630 371 630 341 608.5 c 128,-1,8
 311 587 311 587 286 587 c 128,-1,9
 261 587 261 587 217 608.5 c 128,-1,10
 173 630 173 630 154 630 c 128,-1,11
 135 630 135 630 104 593 c 1,12,-1
 60 630 l 1,13,0
 79 660 79 660 105 680.5 c 128,-1,1
176 -13 m 0,14,15
 111 -13 111 -13 72.5 25 c 128,-1,16
 34 63 34 63 34 127 c 0,17,18
 34 169 34 169 52 198 c 128,-1,19
 70 227 70 227 99 241 c 0,20,21
 151 266 151 266 208 266 c 128,-1,22
 265 266 265 266 314 261 c 1,23,-1
 314 339 l 2,24,25
 314 397 314 397 294.5 418.5 c 128,-1,26
 275 440 275 440 220 440 c 128,-1,27
 165 440 165 440 89 413 c 1,28,-1
 68 476 l 1,29,30
 97 494 97 494 144.5 505 c 128,-1,31
 192 516 192 516 227 516 c 0,32,33
 324 516 324 516 364 474 c 128,-1,34
 404 432 404 432 404 333 c 2,35,-1
 404 90 l 2,36,37
 404 55 404 55 428 55 c 0,38,39
 444 55 444 55 472 64 c 1,40,-1
 487 8 l 1,41,42
 453 -14 453 -14 399 -14 c 128,-1,43
 345 -14 345 -14 321 37 c 1,44,45
 299 16 299 16 259.5 1.5 c 128,-1,46
 220 -13 220 -13 176 -13 c 0,14,15
195 58 m 0,47,48
 258 58 258 58 314 94 c 1,49,-1
 314 210 l 1,50,51
 290 214 290 214 236 214 c 0,52,53
 119 214 119 214 118 136 c 0,54,55
 118 58 118 58 195 58 c 0,47,48
EndSplineSet
EndChar

StartChar: adieresis
Encoding: 228 228 167
Width: 487
GlyphClass: 2
Flags: W
LayerCount: 2
Fore
SplineSet
148 707 m 128,-1,1
 171 707 171 707 187 691.5 c 128,-1,2
 203 676 203 676 203 653 c 128,-1,3
 203 630 203 630 187 613 c 128,-1,4
 171 596 171 596 148.5 596 c 128,-1,5
 126 596 126 596 109.5 613 c 128,-1,6
 93 630 93 630 93 652.5 c 128,-1,7
 93 675 93 675 109 691 c 128,-1,0
 125 707 125 707 148 707 c 128,-1,1
313 707 m 128,-1,9
 336 707 336 707 352 691.5 c 128,-1,10
 368 676 368 676 368 653 c 128,-1,11
 368 630 368 630 352 613 c 128,-1,12
 336 596 336 596 313.5 596 c 128,-1,13
 291 596 291 596 274.5 613 c 128,-1,14
 258 630 258 630 258 652.5 c 128,-1,15
 258 675 258 675 274 691 c 128,-1,8
 290 707 290 707 313 707 c 128,-1,9
176 -13 m 0,16,17
 111 -13 111 -13 72.5 25 c 128,-1,18
 34 63 34 63 34 127 c 0,19,20
 34 169 34 169 52 198 c 128,-1,21
 70 227 70 227 99 241 c 0,22,23
 151 266 151 266 208 266 c 128,-1,24
 265 266 265 266 314 261 c 1,25,-1
 314 339 l 2,26,27
 314 397 314 397 294.5 418.5 c 128,-1,28
 275 440 275 440 220 440 c 128,-1,29
 165 440 165 440 89 413 c 1,30,-1
 68 476 l 1,31,32
 97 494 97 494 144.5 505 c 128,-1,33
 192 516 192 516 227 516 c 0,34,35
 324 516 324 516 364 474 c 128,-1,36
 404 432 404 432 404 333 c 2,37,-1
 404 90 l 2,38,39
 404 55 404 55 428 55 c 0,40,41
 444 55 444 55 472 64 c 1,42,-1
 487 8 l 1,43,44
 453 -14 453 -14 399 -14 c 128,-1,45
 345 -14 345 -14 321 37 c 1,46,47
 299 16 299 16 259.5 1.5 c 128,-1,48
 220 -13 220 -13 176 -13 c 0,16,17
195 58 m 0,49,50
 258 58 258 58 314 94 c 1,51,-1
 314 210 l 1,52,53
 290 214 290 214 236 214 c 0,54,55
 119 214 119 214 118 136 c 0,56,57
 118 58 118 58 195 58 c 0,49,50
EndSplineSet
EndChar

StartChar: aring
Encoding: 229 229 168
Width: 487
GlyphClass: 2
Flags: W
LayerCount: 2
Fore
SplineSet
176 -12 m 0,0,1
 111 -12 111 -12 72.5 26 c 128,-1,2
 34 64 34 64 34 128 c 0,3,4
 34 170 34 170 52 199 c 128,-1,5
 70 228 70 228 99 242 c 0,6,7
 151 267 151 267 208 267 c 128,-1,8
 265 267 265 267 314 262 c 1,9,-1
 314 340 l 2,10,11
 314 398 314 398 294.5 419.5 c 128,-1,12
 275 441 275 441 220 441 c 128,-1,13
 165 441 165 441 89 414 c 1,14,-1
 68 477 l 1,15,16
 97 495 97 495 144.5 506 c 128,-1,17
 192 517 192 517 227 517 c 0,18,19
 324 517 324 517 364 475 c 128,-1,20
 404 433 404 433 404 334 c 2,21,-1
 404 91 l 2,22,23
 404 56 404 56 428 56 c 0,24,25
 444 56 444 56 472 65 c 1,26,-1
 487 9 l 1,27,28
 453 -13 453 -13 399 -13 c 128,-1,29
 345 -13 345 -13 321 38 c 1,30,31
 299 17 299 17 259.5 2.5 c 128,-1,32
 220 -12 220 -12 176 -12 c 0,0,1
195 59 m 0,33,34
 258 59 258 59 314 95 c 1,35,-1
 314 211 l 1,36,37
 290 215 290 215 236 215 c 0,38,39
 119 215 119 215 118 137 c 0,40,41
 118 59 118 59 195 59 c 0,33,34
330 691 m 128,-1,43
 330 648 330 648 303 617.5 c 128,-1,44
 276 587 276 587 226 587 c 128,-1,45
 176 587 176 587 150 617 c 128,-1,46
 124 647 124 647 124 690 c 128,-1,47
 124 733 124 733 150.5 762.5 c 128,-1,48
 177 792 177 792 227 792 c 128,-1,49
 277 792 277 792 303.5 763 c 128,-1,42
 330 734 330 734 330 691 c 128,-1,43
260 656 m 128,-1,51
 271 671 271 671 271 690.5 c 128,-1,52
 271 710 271 710 260.5 724 c 128,-1,53
 250 738 250 738 227.5 738 c 128,-1,54
 205 738 205 738 194 724 c 128,-1,55
 183 710 183 710 183 690 c 128,-1,56
 183 670 183 670 193.5 655.5 c 128,-1,57
 204 641 204 641 226.5 641 c 128,-1,50
 249 641 249 641 260 656 c 128,-1,51
EndSplineSet
EndChar

StartChar: ae
Encoding: 230 230 169
Width: 748
GlyphClass: 2
Flags: W
LayerCount: 2
Fore
SplineSet
312 339 m 2,0,1
 312 397 312 397 292.5 418.5 c 128,-1,2
 273 440 273 440 217.5 440 c 128,-1,3
 162 440 162 440 86 413 c 1,4,-1
 65 476 l 1,5,6
 94 494 94 494 141.5 505 c 128,-1,7
 189 516 189 516 238 516 c 0,8,9
 347 516 347 516 376 437 c 1,10,11
 421 516 421 516 526 516 c 0,12,13
 611 516 611 516 656.5 469.5 c 128,-1,14
 702 423 702 423 702 345 c 0,15,16
 702 303 702 303 688 252 c 1,17,-1
 394 252 l 1,18,19
 396 167 396 167 432 114.5 c 128,-1,20
 468 62 468 62 538.5 62 c 128,-1,21
 609 62 609 62 675 99 c 1,22,-1
 703 36 l 1,23,24
 627 -13 627 -13 532 -13 c 128,-1,25
 437 -13 437 -13 377 54 c 1,26,27
 346 25 346 25 291 6 c 128,-1,28
 236 -13 236 -13 173.5 -13 c 128,-1,29
 111 -13 111 -13 73 25 c 128,-1,30
 35 63 35 63 35 127 c 0,31,32
 35 169 35 169 53 198 c 128,-1,33
 71 227 71 227 100 241 c 0,34,35
 152 266 152 266 208 266 c 128,-1,36
 264 266 264 266 312 261 c 1,37,-1
 312 339 l 2,0,1
237 214 m 0,38,39
 120 214 120 214 119 136 c 0,40,41
 119 60 119 60 196 58 c 0,42,43
 232 58 232 58 277.5 68.5 c 128,-1,44
 323 79 323 79 349 96 c 1,45,46
 322 146 322 146 314 210 c 1,47,48
 290 214 290 214 237 214 c 0,38,39
620 319 m 1,49,-1
 620 327 l 2,50,51
 620 381 620 381 597.5 411.5 c 128,-1,52
 575 442 575 442 536 442 c 128,-1,53
 497 442 497 442 472 428.5 c 128,-1,54
 447 415 447 415 433 393 c 0,55,56
 412 360 412 360 403 319 c 1,57,-1
 620 319 l 1,49,-1
EndSplineSet
EndChar

StartChar: ccedilla
Encoding: 231 231 170
Width: 434
GlyphClass: 2
Flags: W
LayerCount: 2
Fore
SplineSet
320 -113 m 0,0,1
 320 -192 320 -192 214 -255 c 1,2,-1
 173 -207 l 1,3,4
 243 -158 243 -158 243 -108 c 0,5,6
 243 -83 243 -83 225 -49 c 1,7,-1
 304 -49 l 1,8,9
 320 -83 320 -83 320 -113 c 0,0,1
277 -15 m 0,10,11
 176 -15 176 -15 110 51.5 c 128,-1,12
 44 118 44 118 44 250.5 c 128,-1,13
 44 383 44 383 110 449.5 c 128,-1,14
 176 516 176 516 272 516 c 0,15,16
 340 516 340 516 396 487 c 1,17,-1
 369 423 l 1,18,19
 316 440 316 440 274 440 c 0,20,21
 215 440 215 440 175.5 395 c 128,-1,22
 136 350 136 350 136 251 c 0,23,24
 136 62 136 62 291 62 c 0,25,26
 335 62 335 62 384 75 c 1,27,-1
 399 9 l 1,28,29
 335 -15 335 -15 277 -15 c 0,10,11
EndSplineSet
EndChar

StartChar: egrave
Encoding: 232 232 171
Width: 476
GlyphClass: 2
Flags: W
LayerCount: 2
Fore
SplineSet
265 -13 m 0,0,1
 153 -13 153 -13 98.5 63.5 c 128,-1,2
 44 140 44 140 44 255.5 c 128,-1,3
 44 371 44 371 102 443.5 c 128,-1,4
 160 516 160 516 261 516 c 0,5,6
 346 516 346 516 390.5 468.5 c 128,-1,7
 435 421 435 421 435 343 c 0,8,9
 435 308 435 308 420 253 c 1,10,-1
 126 253 l 1,11,12
 128 168 128 168 163 115 c 128,-1,13
 198 62 198 62 267.5 62 c 128,-1,14
 337 62 337 62 399 90 c 1,15,-1
 422 28 l 1,16,17
 350 -13 350 -13 265 -13 c 0,0,1
353 326 m 2,18,19
 353 380 353 380 331 411 c 128,-1,20
 309 442 309 442 270 442 c 128,-1,21
 231 442 231 442 205.5 428.5 c 128,-1,22
 180 415 180 415 166 394 c 1,23,24
 142 354 142 354 136 320 c 1,25,-1
 353 318 l 1,26,-1
 353 326 l 2,18,19
344 577 m 1,27,-1
 172 681 l 1,28,-1
 220 754 l 1,29,-1
 380 632 l 1,30,-1
 344 577 l 1,27,-1
EndSplineSet
EndChar

StartChar: eacute
Encoding: 233 233 172
Width: 476
GlyphClass: 2
Flags: W
LayerCount: 2
Fore
SplineSet
265 -13 m 0,0,1
 153 -13 153 -13 98.5 63.5 c 128,-1,2
 44 140 44 140 44 255.5 c 128,-1,3
 44 371 44 371 102 443.5 c 128,-1,4
 160 516 160 516 261 516 c 0,5,6
 346 516 346 516 390.5 468.5 c 128,-1,7
 435 421 435 421 435 343 c 0,8,9
 435 308 435 308 420 253 c 1,10,-1
 126 253 l 1,11,12
 128 168 128 168 163 115 c 128,-1,13
 198 62 198 62 267.5 62 c 128,-1,14
 337 62 337 62 399 90 c 1,15,-1
 422 28 l 1,16,17
 350 -13 350 -13 265 -13 c 0,0,1
353 326 m 2,18,19
 353 380 353 380 331 411 c 128,-1,20
 309 442 309 442 270 442 c 128,-1,21
 231 442 231 442 205.5 428.5 c 128,-1,22
 180 415 180 415 166 394 c 1,23,24
 142 354 142 354 136 320 c 1,25,-1
 353 318 l 1,26,-1
 353 326 l 2,18,19
356 681 m 1,27,-1
 184 577 l 1,28,-1
 148 632 l 1,29,-1
 308 754 l 1,30,-1
 356 681 l 1,27,-1
EndSplineSet
EndChar

StartChar: ecircumflex
Encoding: 234 234 173
Width: 476
GlyphClass: 2
Flags: W
LayerCount: 2
Fore
SplineSet
259 667 m 1,0,-1
 174 581 l 1,1,-1
 126 617 l 1,2,-1
 225 727 l 1,3,-1
 290 727 l 1,4,-1
 390 617 l 1,5,-1
 339 581 l 1,6,-1
 259 667 l 1,0,-1
399 90 m 1,7,-1
 422 28 l 1,8,9
 350 -13 350 -13 265 -13 c 0,10,11
 153 -13 153 -13 98.5 63.5 c 128,-1,12
 44 140 44 140 44 255.5 c 128,-1,13
 44 371 44 371 102 443.5 c 128,-1,14
 160 516 160 516 261 516 c 0,15,16
 346 516 346 516 390.5 468.5 c 128,-1,17
 435 421 435 421 435 343 c 0,18,19
 435 308 435 308 420 253 c 1,20,-1
 126 253 l 1,21,22
 128 168 128 168 163 115 c 128,-1,23
 198 62 198 62 267.5 62 c 128,-1,24
 337 62 337 62 399 90 c 1,7,-1
270 442 m 0,25,26
 197 442 197 442 166 394 c 1,27,28
 142 354 142 354 136 320 c 1,29,-1
 353 318 l 1,30,-1
 353 326 l 2,31,32
 353 380 353 380 331 411 c 128,-1,33
 309 442 309 442 270 442 c 0,25,26
EndSplineSet
EndChar

StartChar: edieresis
Encoding: 235 235 174
Width: 476
GlyphClass: 2
Flags: W
LayerCount: 2
Fore
SplineSet
181 707 m 128,-1,1
 204 707 204 707 220 691.5 c 128,-1,2
 236 676 236 676 236 653 c 128,-1,3
 236 630 236 630 220 613 c 128,-1,4
 204 596 204 596 181.5 596 c 128,-1,5
 159 596 159 596 142.5 613 c 128,-1,6
 126 630 126 630 126 652.5 c 128,-1,7
 126 675 126 675 142 691 c 128,-1,0
 158 707 158 707 181 707 c 128,-1,1
346 707 m 128,-1,9
 369 707 369 707 385 691.5 c 128,-1,10
 401 676 401 676 401 653 c 128,-1,11
 401 630 401 630 385 613 c 128,-1,12
 369 596 369 596 346.5 596 c 128,-1,13
 324 596 324 596 307.5 613 c 128,-1,14
 291 630 291 630 291 652.5 c 128,-1,15
 291 675 291 675 307 691 c 128,-1,8
 323 707 323 707 346 707 c 128,-1,9
265 -13 m 0,16,17
 153 -13 153 -13 98.5 63.5 c 128,-1,18
 44 140 44 140 44 255.5 c 128,-1,19
 44 371 44 371 102 443.5 c 128,-1,20
 160 516 160 516 261 516 c 0,21,22
 346 516 346 516 390.5 468.5 c 128,-1,23
 435 421 435 421 435 343 c 0,24,25
 435 308 435 308 420 253 c 1,26,-1
 126 253 l 1,27,28
 128 168 128 168 163 115 c 128,-1,29
 198 62 198 62 267.5 62 c 128,-1,30
 337 62 337 62 399 90 c 1,31,-1
 422 28 l 1,32,33
 350 -13 350 -13 265 -13 c 0,16,17
353 326 m 2,34,35
 353 380 353 380 331 411 c 128,-1,36
 309 442 309 442 270 442 c 128,-1,37
 231 442 231 442 205.5 428.5 c 128,-1,38
 180 415 180 415 166 394 c 1,39,40
 142 354 142 354 136 320 c 1,41,-1
 353 318 l 1,42,-1
 353 326 l 2,34,35
EndSplineSet
EndChar

StartChar: igrave
Encoding: 236 236 175
Width: 225
GlyphClass: 2
Flags: W
LayerCount: 2
Fore
SplineSet
158 0 m 1,0,-1
 67 0 l 1,1,-1
 67 502 l 1,2,-1
 158 511 l 1,3,-1
 158 0 l 1,0,-1
154 577 m 1,4,-1
 -18 681 l 1,5,-1
 30 754 l 1,6,-1
 190 632 l 1,7,-1
 154 577 l 1,4,-1
EndSplineSet
EndChar

StartChar: iacute
Encoding: 237 237 176
Width: 225
GlyphClass: 2
Flags: W
LayerCount: 2
Fore
SplineSet
158 0 m 1,0,-1
 67 0 l 1,1,-1
 67 502 l 1,2,-1
 158 511 l 1,3,-1
 158 0 l 1,0,-1
259 681 m 1,4,-1
 87 577 l 1,5,-1
 51 632 l 1,6,-1
 211 754 l 1,7,-1
 259 681 l 1,4,-1
EndSplineSet
EndChar

StartChar: icircumflex
Encoding: 238 238 177
Width: 225
GlyphClass: 2
Flags: W
LayerCount: 2
Fore
SplineSet
158 0 m 1,0,-1
 67 0 l 1,1,-1
 67 502 l 1,2,-1
 158 511 l 1,3,-1
 158 0 l 1,0,-1
120 667 m 1,4,-1
 35 581 l 1,5,-1
 -13 617 l 1,6,-1
 86 727 l 1,7,-1
 151 727 l 1,8,-1
 251 617 l 1,9,-1
 200 581 l 1,10,-1
 120 667 l 1,4,-1
EndSplineSet
EndChar

StartChar: idieresis
Encoding: 239 239 178
Width: 225
GlyphClass: 2
Flags: W
LayerCount: 2
Fore
SplineSet
158 0 m 1,0,-1
 67 0 l 1,1,-1
 67 502 l 1,2,-1
 158 511 l 1,3,-1
 158 0 l 1,0,-1
31 707 m 128,-1,5
 54 707 54 707 70 691.5 c 128,-1,6
 86 676 86 676 86 653 c 128,-1,7
 86 630 86 630 70 613 c 128,-1,8
 54 596 54 596 31.5 596 c 128,-1,9
 9 596 9 596 -7.5 613 c 128,-1,10
 -24 630 -24 630 -24 652.5 c 128,-1,11
 -24 675 -24 675 -8 691 c 128,-1,4
 8 707 8 707 31 707 c 128,-1,5
196 707 m 128,-1,13
 219 707 219 707 235 691.5 c 128,-1,14
 251 676 251 676 251 653 c 128,-1,15
 251 630 251 630 235 613 c 128,-1,16
 219 596 219 596 196.5 596 c 128,-1,17
 174 596 174 596 157.5 613 c 128,-1,18
 141 630 141 630 141 652.5 c 128,-1,19
 141 675 141 675 157 691 c 128,-1,12
 173 707 173 707 196 707 c 128,-1,13
EndSplineSet
EndChar

StartChar: eth
Encoding: 240 240 179
Width: 498
GlyphClass: 2
Flags: W
LayerCount: 2
Fore
SplineSet
99 55.5 m 128,-1,1
 46 124 46 124 46 231.5 c 128,-1,2
 46 339 46 339 92 407.5 c 128,-1,3
 138 476 138 476 219.5 476 c 128,-1,4
 301 476 301 476 344 443 c 1,5,6
 317 540 317 540 256 583 c 1,7,-1
 180 517 l 1,8,-1
 131 573 l 1,9,-1
 186 620 l 1,10,11
 132 645 132 645 60 653 c 1,12,-1
 74 720 l 1,13,14
 181 717 181 717 258 681 c 1,15,-1
 329 741 l 1,16,-1
 375 685 l 1,17,-1
 322 640 l 1,18,19
 450 532 450 532 450 286 c 0,20,21
 450 -13 450 -13 249 -13 c 0,22,0
 152 -13 152 -13 99 55.5 c 128,-1,1
135 221 m 0,23,24
 135 151 135 151 164.5 107 c 128,-1,25
 194 63 194 63 248 63 c 128,-1,26
 302 63 302 63 331 116 c 128,-1,27
 360 169 360 169 360 306 c 0,28,29
 360 335 360 335 359 355 c 1,30,31
 300 403 300 403 243 403 c 0,32,33
 135 403 135 403 135 221 c 0,23,24
EndSplineSet
EndChar

StartChar: ntilde
Encoding: 241 241 180
Width: 519
GlyphClass: 2
Flags: W
LayerCount: 2
Fore
SplineSet
131 680.5 m 128,-1,1
 157 701 157 701 181 701 c 128,-1,2
 205 701 205 701 251.5 679.5 c 128,-1,3
 298 658 298 658 317.5 658 c 128,-1,4
 337 658 337 658 374 700 c 1,5,-1
 417 664 l 1,6,7
 397 630 397 630 367 608.5 c 128,-1,8
 337 587 337 587 312 587 c 128,-1,9
 287 587 287 587 243 608.5 c 128,-1,10
 199 630 199 630 180 630 c 128,-1,11
 161 630 161 630 130 593 c 1,12,-1
 86 630 l 1,13,0
 105 660 105 660 131 680.5 c 128,-1,1
454 347 m 2,14,-1
 454 0 l 1,15,-1
 364 0 l 1,16,-1
 364 342 l 2,17,18
 364 388 364 388 352 414 c 128,-1,19
 340 440 340 440 303.5 440 c 128,-1,20
 267 440 267 440 224.5 420.5 c 128,-1,21
 182 401 182 401 158 373 c 1,22,-1
 158 0 l 1,23,-1
 68 0 l 1,24,-1
 68 506 l 1,25,-1
 143 506 l 1,26,-1
 153 445 l 1,27,28
 181 472 181 472 228.5 494 c 128,-1,29
 276 516 276 516 320 516 c 0,30,31
 395 516 395 516 424.5 471.5 c 128,-1,32
 454 427 454 427 454 347 c 2,14,-1
EndSplineSet
EndChar

StartChar: ograve
Encoding: 242 242 181
Width: 508
GlyphClass: 2
Flags: W
LayerCount: 2
Fore
SplineSet
252 -13 m 128,-1,1
 158 -13 158 -13 102 50 c 128,-1,2
 46 113 46 113 46 250.5 c 128,-1,3
 46 388 46 388 104.5 452 c 128,-1,4
 163 516 163 516 257 516 c 128,-1,5
 351 516 351 516 406.5 453 c 128,-1,6
 462 390 462 390 462 252.5 c 128,-1,7
 462 115 462 115 404 51 c 128,-1,0
 346 -13 346 -13 252 -13 c 128,-1,1
255 442 m 0,8,9
 138 442 138 442 138 251.5 c 128,-1,10
 138 61 138 61 254 61 c 0,11,12
 302 61 302 61 336 106 c 128,-1,13
 370 151 370 151 370 256 c 128,-1,14
 370 361 370 361 340.5 401.5 c 128,-1,15
 311 442 311 442 255 442 c 0,8,9
326 577 m 1,16,-1
 154 681 l 1,17,-1
 202 754 l 1,18,-1
 362 632 l 1,19,-1
 326 577 l 1,16,-1
EndSplineSet
EndChar

StartChar: oacute
Encoding: 243 243 182
Width: 508
GlyphClass: 2
Flags: W
LayerCount: 2
Fore
SplineSet
252 -13 m 128,-1,1
 158 -13 158 -13 102 50 c 128,-1,2
 46 113 46 113 46 250.5 c 128,-1,3
 46 388 46 388 104.5 452 c 128,-1,4
 163 516 163 516 257 516 c 128,-1,5
 351 516 351 516 406.5 453 c 128,-1,6
 462 390 462 390 462 252.5 c 128,-1,7
 462 115 462 115 404 51 c 128,-1,0
 346 -13 346 -13 252 -13 c 128,-1,1
255 442 m 0,8,9
 138 442 138 442 138 251.5 c 128,-1,10
 138 61 138 61 254 61 c 0,11,12
 302 61 302 61 336 106 c 128,-1,13
 370 151 370 151 370 256 c 128,-1,14
 370 361 370 361 340.5 401.5 c 128,-1,15
 311 442 311 442 255 442 c 0,8,9
364 681 m 1,16,-1
 192 577 l 1,17,-1
 156 632 l 1,18,-1
 316 754 l 1,19,-1
 364 681 l 1,16,-1
EndSplineSet
EndChar

StartChar: ocircumflex
Encoding: 244 244 183
Width: 508
GlyphClass: 2
Flags: W
LayerCount: 2
Fore
SplineSet
252 -13 m 128,-1,1
 158 -13 158 -13 102 50 c 128,-1,2
 46 113 46 113 46 250.5 c 128,-1,3
 46 388 46 388 104.5 452 c 128,-1,4
 163 516 163 516 257 516 c 128,-1,5
 351 516 351 516 406.5 453 c 128,-1,6
 462 390 462 390 462 252.5 c 128,-1,7
 462 115 462 115 404 51 c 128,-1,0
 346 -13 346 -13 252 -13 c 128,-1,1
255 442 m 0,8,9
 138 442 138 442 138 251.5 c 128,-1,10
 138 61 138 61 254 61 c 0,11,12
 302 61 302 61 336 106 c 128,-1,13
 370 151 370 151 370 256 c 128,-1,14
 370 361 370 361 340.5 401.5 c 128,-1,15
 311 442 311 442 255 442 c 0,8,9
256 667 m 1,16,-1
 171 581 l 1,17,-1
 123 617 l 1,18,-1
 222 727 l 1,19,-1
 287 727 l 1,20,-1
 387 617 l 1,21,-1
 336 581 l 1,22,-1
 256 667 l 1,16,-1
EndSplineSet
EndChar

StartChar: otilde
Encoding: 245 245 184
Width: 508
GlyphClass: 2
Flags: W
LayerCount: 2
Fore
SplineSet
252 -13 m 128,-1,1
 158 -13 158 -13 102 50 c 128,-1,2
 46 113 46 113 46 250.5 c 128,-1,3
 46 388 46 388 104.5 452 c 128,-1,4
 163 516 163 516 257 516 c 128,-1,5
 351 516 351 516 406.5 453 c 128,-1,6
 462 390 462 390 462 252.5 c 128,-1,7
 462 115 462 115 404 51 c 128,-1,0
 346 -13 346 -13 252 -13 c 128,-1,1
255 442 m 0,8,9
 138 442 138 442 138 251.5 c 128,-1,10
 138 61 138 61 254 61 c 0,11,12
 302 61 302 61 336 106 c 128,-1,13
 370 151 370 151 370 256 c 128,-1,14
 370 361 370 361 340.5 401.5 c 128,-1,15
 311 442 311 442 255 442 c 0,8,9
134 680.5 m 128,-1,17
 160 701 160 701 184 701 c 128,-1,18
 208 701 208 701 254.5 679.5 c 128,-1,19
 301 658 301 658 320.5 658 c 128,-1,20
 340 658 340 658 377 700 c 1,21,-1
 420 664 l 1,22,23
 400 630 400 630 370 608.5 c 128,-1,24
 340 587 340 587 315 587 c 128,-1,25
 290 587 290 587 246 608.5 c 128,-1,26
 202 630 202 630 183 630 c 128,-1,27
 164 630 164 630 133 593 c 1,28,-1
 89 630 l 1,29,16
 108 660 108 660 134 680.5 c 128,-1,17
EndSplineSet
EndChar

StartChar: odieresis
Encoding: 246 246 185
Width: 508
GlyphClass: 2
Flags: W
LayerCount: 2
Fore
SplineSet
252 -13 m 128,-1,1
 158 -13 158 -13 102 50 c 128,-1,2
 46 113 46 113 46 250.5 c 128,-1,3
 46 388 46 388 104.5 452 c 128,-1,4
 163 516 163 516 257 516 c 128,-1,5
 351 516 351 516 406.5 453 c 128,-1,6
 462 390 462 390 462 252.5 c 128,-1,7
 462 115 462 115 404 51 c 128,-1,0
 346 -13 346 -13 252 -13 c 128,-1,1
255 442 m 0,8,9
 138 442 138 442 138 251.5 c 128,-1,10
 138 61 138 61 254 61 c 0,11,12
 302 61 302 61 336 106 c 128,-1,13
 370 151 370 151 370 256 c 128,-1,14
 370 361 370 361 340.5 401.5 c 128,-1,15
 311 442 311 442 255 442 c 0,8,9
171 707 m 128,-1,17
 194 707 194 707 210 691.5 c 128,-1,18
 226 676 226 676 226 653 c 128,-1,19
 226 630 226 630 210 613 c 128,-1,20
 194 596 194 596 171.5 596 c 128,-1,21
 149 596 149 596 132.5 613 c 128,-1,22
 116 630 116 630 116 652.5 c 128,-1,23
 116 675 116 675 132 691 c 128,-1,16
 148 707 148 707 171 707 c 128,-1,17
336 707 m 128,-1,25
 359 707 359 707 375 691.5 c 128,-1,26
 391 676 391 676 391 653 c 128,-1,27
 391 630 391 630 375 613 c 128,-1,28
 359 596 359 596 336.5 596 c 128,-1,29
 314 596 314 596 297.5 613 c 128,-1,30
 281 630 281 630 281 652.5 c 128,-1,31
 281 675 281 675 297 691 c 128,-1,24
 313 707 313 707 336 707 c 128,-1,25
EndSplineSet
EndChar

StartChar: divide
Encoding: 247 247 186
Width: 502
GlyphClass: 2
Flags: W
LayerCount: 2
Fore
SplineSet
210 190 m 128,-1,1
 227 206 227 206 251 206 c 128,-1,2
 275 206 275 206 291.5 190 c 128,-1,3
 308 174 308 174 308 150.5 c 128,-1,4
 308 127 308 127 291.5 109.5 c 128,-1,5
 275 92 275 92 251 92 c 128,-1,6
 227 92 227 92 210 109.5 c 128,-1,7
 193 127 193 127 193 150.5 c 128,-1,0
 193 174 193 174 210 190 c 128,-1,1
454 239 m 1,8,-1
 48 239 l 1,9,-1
 48 318 l 1,10,-1
 454 318 l 1,11,-1
 454 239 l 1,8,-1
210 453 m 128,-1,13
 227 469 227 469 251 469 c 128,-1,14
 275 469 275 469 291.5 453 c 128,-1,15
 308 437 308 437 308 413.5 c 128,-1,16
 308 390 308 390 291.5 372.5 c 128,-1,17
 275 355 275 355 251 355 c 128,-1,18
 227 355 227 355 210 372.5 c 128,-1,19
 193 390 193 390 193 413.5 c 128,-1,12
 193 437 193 437 210 453 c 128,-1,13
EndSplineSet
EndChar

StartChar: oslash
Encoding: 248 248 187
Width: 513
GlyphClass: 2
Flags: W
LayerCount: 2
Fore
SplineSet
121 31 m 1,0,1
 46 96 46 96 46 242 c 128,-1,2
 46 388 46 388 105 452 c 128,-1,3
 164 516 164 516 260 516 c 0,4,5
 308 516 308 516 348 499 c 1,6,-1
 384 573 l 1,7,-1
 444 549 l 1,8,-1
 402 463 l 1,9,10
 468 397 468 397 468 256 c 128,-1,11
 468 115 468 115 409.5 51 c 128,-1,12
 351 -13 351 -13 255 -13 c 0,13,14
 213 -13 213 -13 178 -1 c 1,15,-1
 137 -86 l 1,16,-1
 76 -62 l 1,17,-1
 121 31 l 1,0,1
258 442 m 0,18,19
 208 442 208 442 173 400 c 128,-1,20
 138 358 138 358 138 260 c 128,-1,21
 138 162 138 162 162 116 c 1,22,-1
 315 430 l 1,23,24
 292 442 292 442 258 442 c 0,18,19
257 61 m 0,25,26
 305 61 305 61 340.5 106 c 128,-1,27
 376 151 376 151 376 240 c 128,-1,28
 376 329 376 329 359 374 c 1,29,-1
 212 69 l 1,30,31
 229 61 229 61 257 61 c 0,25,26
EndSplineSet
EndChar

StartChar: ugrave
Encoding: 249 249 188
Width: 515
GlyphClass: 2
Flags: W
LayerCount: 2
Fore
SplineSet
210 -13 m 0,0,1
 128 -13 128 -13 96 31.5 c 128,-1,2
 64 76 64 76 64 159 c 2,3,-1
 64 506 l 1,4,-1
 154 506 l 1,5,-1
 154 161 l 2,6,7
 154 111 154 111 167 87.5 c 128,-1,8
 180 64 180 64 219.5 64 c 128,-1,9
 259 64 259 64 296.5 76.5 c 128,-1,10
 334 89 334 89 358 111 c 1,11,-1
 358 503 l 1,12,-1
 448 503 l 1,13,-1
 448 -9 l 1,14,-1
 375 -9 l 1,15,-1
 365 45 l 1,16,17
 336 21 336 21 294 4 c 128,-1,18
 252 -13 252 -13 210 -13 c 0,0,1
310 577 m 1,19,-1
 138 681 l 1,20,-1
 186 754 l 1,21,-1
 346 632 l 1,22,-1
 310 577 l 1,19,-1
EndSplineSet
EndChar

StartChar: uacute
Encoding: 250 250 189
Width: 515
GlyphClass: 2
Flags: W
LayerCount: 2
Fore
SplineSet
210 -13 m 0,0,1
 128 -13 128 -13 96 31.5 c 128,-1,2
 64 76 64 76 64 159 c 2,3,-1
 64 506 l 1,4,-1
 154 506 l 1,5,-1
 154 161 l 2,6,7
 154 111 154 111 167 87.5 c 128,-1,8
 180 64 180 64 219.5 64 c 128,-1,9
 259 64 259 64 296.5 76.5 c 128,-1,10
 334 89 334 89 358 111 c 1,11,-1
 358 503 l 1,12,-1
 448 503 l 1,13,-1
 448 -9 l 1,14,-1
 375 -9 l 1,15,-1
 365 45 l 1,16,17
 336 21 336 21 294 4 c 128,-1,18
 252 -13 252 -13 210 -13 c 0,0,1
379 681 m 1,19,-1
 207 577 l 1,20,-1
 171 632 l 1,21,-1
 331 754 l 1,22,-1
 379 681 l 1,19,-1
EndSplineSet
EndChar

StartChar: ucircumflex
Encoding: 251 251 190
Width: 515
GlyphClass: 2
Flags: W
LayerCount: 2
Fore
SplineSet
210 -13 m 0,0,1
 128 -13 128 -13 96 31.5 c 128,-1,2
 64 76 64 76 64 159 c 2,3,-1
 64 506 l 1,4,-1
 154 506 l 1,5,-1
 154 161 l 2,6,7
 154 111 154 111 167 87.5 c 128,-1,8
 180 64 180 64 219.5 64 c 128,-1,9
 259 64 259 64 296.5 76.5 c 128,-1,10
 334 89 334 89 358 111 c 1,11,-1
 358 503 l 1,12,-1
 448 503 l 1,13,-1
 448 -9 l 1,14,-1
 375 -9 l 1,15,-1
 365 45 l 1,16,17
 336 21 336 21 294 4 c 128,-1,18
 252 -13 252 -13 210 -13 c 0,0,1
258 667 m 1,19,-1
 173 581 l 1,20,-1
 125 617 l 1,21,-1
 224 727 l 1,22,-1
 289 727 l 1,23,-1
 389 617 l 1,24,-1
 338 581 l 1,25,-1
 258 667 l 1,19,-1
EndSplineSet
EndChar

StartChar: udieresis
Encoding: 252 252 191
Width: 515
GlyphClass: 2
Flags: W
LayerCount: 2
Fore
SplineSet
210 -13 m 0,0,1
 128 -13 128 -13 96 31.5 c 128,-1,2
 64 76 64 76 64 159 c 2,3,-1
 64 506 l 1,4,-1
 154 506 l 1,5,-1
 154 161 l 2,6,7
 154 111 154 111 167 87.5 c 128,-1,8
 180 64 180 64 219.5 64 c 128,-1,9
 259 64 259 64 296.5 76.5 c 128,-1,10
 334 89 334 89 358 111 c 1,11,-1
 358 503 l 1,12,-1
 448 503 l 1,13,-1
 448 -9 l 1,14,-1
 375 -9 l 1,15,-1
 365 45 l 1,16,17
 336 21 336 21 294 4 c 128,-1,18
 252 -13 252 -13 210 -13 c 0,0,1
179 707 m 128,-1,20
 202 707 202 707 218 691.5 c 128,-1,21
 234 676 234 676 234 653 c 128,-1,22
 234 630 234 630 218 613 c 128,-1,23
 202 596 202 596 179.5 596 c 128,-1,24
 157 596 157 596 140.5 613 c 128,-1,25
 124 630 124 630 124 652.5 c 128,-1,26
 124 675 124 675 140 691 c 128,-1,19
 156 707 156 707 179 707 c 128,-1,20
344 707 m 128,-1,28
 367 707 367 707 383 691.5 c 128,-1,29
 399 676 399 676 399 653 c 128,-1,30
 399 630 399 630 383 613 c 128,-1,31
 367 596 367 596 344.5 596 c 128,-1,32
 322 596 322 596 305.5 613 c 128,-1,33
 289 630 289 630 289 652.5 c 128,-1,34
 289 675 289 675 305 691 c 128,-1,27
 321 707 321 707 344 707 c 128,-1,28
EndSplineSet
EndChar

StartChar: yacute
Encoding: 253 253 192
Width: 473
GlyphClass: 2
Flags: W
LayerCount: 2
Fore
SplineSet
49 -143 m 0,0,1
 104 -143 104 -143 138.5 -112 c 128,-1,2
 173 -81 173 -81 199 -2 c 1,3,-1
 14 500 l 1,4,-1
 109 506 l 1,5,-1
 240 95 l 1,6,-1
 358 506 l 1,7,-1
 452 506 l 1,8,-1
 286 10 l 2,9,10
 247 -108 247 -108 195.5 -159.5 c 128,-1,11
 144 -211 144 -211 62 -211 c 0,12,13
 29 -211 29 -211 -6 -204 c 1,14,-1
 5 -140 l 1,15,16
 21 -143 21 -143 49 -143 c 0,0,1
393 681 m 1,17,-1
 221 577 l 1,18,-1
 185 632 l 1,19,-1
 345 754 l 1,20,-1
 393 681 l 1,17,-1
EndSplineSet
EndChar

StartChar: thorn
Encoding: 254 254 193
Width: 518
GlyphClass: 2
Flags: W
LayerCount: 2
Fore
SplineSet
158 700 m 1,0,-1
 158 469 l 1,1,2
 177 484 177 484 216.5 500 c 128,-1,3
 256 516 256 516 295 516 c 0,4,5
 371 516 371 516 422 453.5 c 128,-1,6
 473 391 473 391 473 278 c 0,7,8
 473 -13 473 -13 252 -13 c 0,9,10
 200 -13 200 -13 158 1 c 1,11,-1
 158 -211 l 1,12,-1
 68 -211 l 1,13,-1
 68 700 l 1,14,-1
 158 700 l 1,0,-1
280 440 m 0,15,16
 218 440 218 440 158 398 c 1,17,-1
 158 79 l 1,18,19
 196 63 196 63 253 63 c 0,20,21
 379 63 379 63 379 259 c 0,22,23
 379 440 379 440 280 440 c 0,15,16
EndSplineSet
EndChar

StartChar: ydieresis
Encoding: 255 255 194
Width: 473
GlyphClass: 2
Flags: W
LayerCount: 2
Fore
SplineSet
49 -143 m 0,0,1
 104 -143 104 -143 138.5 -112 c 128,-1,2
 173 -81 173 -81 199 -2 c 1,3,-1
 14 500 l 1,4,-1
 109 506 l 1,5,-1
 240 95 l 1,6,-1
 358 506 l 1,7,-1
 452 506 l 1,8,-1
 286 10 l 2,9,10
 247 -108 247 -108 195.5 -159.5 c 128,-1,11
 144 -211 144 -211 62 -211 c 0,12,13
 29 -211 29 -211 -6 -204 c 1,14,-1
 5 -140 l 1,15,16
 21 -143 21 -143 49 -143 c 0,0,1
153 707 m 128,-1,18
 176 707 176 707 192 691.5 c 128,-1,19
 208 676 208 676 208 653 c 128,-1,20
 208 630 208 630 192 613 c 128,-1,21
 176 596 176 596 153.5 596 c 128,-1,22
 131 596 131 596 114.5 613 c 128,-1,23
 98 630 98 630 98 652.5 c 128,-1,24
 98 675 98 675 114 691 c 128,-1,17
 130 707 130 707 153 707 c 128,-1,18
318 707 m 128,-1,26
 341 707 341 707 357 691.5 c 128,-1,27
 373 676 373 676 373 653 c 128,-1,28
 373 630 373 630 357 613 c 128,-1,29
 341 596 341 596 318.5 596 c 128,-1,30
 296 596 296 596 279.5 613 c 128,-1,31
 263 630 263 630 263 652.5 c 128,-1,32
 263 675 263 675 279 691 c 128,-1,25
 295 707 295 707 318 707 c 128,-1,26
EndSplineSet
EndChar

StartChar: dotlessi
Encoding: 305 305 195
Width: 225
GlyphClass: 2
Flags: W
LayerCount: 2
Fore
SplineSet
158 0 m 1,0,-1
 67 0 l 1,1,-1
 67 502 l 1,2,-1
 158 511 l 1,3,-1
 158 0 l 1,0,-1
EndSplineSet
EndChar

StartChar: Lslash
Encoding: 321 321 196
Width: 486
GlyphClass: 2
Flags: W
LayerCount: 2
Fore
SplineSet
214 81 m 1,0,-1
 464 81 l 1,1,-1
 464 0 l 1,2,-1
 118 0 l 1,3,-1
 118 315 l 1,4,-1
 22 315 l 1,5,-1
 22 394 l 1,6,-1
 118 394 l 1,7,-1
 118 668 l 1,8,-1
 214 668 l 1,9,-1
 214 394 l 1,10,-1
 407 394 l 1,11,-1
 407 315 l 1,12,-1
 214 315 l 1,13,-1
 214 81 l 1,0,-1
EndSplineSet
EndChar

StartChar: lslash
Encoding: 322 322 197
Width: 427
GlyphClass: 2
Flags: W
LayerCount: 2
Fore
SplineSet
416 394 m 1,0,-1
 416 315 l 1,1,-1
 209 315 l 1,2,-1
 209 102 l 2,3,4
 209 63 209 63 245 63 c 0,5,6
 273 63 273 63 304 73 c 1,7,-1
 319 7 l 1,8,9
 278 -13 278 -13 218 -13 c 0,10,11
 118 -13 118 -13 118 101 c 2,12,-1
 118 315 l 1,13,-1
 31 315 l 1,14,-1
 31 394 l 1,15,-1
 118 394 l 1,16,-1
 118 700 l 1,17,-1
 209 700 l 1,18,-1
 209 394 l 1,19,-1
 416 394 l 1,0,-1
EndSplineSet
EndChar

StartChar: OE
Encoding: 338 338 198
Width: 898
GlyphClass: 2
Flags: W
LayerCount: 2
Fore
SplineSet
566 81 m 1,0,-1
 841 81 l 1,1,-1
 850 0 l 1,2,-1
 470 0 l 1,3,-1
 470 56 l 1,4,5
 415 -13 415 -13 308 -13 c 0,6,7
 239 -13 239 -13 188 16 c 128,-1,8
 137 45 137 45 108 95 c 0,9,10
 51 193 51 193 51 334 c 0,11,12
 51 474 51 474 110 573 c 0,13,14
 139 623 139 623 190.5 652 c 128,-1,15
 242 681 242 681 311 681 c 0,16,17
 415 681 415 681 470 614 c 1,18,-1
 470 668 l 1,19,-1
 841 668 l 1,20,-1
 831 587 l 1,21,-1
 566 587 l 1,22,-1
 566 385 l 1,23,-1
 825 385 l 1,24,-1
 825 306 l 1,25,-1
 566 306 l 1,26,-1
 566 81 l 1,0,-1
310 72 m 128,-1,28
 393 72 393 72 432.5 145 c 128,-1,29
 472 218 472 218 472 334.5 c 128,-1,30
 472 451 472 451 432.5 523.5 c 128,-1,31
 393 596 393 596 310 596 c 128,-1,32
 227 596 227 596 187.5 523.5 c 128,-1,33
 148 451 148 451 148 334.5 c 128,-1,34
 148 218 148 218 187.5 145 c 128,-1,27
 227 72 227 72 310 72 c 128,-1,28
EndSplineSet
EndChar

StartChar: oe
Encoding: 339 339 199
Width: 813
GlyphClass: 2
Flags: W
LayerCount: 2
Fore
SplineSet
497 114.5 m 128,-1,1
 533 62 533 62 603.5 62 c 128,-1,2
 674 62 674 62 740 99 c 1,3,-1
 768 36 l 1,4,5
 692 -13 692 -13 601 -13 c 0,6,7
 476 -13 476 -13 421 84 c 1,8,9
 367 -13 367 -13 255 -13 c 0,10,11
 159 -13 159 -13 102.5 50 c 128,-1,12
 46 113 46 113 46 250.5 c 128,-1,13
 46 388 46 388 105 452 c 128,-1,14
 164 516 164 516 260 516 c 0,15,16
 376 516 376 516 426 423 c 1,17,18
 482 516 482 516 591 516 c 0,19,20
 676 516 676 516 721.5 469.5 c 128,-1,21
 767 423 767 423 767 345 c 0,22,23
 767 303 767 303 753 252 c 1,24,-1
 459 252 l 1,25,0
 461 167 461 167 497 114.5 c 128,-1,1
345 401.5 m 128,-1,27
 315 442 315 442 261.5 442 c 128,-1,28
 208 442 208 442 173 400 c 128,-1,29
 138 358 138 358 138 251 c 0,30,31
 138 61 138 61 257 61 c 0,32,33
 305 61 305 61 340 106 c 128,-1,34
 375 151 375 151 375 256 c 128,-1,26
 375 361 375 361 345 401.5 c 128,-1,27
685 319 m 1,35,-1
 685 327 l 2,36,37
 685 381 685 381 662.5 411.5 c 128,-1,38
 640 442 640 442 601 442 c 128,-1,39
 562 442 562 442 537 428.5 c 128,-1,40
 512 415 512 415 498 393 c 0,41,42
 477 360 477 360 468 319 c 1,43,-1
 685 319 l 1,35,-1
EndSplineSet
EndChar

StartChar: Scaron
Encoding: 352 352 200
Width: 490
GlyphClass: 2
Flags: W
LayerCount: 2
Fore
SplineSet
393 40 m 128,-1,1
 335 -13 335 -13 240 -13 c 0,2,3
 189 -13 189 -13 131.5 -2 c 128,-1,4
 74 9 74 9 39 26 c 1,5,-1
 65 111 l 1,6,7
 163 72 163 72 228 72 c 128,-1,8
 293 72 293 72 326 100.5 c 128,-1,9
 359 129 359 129 359 173 c 128,-1,10
 359 217 359 217 323 248 c 128,-1,11
 287 279 287 279 229.5 307.5 c 128,-1,12
 172 336 172 336 152 348 c 128,-1,13
 132 360 132 360 106 384 c 1,14,15
 56 427 56 427 56 508 c 128,-1,16
 56 589 56 589 113 635 c 128,-1,17
 170 681 170 681 252.5 681 c 128,-1,18
 335 681 335 681 422 649 c 1,19,-1
 396 569 l 1,20,21
 320 596 320 596 261.5 596 c 128,-1,22
 203 596 203 596 175.5 572.5 c 128,-1,23
 148 549 148 549 148 511 c 128,-1,24
 148 473 148 473 180 446.5 c 128,-1,25
 212 420 212 420 264 392.5 c 128,-1,26
 316 365 316 365 340.5 349 c 128,-1,27
 365 333 365 333 394 308 c 1,28,29
 451 256 451 256 451 174.5 c 128,-1,0
 451 93 451 93 393 40 c 128,-1,1
263 781 m 1,30,-1
 354 874 l 1,31,-1
 400 835 l 1,32,-1
 297 721 l 1,33,-1
 231 721 l 1,34,-1
 127 835 l 1,35,-1
 173 874 l 1,36,-1
 263 781 l 1,30,-1
EndSplineSet
EndChar

StartChar: scaron
Encoding: 353 353 201
Width: 411
GlyphClass: 2
Flags: W
LayerCount: 2
Fore
SplineSet
214 632 m 1,0,-1
 305 725 l 1,1,-1
 351 686 l 1,2,-1
 248 572 l 1,3,-1
 182 572 l 1,4,-1
 78 686 l 1,5,-1
 124 725 l 1,6,-1
 214 632 l 1,0,-1
60 92 m 1,7,8
 126 63 126 63 181 63 c 128,-1,9
 236 63 236 63 261.5 83.5 c 128,-1,10
 287 104 287 104 287 134.5 c 128,-1,11
 287 165 287 165 262.5 186 c 128,-1,12
 238 207 238 207 203 219.5 c 128,-1,13
 168 232 168 232 132.5 246 c 128,-1,14
 97 260 97 260 72.5 290.5 c 128,-1,15
 48 321 48 321 48 367 c 0,16,17
 48 435 48 435 96 475.5 c 128,-1,18
 144 516 144 516 226 516 c 128,-1,19
 308 516 308 516 358 487 c 1,20,-1
 337 420 l 1,21,22
 279 440 279 440 230 440 c 128,-1,23
 181 440 181 440 157 422 c 128,-1,24
 133 404 133 404 133 373.5 c 128,-1,25
 133 343 133 343 158 323 c 128,-1,26
 183 303 183 303 218.5 291 c 128,-1,27
 254 279 254 279 289 264.5 c 128,-1,28
 324 250 324 250 349 220 c 128,-1,29
 374 190 374 190 374 145 c 0,30,31
 374 79 374 79 325 33 c 128,-1,32
 276 -13 276 -13 185 -13 c 0,33,34
 143 -13 143 -13 100.5 -2 c 128,-1,35
 58 9 58 9 37 24 c 1,36,-1
 60 92 l 1,7,8
EndSplineSet
EndChar

StartChar: Ydieresis
Encoding: 376 376 202
Width: 521
GlyphClass: 2
Flags: W
LayerCount: 2
Fore
SplineSet
309 0 m 1,0,-1
 213 0 l 1,1,-1
 213 275 l 1,2,-1
 3 668 l 1,3,-1
 111 668 l 1,4,-1
 261 353 l 1,5,-1
 415 668 l 1,6,-1
 516 668 l 1,7,-1
 309 275 l 1,8,-1
 309 0 l 1,0,-1
192 839 m 128,-1,10
 215 839 215 839 231 823.5 c 128,-1,11
 247 808 247 808 247 785 c 128,-1,12
 247 762 247 762 231 745 c 128,-1,13
 215 728 215 728 192.5 728 c 128,-1,14
 170 728 170 728 153.5 745 c 128,-1,15
 137 762 137 762 137 784.5 c 128,-1,16
 137 807 137 807 153 823 c 128,-1,9
 169 839 169 839 192 839 c 128,-1,10
357 839 m 128,-1,18
 380 839 380 839 396 823.5 c 128,-1,19
 412 808 412 808 412 785 c 128,-1,20
 412 762 412 762 396 745 c 128,-1,21
 380 728 380 728 357.5 728 c 128,-1,22
 335 728 335 728 318.5 745 c 128,-1,23
 302 762 302 762 302 784.5 c 128,-1,24
 302 807 302 807 318 823 c 128,-1,17
 334 839 334 839 357 839 c 128,-1,18
EndSplineSet
EndChar

StartChar: Zcaron
Encoding: 381 381 203
Width: 525
GlyphClass: 2
Flags: W
LayerCount: 2
Fore
SplineSet
489 81 m 1,0,-1
 489 0 l 1,1,-1
 48 0 l 1,2,-1
 39 65 l 1,3,-1
 353 587 l 1,4,-1
 54 587 l 1,5,-1
 43 668 l 1,6,-1
 460 668 l 1,7,-1
 467 599 l 1,8,-1
 156 81 l 1,9,-1
 489 81 l 1,0,-1
264 784 m 1,10,-1
 355 877 l 1,11,-1
 401 838 l 1,12,-1
 298 724 l 1,13,-1
 232 724 l 1,14,-1
 128 838 l 1,15,-1
 174 877 l 1,16,-1
 264 784 l 1,10,-1
EndSplineSet
EndChar

StartChar: zcaron
Encoding: 382 382 204
Width: 440
GlyphClass: 2
Flags: W
LayerCount: 2
Fore
SplineSet
137 74 m 1,0,-1
 398 74 l 1,1,-1
 408 0 l 1,2,-1
 40 0 l 1,3,-1
 31 58 l 1,4,-1
 285 432 l 1,5,-1
 59 432 l 1,6,-1
 49 506 l 1,7,-1
 382 506 l 1,8,-1
 392 444 l 1,9,-1
 137 74 l 1,0,-1
227 632 m 1,10,-1
 318 725 l 1,11,-1
 364 686 l 1,12,-1
 261 572 l 1,13,-1
 195 572 l 1,14,-1
 91 686 l 1,15,-1
 137 725 l 1,16,-1
 227 632 l 1,10,-1
EndSplineSet
EndChar

StartChar: florin
Encoding: 402 402 205
Width: 513
GlyphClass: 2
Flags: W
LayerCount: 2
Fore
SplineSet
302 432 m 1,0,-1
 302 -58 l 2,1,2
 302 -152 302 -152 263 -194.5 c 128,-1,3
 224 -237 224 -237 134 -237 c 0,4,5
 81 -237 81 -237 18 -219 c 1,6,-1
 38 -148 l 1,7,8
 78 -158 78 -158 128 -158 c 128,-1,9
 178 -158 178 -158 194.5 -136.5 c 128,-1,10
 211 -115 211 -115 211 -61 c 2,11,-1
 211 432 l 1,12,-1
 118 432 l 1,13,-1
 127 506 l 1,14,-1
 211 506 l 1,15,-1
 211 543 l 2,16,17
 211 637 211 637 250 679.5 c 128,-1,18
 289 722 289 722 379 722 c 0,19,20
 432 722 432 722 495 704 c 1,21,-1
 475 633 l 1,22,23
 435 643 435 643 385 643 c 128,-1,24
 335 643 335 643 318.5 621.5 c 128,-1,25
 302 600 302 600 302 546 c 2,26,-1
 302 506 l 1,27,-1
 439 506 l 1,28,-1
 429 432 l 1,29,-1
 302 432 l 1,0,-1
EndSplineSet
EndChar

StartChar: circumflex
Encoding: 710 710 206
Width: 384
GlyphClass: 2
Flags: W
LayerCount: 2
Fore
SplineSet
193 667 m 1,0,-1
 108 581 l 1,1,-1
 60 617 l 1,2,-1
 159 727 l 1,3,-1
 224 727 l 1,4,-1
 324 617 l 1,5,-1
 273 581 l 1,6,-1
 193 667 l 1,0,-1
EndSplineSet
EndChar

StartChar: caron
Encoding: 711 711 207
Width: 432
GlyphClass: 2
Flags: W
LayerCount: 2
Fore
SplineSet
223 632 m 1,0,-1
 314 725 l 1,1,-1
 360 686 l 1,2,-1
 257 572 l 1,3,-1
 191 572 l 1,4,-1
 87 686 l 1,5,-1
 133 725 l 1,6,-1
 223 632 l 1,0,-1
EndSplineSet
EndChar

StartChar: breve
Encoding: 728 728 208
Width: 336
GlyphClass: 2
Flags: W
LayerCount: 2
Fore
SplineSet
119 670 m 1,0,1
 119 620 119 620 167 620 c 0,2,3
 217 620 217 620 217 670 c 1,4,-1
 276 670 l 1,5,6
 276 627 276 627 248 596.5 c 128,-1,7
 220 566 220 566 166.5 566 c 128,-1,8
 113 566 113 566 86.5 596 c 128,-1,9
 60 626 60 626 60 670 c 1,10,-1
 119 670 l 1,0,1
EndSplineSet
EndChar

StartChar: dotaccent
Encoding: 729 729 209
Width: 202
GlyphClass: 2
Flags: W
LayerCount: 2
Fore
SplineSet
101 682 m 128,-1,1
 126 682 126 682 144 664.5 c 128,-1,2
 162 647 162 647 162 621.5 c 128,-1,3
 162 596 162 596 144 577.5 c 128,-1,4
 126 559 126 559 101 559 c 128,-1,5
 76 559 76 559 58 577.5 c 128,-1,6
 40 596 40 596 40 621.5 c 128,-1,7
 40 647 40 647 58 664.5 c 128,-1,0
 76 682 76 682 101 682 c 128,-1,1
EndSplineSet
EndChar

StartChar: ring
Encoding: 730 730 210
Width: 335
GlyphClass: 2
Flags: W
LayerCount: 2
Fore
SplineSet
266 691 m 128,-1,1
 266 648 266 648 239 617.5 c 128,-1,2
 212 587 212 587 162 587 c 128,-1,3
 112 587 112 587 86 617 c 128,-1,4
 60 647 60 647 60 690 c 128,-1,5
 60 733 60 733 86.5 762.5 c 128,-1,6
 113 792 113 792 163 792 c 128,-1,7
 213 792 213 792 239.5 763 c 128,-1,0
 266 734 266 734 266 691 c 128,-1,1
196 656 m 128,-1,9
 207 671 207 671 207 690.5 c 128,-1,10
 207 710 207 710 196.5 724 c 128,-1,11
 186 738 186 738 163.5 738 c 128,-1,12
 141 738 141 738 130 724 c 128,-1,13
 119 710 119 710 119 690 c 128,-1,14
 119 670 119 670 129.5 655.5 c 128,-1,15
 140 641 140 641 162.5 641 c 128,-1,8
 185 641 185 641 196 656 c 128,-1,9
EndSplineSet
EndChar

StartChar: ogonek
Encoding: 731 731 211
Width: 332
GlyphClass: 2
Flags: W
LayerCount: 2
Fore
SplineSet
152 -108 m 0,0,1
 152 -143 152 -143 194 -143 c 0,2,3
 217 -143 217 -143 252 -130 c 1,4,-1
 265 -200 l 1,5,6
 216 -221 216 -221 170.5 -221 c 128,-1,7
 125 -221 125 -221 94.5 -197.5 c 128,-1,8
 64 -174 64 -174 64 -137 c 0,9,10
 64 -72 64 -72 123 -13 c 1,11,-1
 205 -13 l 1,12,13
 152 -69 152 -69 152 -108 c 0,0,1
EndSplineSet
EndChar

StartChar: tilde
Encoding: 732 732 212
Width: 515
GlyphClass: 2
Flags: W
LayerCount: 2
Fore
SplineSet
139 680.5 m 128,-1,1
 165 701 165 701 189 701 c 128,-1,2
 213 701 213 701 259.5 679.5 c 128,-1,3
 306 658 306 658 325.5 658 c 128,-1,4
 345 658 345 658 382 700 c 1,5,-1
 425 664 l 1,6,7
 405 630 405 630 375 608.5 c 128,-1,8
 345 587 345 587 320 587 c 128,-1,9
 295 587 295 587 251 608.5 c 128,-1,10
 207 630 207 630 188 630 c 128,-1,11
 169 630 169 630 138 593 c 1,12,-1
 94 630 l 1,13,0
 113 660 113 660 139 680.5 c 128,-1,1
EndSplineSet
EndChar

StartChar: hungarumlaut
Encoding: 733 733 213
Width: 503
GlyphClass: 2
Flags: W
LayerCount: 2
Fore
SplineSet
258 666 m 1,0,-1
 114 526 l 1,1,-1
 67 571 l 1,2,-1
 195 726 l 1,3,-1
 258 666 l 1,0,-1
437 662 m 1,4,-1
 293 522 l 1,5,-1
 246 567 l 1,6,-1
 374 723 l 1,7,-1
 437 662 l 1,4,-1
EndSplineSet
EndChar

StartChar: endash
Encoding: 8211 8211 214
Width: 556
GlyphClass: 2
Flags: W
LayerCount: 2
Fore
SplineSet
493 318 m 1,0,-1
 493 239 l 1,1,-1
 63 239 l 1,2,-1
 63 318 l 1,3,-1
 493 318 l 1,0,-1
EndSplineSet
EndChar

StartChar: emdash
Encoding: 8212 8212 215
Width: 836
GlyphClass: 2
Flags: W
LayerCount: 2
Fore
SplineSet
773 318 m 1,0,-1
 773 239 l 1,1,-1
 63 239 l 1,2,-1
 63 318 l 1,3,-1
 773 318 l 1,0,-1
EndSplineSet
EndChar

StartChar: quoteleft
Encoding: 8216 8216 216
Width: 223
GlyphClass: 2
Flags: W
LayerCount: 2
Fore
SplineSet
52 532 m 0,0,1
 52 637 52 637 141 719 c 1,2,-1
 224 719 l 1,3,4
 142 624 142 624 142 547 c 0,5,6
 142 514 142 514 159 475 c 1,7,-1
 64 475 l 1,8,9
 52 501 52 501 52 532 c 0,0,1
EndSplineSet
EndChar

StartChar: quoteright
Encoding: 8217 8217 217
Width: 255
GlyphClass: 2
Flags: W
LayerCount: 2
Fore
SplineSet
215 643 m 0,0,1
 215 538 215 538 126 456 c 1,2,-1
 43 456 l 1,3,4
 125 551 125 551 125 628 c 0,5,6
 125 661 125 661 108 700 c 1,7,-1
 203 700 l 1,8,9
 215 674 215 674 215 643 c 0,0,1
EndSplineSet
EndChar

StartChar: quotesinglbase
Encoding: 8218 8218 218
Width: 220
GlyphClass: 2
Flags: W
LayerCount: 2
Fore
SplineSet
163 59 m 0,0,1
 163 -46 163 -46 74 -128 c 1,2,-1
 -9 -128 l 1,3,4
 73 -33 73 -33 73 44 c 0,5,6
 73 77 73 77 56 116 c 1,7,-1
 151 116 l 1,8,9
 163 90 163 90 163 59 c 0,0,1
EndSplineSet
EndChar

StartChar: quotedblleft
Encoding: 8220 8220 219
Width: 393
GlyphClass: 2
Flags: W
LayerCount: 2
Fore
SplineSet
222 532 m 0,0,1
 222 637 222 637 311 719 c 1,2,-1
 394 719 l 1,3,4
 312 624 312 624 312 547 c 0,5,6
 312 514 312 514 329 475 c 1,7,-1
 234 475 l 1,8,9
 222 501 222 501 222 532 c 0,0,1
52 532 m 0,10,11
 52 637 52 637 141 719 c 1,12,-1
 224 719 l 1,13,14
 142 624 142 624 142 547 c 0,15,16
 142 514 142 514 159 475 c 1,17,-1
 64 475 l 1,18,19
 52 501 52 501 52 532 c 0,10,11
EndSplineSet
EndChar

StartChar: quotedblright
Encoding: 8221 8221 220
Width: 425
GlyphClass: 2
Flags: W
LayerCount: 2
Fore
SplineSet
215 643 m 0,0,1
 215 538 215 538 126 456 c 1,2,-1
 43 456 l 1,3,4
 125 551 125 551 125 628 c 0,5,6
 125 661 125 661 108 700 c 1,7,-1
 203 700 l 1,8,9
 215 674 215 674 215 643 c 0,0,1
385 643 m 0,10,11
 385 538 385 538 296 456 c 1,12,-1
 213 456 l 1,13,14
 295 551 295 551 295 628 c 0,15,16
 295 661 295 661 278 700 c 1,17,-1
 373 700 l 1,18,19
 385 674 385 674 385 643 c 0,10,11
EndSplineSet
EndChar

StartChar: quotedblbase
Encoding: 8222 8222 221
Width: 390
GlyphClass: 2
Flags: W
LayerCount: 2
Fore
SplineSet
163 59 m 0,0,1
 163 -46 163 -46 74 -128 c 1,2,-1
 -9 -128 l 1,3,4
 73 -33 73 -33 73 44 c 0,5,6
 73 77 73 77 56 116 c 1,7,-1
 151 116 l 1,8,9
 163 90 163 90 163 59 c 0,0,1
333 59 m 0,10,11
 333 -46 333 -46 244 -128 c 1,12,-1
 161 -128 l 1,13,14
 243 -33 243 -33 243 44 c 0,15,16
 243 77 243 77 226 116 c 1,17,-1
 321 116 l 1,18,19
 333 90 333 90 333 59 c 0,10,11
EndSplineSet
EndChar

StartChar: dagger
Encoding: 8224 8224 222
Width: 428
GlyphClass: 2
Flags: W
LayerCount: 2
Fore
SplineSet
399 480 m 1,0,-1
 399 392 l 1,1,-1
 237 407 l 1,2,-1
 262 0 l 1,3,-1
 156 0 l 1,4,-1
 181 407 l 1,5,-1
 29 392 l 1,6,-1
 29 480 l 1,7,-1
 181 465 l 1,8,-1
 154 669 l 1,9,-1
 264 669 l 1,10,-1
 237 465 l 1,11,-1
 399 480 l 1,0,-1
EndSplineSet
EndChar

StartChar: daggerdbl
Encoding: 8225 8225 223
Width: 435
GlyphClass: 2
Flags: W
LayerCount: 2
Fore
SplineSet
262 341 m 1,0,-1
 241 215 l 1,1,-1
 384 228 l 1,2,-1
 384 150 l 1,3,-1
 241 163 l 1,4,-1
 265 0 l 1,5,-1
 171 0 l 1,6,-1
 194 163 l 1,7,-1
 51 150 l 1,8,-1
 51 228 l 1,9,-1
 194 215 l 1,10,-1
 174 341 l 1,11,-1
 194 459 l 1,12,-1
 51 446 l 1,13,-1
 51 525 l 1,14,-1
 194 511 l 1,15,-1
 171 674 l 1,16,-1
 265 674 l 1,17,-1
 241 511 l 1,18,-1
 384 525 l 1,19,-1
 384 446 l 1,20,-1
 241 459 l 1,21,-1
 262 341 l 1,0,-1
EndSplineSet
EndChar

StartChar: bullet
Encoding: 8226 8226 224
Width: 371
GlyphClass: 2
Flags: W
LayerCount: 2
Fore
SplineSet
69 323 m 128,-1,1
 69 373 69 373 102.5 406.5 c 128,-1,2
 136 440 136 440 185.5 440 c 128,-1,3
 235 440 235 440 268.5 406.5 c 128,-1,4
 302 373 302 373 302 323 c 128,-1,5
 302 273 302 273 268.5 239.5 c 128,-1,6
 235 206 235 206 185.5 206 c 128,-1,7
 136 206 136 206 102.5 239.5 c 128,-1,0
 69 273 69 273 69 323 c 128,-1,1
EndSplineSet
EndChar

StartChar: ellipsis
Encoding: 8230 8230 225
Width: 668
GlyphClass: 2
Flags: W
LayerCount: 2
Fore
SplineSet
112 117 m 128,-1,1
 137 117 137 117 155 99.5 c 128,-1,2
 173 82 173 82 173 56.5 c 128,-1,3
 173 31 173 31 155 12.5 c 128,-1,4
 137 -6 137 -6 112 -6 c 128,-1,5
 87 -6 87 -6 69 12.5 c 128,-1,6
 51 31 51 31 51 56.5 c 128,-1,7
 51 82 51 82 69 99.5 c 128,-1,0
 87 117 87 117 112 117 c 128,-1,1
334 117 m 128,-1,9
 359 117 359 117 377 99.5 c 128,-1,10
 395 82 395 82 395 56.5 c 128,-1,11
 395 31 395 31 377 12.5 c 128,-1,12
 359 -6 359 -6 334 -6 c 128,-1,13
 309 -6 309 -6 291 12.5 c 128,-1,14
 273 31 273 31 273 56.5 c 128,-1,15
 273 82 273 82 291 99.5 c 128,-1,8
 309 117 309 117 334 117 c 128,-1,9
556 117 m 128,-1,17
 581 117 581 117 599 99.5 c 128,-1,18
 617 82 617 82 617 56.5 c 128,-1,19
 617 31 617 31 599 12.5 c 128,-1,20
 581 -6 581 -6 556 -6 c 128,-1,21
 531 -6 531 -6 513 12.5 c 128,-1,22
 495 31 495 31 495 56.5 c 128,-1,23
 495 82 495 82 513 99.5 c 128,-1,16
 531 117 531 117 556 117 c 128,-1,17
EndSplineSet
EndChar

StartChar: perthousand
Encoding: 8240 8240 226
Width: 1066
GlyphClass: 2
Flags: W
LayerCount: 2
Fore
SplineSet
673.5 43.5 m 128,-1,1
 639 -4 639 -4 573.5 -4 c 128,-1,2
 508 -4 508 -4 474.5 42.5 c 128,-1,3
 441 89 441 89 441 204.5 c 128,-1,4
 441 320 441 320 475.5 367.5 c 128,-1,5
 510 415 510 415 576 415 c 128,-1,6
 642 415 642 415 675 368.5 c 128,-1,7
 708 322 708 322 708 206.5 c 128,-1,0
 708 91 708 91 673.5 43.5 c 128,-1,1
626.5 321.5 m 128,-1,9
 610 353 610 353 574.5 353 c 128,-1,10
 539 353 539 353 523 321.5 c 128,-1,11
 507 290 507 290 507 205 c 128,-1,12
 507 120 507 120 523 90 c 128,-1,13
 539 60 539 60 574.5 60 c 128,-1,14
 610 60 610 60 626.5 90.5 c 128,-1,15
 643 121 643 121 643 205.5 c 128,-1,8
 643 290 643 290 626.5 321.5 c 128,-1,9
997.5 43.5 m 128,-1,17
 963 -4 963 -4 897.5 -4 c 128,-1,18
 832 -4 832 -4 798.5 42.5 c 128,-1,19
 765 89 765 89 765 204.5 c 128,-1,20
 765 320 765 320 799.5 367.5 c 128,-1,21
 834 415 834 415 900 415 c 128,-1,22
 966 415 966 415 999 368.5 c 128,-1,23
 1032 322 1032 322 1032 206.5 c 128,-1,16
 1032 91 1032 91 997.5 43.5 c 128,-1,17
950.5 321.5 m 128,-1,25
 934 353 934 353 898.5 353 c 128,-1,26
 863 353 863 353 847 321.5 c 128,-1,27
 831 290 831 290 831 205 c 128,-1,28
 831 120 831 120 847 90 c 128,-1,29
 863 60 863 60 898.5 60 c 128,-1,30
 934 60 934 60 950.5 90.5 c 128,-1,31
 967 121 967 121 967 205.5 c 128,-1,24
 967 290 967 290 950.5 321.5 c 128,-1,25
266.5 343.5 m 128,-1,33
 232 296 232 296 166.5 296 c 128,-1,34
 101 296 101 296 67.5 342.5 c 128,-1,35
 34 389 34 389 34 504.5 c 128,-1,36
 34 620 34 620 68.5 667.5 c 128,-1,37
 103 715 103 715 168.5 715 c 128,-1,38
 234 715 234 715 267.5 668.5 c 128,-1,39
 301 622 301 622 301 506.5 c 128,-1,32
 301 391 301 391 266.5 343.5 c 128,-1,33
218.5 621.5 m 128,-1,41
 202 653 202 653 166.5 653 c 128,-1,42
 131 653 131 653 115 621.5 c 128,-1,43
 99 590 99 590 99 505 c 128,-1,44
 99 420 99 420 115 390 c 128,-1,45
 131 360 131 360 166.5 360 c 128,-1,46
 202 360 202 360 218.5 390.5 c 128,-1,47
 235 421 235 421 235 505.5 c 128,-1,40
 235 590 235 590 218.5 621.5 c 128,-1,41
560 706 m 1,48,-1
 243 -42 l 1,49,-1
 168 -16 l 1,50,-1
 487 732 l 1,51,-1
 560 706 l 1,48,-1
EndSplineSet
EndChar

StartChar: guilsinglleft
Encoding: 8249 8249 227
Width: 325
GlyphClass: 2
Flags: W
LayerCount: 2
Fore
SplineSet
276 431 m 1,0,-1
 127 277 l 1,1,-1
 276 124 l 1,2,-1
 218 73 l 1,3,-1
 47 253 l 1,4,-1
 47 301 l 1,5,-1
 218 481 l 1,6,-1
 276 431 l 1,0,-1
EndSplineSet
EndChar

StartChar: guilsinglright
Encoding: 8250 8250 228
Width: 321
GlyphClass: 2
Flags: W
LayerCount: 2
Fore
SplineSet
194 308 m 1,0,-1
 46 462 l 1,1,-1
 104 512 l 1,2,-1
 275 332 l 1,3,-1
 275 284 l 1,4,-1
 104 104 l 1,5,-1
 46 155 l 1,6,-1
 194 308 l 1,0,-1
EndSplineSet
EndChar

StartChar: fraction
Encoding: 8260 8260 229
Width: 402
GlyphClass: 2
Flags: W
LayerCount: 2
Fore
SplineSet
397 684 m 1,0,-1
 80 -64 l 1,1,-1
 5 -38 l 1,2,-1
 324 710 l 1,3,-1
 397 684 l 1,0,-1
EndSplineSet
EndChar

StartChar: Euro
Encoding: 8364 8364 230
Width: 585
GlyphClass: 2
Flags: W
LayerCount: 2
Fore
SplineSet
412 446 m 1,0,-1
 412 382 l 1,1,-1
 216 382 l 1,2,3
 215 368 215 368 215 338.5 c 128,-1,4
 215 309 215 309 216 296 c 1,5,-1
 412 296 l 1,6,-1
 412 232 l 1,7,-1
 225 232 l 1,8,9
 260 69 260 69 426 69 c 0,10,11
 478 69 478 69 536 81 c 1,12,-1
 549 6 l 1,13,14
 470 -13 470 -13 407 -13 c 0,15,16
 166 -13 166 -13 126 232 c 1,17,-1
 40 232 l 1,18,-1
 40 296 l 1,19,-1
 120 296 l 1,20,21
 119 308 119 308 119 337.5 c 128,-1,22
 119 367 119 367 120 382 c 1,23,-1
 40 382 l 1,24,-1
 40 446 l 1,25,-1
 128 446 l 1,26,27
 168 681 168 681 395 681 c 0,28,29
 463 681 463 681 546 658 c 1,30,-1
 528 583 l 1,31,32
 461 598 461 598 410 598 c 0,33,34
 260 598 260 598 225 446 c 1,35,-1
 412 446 l 1,0,-1
EndSplineSet
EndChar

StartChar: trademark
Encoding: 8482 8482 231
Width: 752
GlyphClass: 2
Flags: W
LayerCount: 2
Fore
SplineSet
144 616 m 1,0,-1
 48 616 l 1,1,-1
 48 664 l 1,2,-1
 294 664 l 1,3,-1
 294 616 l 1,4,-1
 197 616 l 1,5,-1
 197 293 l 1,6,-1
 144 293 l 1,7,-1
 144 616 l 1,0,-1
511 389 m 1,8,-1
 612 664 l 1,9,-1
 674 664 l 1,10,-1
 692 293 l 1,11,-1
 642 293 l 1,12,-1
 633 557 l 1,13,-1
 633 603 l 1,14,-1
 532 334 l 1,15,-1
 491 334 l 1,16,-1
 389 603 l 1,17,-1
 389 557 l 1,18,-1
 380 293 l 1,19,-1
 331 293 l 1,20,-1
 349 664 l 1,21,-1
 411 664 l 1,22,-1
 511 389 l 1,8,-1
EndSplineSet
EndChar

StartChar: minus
Encoding: 8722 8722 232
Width: 504
GlyphClass: 2
Flags: W
LayerCount: 2
Fore
SplineSet
441 310 m 1,0,-1
 441 249 l 1,1,-1
 63 249 l 1,2,-1
 63 310 l 1,3,-1
 441 310 l 1,0,-1
EndSplineSet
EndChar

StartChar: fi
Encoding: 64257 64257 233
Width: 567
GlyphClass: 2
Flags: W
LayerCount: 2
Fore
SplineSet
409 435 m 1,0,-1
 205 435 l 1,1,-1
 205 -186 l 1,2,-1
 114 -177 l 1,3,-1
 114 435 l 1,4,-1
 21 440 l 1,5,-1
 30 499 l 1,6,-1
 114 506 l 1,7,-1
 114 543 l 2,8,9
 114 722 114 722 300 722 c 0,10,11
 371 722 371 722 439 706 c 1,12,-1
 421 632 l 1,13,14
 350 643 350 643 302 643 c 128,-1,15
 254 643 254 643 229.5 621 c 128,-1,16
 205 599 205 599 205 546 c 2,17,-1
 205 506 l 1,18,-1
 409 506 l 1,19,-1
 500 513 l 1,20,-1
 500 0 l 1,21,-1
 409 0 l 1,22,-1
 409 435 l 1,0,-1
EndSplineSet
EndChar

StartChar: fl
Encoding: 64258 64258 234
Width: 618
GlyphClass: 2
Flags: W
LayerCount: 2
Fore
SplineSet
114 543 m 2,0,1
 114 722 114 722 300 722 c 0,2,3
 401 722 401 722 512 682 c 1,4,-1
 512 102 l 2,5,6
 512 63 512 63 548 63 c 0,7,8
 576 63 576 63 607 73 c 1,9,-1
 622 7 l 1,10,11
 581 -13 581 -13 521 -13 c 0,12,13
 421 -13 421 -13 421 101 c 2,14,-1
 421 627 l 1,15,16
 356 643 356 643 305 643 c 128,-1,17
 254 643 254 643 229.5 621 c 128,-1,18
 205 599 205 599 205 546 c 2,19,-1
 205 506 l 1,20,-1
 342 506 l 1,21,-1
 332 435 l 1,22,-1
 205 435 l 1,23,-1
 205 -186 l 1,24,-1
 114 -177 l 1,25,-1
 114 435 l 1,26,-1
 21 440 l 1,27,-1
 30 499 l 1,28,-1
 114 506 l 1,29,-1
 114 543 l 2,0,1
EndSplineSet
EndChar

StartChar: plus.001
Encoding: 65540 -1 236
Width: 484
GlyphClass: 2
Flags: W
LayerCount: 2
Fore
SplineSet
281 85 m 1,0,-1
 202 85 l 1,1,-1
 202 239 l 1,2,-1
 50 239 l 1,3,-1
 50 318 l 1,4,-1
 202 318 l 1,5,-1
 202 470 l 1,6,-1
 281 470 l 1,7,-1
 281 318 l 1,8,-1
 434 318 l 1,9,-1
 434 239 l 1,10,-1
 281 239 l 1,11,-1
 281 85 l 1,0,-1
EndSplineSet
EndChar

StartChar: percent
Encoding: 65541 -1 237
Width: 812
GlyphClass: 2
Flags: W
LayerCount: 2
Fore
SplineSet
255 0 m 1,0,-1
 163 0 l 1,1,-1
 525 701 l 1,2,-1
 616 701 l 1,3,-1
 255 0 l 1,0,-1
291.5 348 m 128,-1,5
 255 307 255 307 193.5 307 c 128,-1,6
 132 307 132 307 97 347.5 c 128,-1,7
 62 388 62 388 62 497.5 c 128,-1,8
 62 607 62 607 98.5 649 c 128,-1,9
 135 691 135 691 196 691 c 128,-1,10
 257 691 257 691 292.5 649.5 c 128,-1,11
 328 608 328 608 328 498.5 c 128,-1,4
 328 389 328 389 291.5 348 c 128,-1,5
194 626 m 0,12,13
 136 626 136 626 136 499 c 0,14,15
 136 428 136 428 151 400 c 128,-1,16
 166 372 166 372 194.5 372 c 128,-1,17
 223 372 223 372 238.5 400 c 128,-1,18
 254 428 254 428 254 499 c 0,19,20
 254 626 254 626 194 626 c 0,12,13
681.5 28 m 128,-1,22
 645 -13 645 -13 583.5 -13 c 128,-1,23
 522 -13 522 -13 487 27.5 c 128,-1,24
 452 68 452 68 452 177.5 c 128,-1,25
 452 287 452 287 488.5 329 c 128,-1,26
 525 371 525 371 586 371 c 128,-1,27
 647 371 647 371 682.5 329.5 c 128,-1,28
 718 288 718 288 718 178.5 c 128,-1,21
 718 69 718 69 681.5 28 c 128,-1,22
584 306 m 0,29,30
 526 306 526 306 526 179 c 0,31,32
 526 108 526 108 541 80 c 128,-1,33
 556 52 556 52 584.5 52 c 128,-1,34
 613 52 613 52 628.5 80 c 128,-1,35
 644 108 644 108 644 179 c 0,36,37
 644 306 644 306 584 306 c 0,29,30
EndSplineSet
EndChar

